<?xml version="1.0" encoding="utf-8"?>
<svg version="1.1" xmlns:xlink="http://www.w3.org/1999/xlink" width="29px" height="29px" viewBox="1849 684.5  29 29" xmlns="http://www.w3.org/2000/svg">
  <path d="M 1863.5 684.5  C 1871.62 684.5  1878 690.88  1878 699  C 1878 707.12  1871.62 713.5  1863.5 713.5  C 1855.38 713.5  1849 707.12  1849 699  C 1849 690.88  1855.38 684.5  1863.5 684.5  Z " fill-rule="nonzero" fill="#ffffff" stroke="none" />
  <path d="M 1863.5 685  C 1871.34 685  1877.5 691.16  1877.5 699  C 1877.5 706.84  1871.34 713  1863.5 713  C 1855.66 713  1849.5 706.84  1849.5 699  C 1849.5 691.16  1855.66 685  1863.5 685  Z " stroke-width="1" stroke="#797979" fill="none" />
  <path d="M 1863.5 706.25  C 1859.44 706.25  1856.25 703.06  1856.25 699  C 1856.25 694.94  1859.44 691.75  1863.5 691.75  C 1867.56 691.75  1870.75 694.94  1870.75 699  C 1870.75 703.06  1867.56 706.25  1863.5 706.25  " fill-rule="nonzero" fill="#797979" stroke="none" />
</svg>