<?xml version="1.0" encoding="utf-8"?>
<svg version="1.1" xmlns:xlink="http://www.w3.org/1999/xlink" width="29px" height="29px" viewBox="1849 620.5  29 29" xmlns="http://www.w3.org/2000/svg">
  <path d="M 1863.5 620.5  C 1871.62 620.5  1878 626.88  1878 635  C 1878 643.12  1871.62 649.5  1863.5 649.5  C 1855.38 649.5  1849 643.12  1849 635  C 1849 626.88  1855.38 620.5  1863.5 620.5  Z " fill-rule="nonzero" fill="#ffffff" stroke="none" />
  <path d="M 1863.5 621  C 1871.34 621  1877.5 627.16  1877.5 635  C 1877.5 642.84  1871.34 649  1863.5 649  C 1855.66 649  1849.5 642.84  1849.5 635  C 1849.5 627.16  1855.66 621  1863.5 621  Z " stroke-width="1" stroke="#797979" fill="none" />
  <path d="M 1863.5 642.25  C 1859.44 642.25  1856.25 639.06  1856.25 635  C 1856.25 630.94  1859.44 627.75  1863.5 627.75  C 1867.56 627.75  1870.75 630.94  1870.75 635  C 1870.75 639.06  1867.56 642.25  1863.5 642.25  " fill-rule="nonzero" fill="#797979" stroke="none" />
</svg>