<?xml version="1.0" encoding="utf-8"?>
<svg version="1.1" xmlns:xlink="http://www.w3.org/1999/xlink" width="269px" height="156px" xmlns="http://www.w3.org/2000/svg">
  <g transform="matrix(1 0 0 1 -495 -793 )">
    <path d="M 72.7957899305555 82.0961538461539  C 74.9362702546296 84.2115384615385  76.0065104166667 86.7307692307692  76.0065104166667 89.6538461538462  C 76.0065104166667 92.6538461538462  74.9362702546296 95.2115384615385  72.7957899305555 97.3269230769231  C 70.6553096064815 99.4423076923077  68.1061921296296 100.5  65.1484375 100.5  C 62.1128472222222 100.5  59.5248119212963 99.4423076923077  57.3843315972222 97.3269230769231  C 55.2438512731482 95.2115384615385  54.1736111111111 92.6538461538462  54.1736111111111 89.6538461538462  C 54.1736111111111 86.7307692307692  55.2438512731482 84.2115384615385  57.3843315972222 82.0961538461539  C 59.5248119212963 79.9807692307692  62.1128472222222 78.9230769230769  65.1484375 78.9230769230769  C 68.1061921296296 78.9230769230769  70.6553096064815 79.9807692307692  72.7957899305555 82.0961538461539  Z M 207.529296875 81.9230769230769  C 209.669777199074 84  210.740017361111 86.5384615384615  210.740017361111 89.5384615384615  C 210.740017361111 92.5384615384615  209.669777199074 95.0961538461538  207.529296875 97.2115384615385  C 205.388816550926 99.3269230769231  202.80078125 100.384615384615  199.765190972222 100.384615384615  C 196.729600694444 100.384615384615  194.141565393519 99.3269230769231  192.001085069444 97.2115384615385  C 189.86060474537 95.0961538461538  188.790364583333 92.5384615384615  188.790364583333 89.5384615384615  C 188.790364583333 86.5384615384615  189.86060474537 84  192.001085069444 81.9230769230769  C 194.141565393519 79.8461538461539  196.729600694444 78.8076923076923  199.765190972222 78.8076923076923  C 202.80078125 78.8076923076923  205.388816550926 79.8461538461539  207.529296875 81.9230769230769  Z M 82.7198350694445 105.403846153846  C 87.1175491898148 101.057692307692  89.31640625 95.8076923076923  89.31640625 89.6538461538462  C 89.31640625 83.5769230769231  87.1175491898148 78.3461538461538  82.7198350694445 73.9615384615385  C 78.3221209490741 69.5769230769231  73.009837962963 67.3846153846154  66.7829861111111 67.3846153846154  C 60.5561342592593 67.3846153846154  55.2438512731482 69.5576923076923  50.8461371527778 73.9038461538461  C 46.4484230324074 78.25  44.2495659722222 83.5  44.2495659722222 89.6538461538462  C 44.2495659722222 95.8076923076923  46.4484230324074 101.057692307692  50.8461371527778 105.403846153846  C 55.2438512731482 109.75  60.5561342592593 111.923076923077  66.7829861111111 111.923076923077  C 73.009837962963 111.923076923077  78.3221209490741 109.75  82.7198350694445 105.403846153846  Z M 217.336588541667 105.288461538462  C 221.734302662037 100.942307692308  223.933159722222 95.6923076923077  223.933159722222 89.5384615384615  C 223.933159722222 83.3846153846154  221.734302662037 78.1346153846154  217.336588541667 73.7884615384615  C 212.938874421296 69.4423076923077  207.626591435185 67.2692307692308  201.399739583333 67.2692307692308  C 195.25072337963 67.2692307692308  189.957899305556 69.4423076923077  185.521267361111 73.7884615384615  C 181.084635416667 78.1346153846154  178.866319444444 83.3846153846154  178.866319444444 89.5384615384615  C 178.866319444444 95.6923076923077  181.06517650463 100.942307692308  185.462890625 105.288461538462  C 189.86060474537 109.634615384615  195.172887731481 111.807692307692  201.399739583333 111.807692307692  C 207.626591435185 111.807692307692  212.938874421296 109.634615384615  217.336588541667 105.288461538462  Z M 89.7250434027778 66.9807692307692  C 96.0686487268518 73.25  99.2404513888889 80.8076923076923  99.2404513888889 89.6538461538462  C 99.2404513888889 98.5769230769231  96.0686487268518 106.173076923077  89.7250434027778 112.442307692308  C 83.3814380787037 118.711538461538  75.7340856481482 121.846153846154  66.7829861111111 121.846153846154  C 57.7540509259259 121.846153846154  50.0677806712963 118.692307692308  43.7241753472222 112.384615384615  C 37.3805700231482 106.076923076923  34.2087673611111 98.5  34.2087673611111 89.6538461538462  C 34.2087673611111 80.8076923076923  37.4000289351852 73.25  43.7825520833333 66.9807692307692  C 50.1650752314815 60.7115384615385  57.8318865740741 57.5769230769231  66.7829861111111 57.5769230769231  C 75.7340856481482 57.5769230769231  83.3814380787037 60.7115384615385  89.7250434027778 66.9807692307692  Z M 224.458550347222 66.8653846153846  C 230.802155671296 73.1346153846154  233.973958333333 80.6923076923077  233.973958333333 89.5384615384615  C 233.973958333333 98.3846153846154  230.802155671296 105.942307692308  224.458550347222 112.211538461538  C 218.114945023148 118.480769230769  210.428674768519 121.615384615385  201.399739583333 121.615384615385  C 192.448640046296 121.615384615385  184.801287615741 118.480769230769  178.457682291667 112.211538461538  C 172.114076967593 105.942307692308  168.942274305556 98.3846153846154  168.942274305556 89.5384615384615  C 168.942274305556 80.6923076923077  172.114076967593 73.1346153846154  178.457682291667 66.8653846153846  C 184.801287615741 60.5961538461538  192.448640046296 57.4615384615385  201.399739583333 57.4615384615385  C 210.428674768519 57.4615384615385  218.114945023148 60.5961538461538  224.458550347222 66.8653846153846  Z M 105.603515625 127.557692307692  C 116.150245949074 117.134615384615  121.423611111111 104.576923076923  121.423611111111 89.8846153846154  C 121.423611111111 75.1923076923077  116.150245949074 62.6346153846154  105.603515625 52.2115384615385  C 95.0567853009259 41.7884615384615  82.3501157407407 36.5769230769231  67.4835069444445 36.5769230769231  C 57.7540509259259 36.5769230769231  48.7640335648148 38.9615384615384  40.5134548611111 43.7307692307692  C 32.2628761574074 48.5  25.724681712963 54.9807692307692  20.8988715277778 63.1730769230769  C 16.0730613425926 71.3653846153846  13.66015625 80.2692307692308  13.66015625 89.8846153846154  C 13.66015625 99.5  16.0730613425926 108.403846153846  20.8988715277778 116.596153846154  C 25.724681712963 124.788461538462  32.2628761574074 131.269230769231  40.5134548611111 136.038461538462  C 48.7640335648148 140.807692307692  57.7540509259259 143.192307692308  67.4835069444445 143.192307692308  C 82.3501157407407 143.192307692308  95.0567853009259 137.980769230769  105.603515625 127.557692307692  Z M 174.079427083333 29.5384615384615  C 182.096498842593 25.9230769230769  190.541666666667 24  199.414930555556 23.7692307692308  C 179.644675925926 15.2307692307692  158.006365740741 10.9615384615385  134.5 10.9615384615385  C 109.670428240741 10.9615384615385  87.3705150462963 15.1923076923077  67.6002604166667 23.6538461538462  C 76.70703125 23.6538461538462  85.3857060185185 25.4038461538461  93.6362847222222 28.9038461538462  C 101.886863425926 32.4038461538461  108.989366319444 37.1153846153846  114.943793402778 43.0384615384615  C 120.898220486111 48.9615384615384  125.646195023148 56  129.187717013889 64.1538461538461  C 132.72923900463 72.3076923076923  134.5 80.8846153846154  134.5 89.8846153846154  C 134.5 81.0384615384615  136.192925347222 72.5961538461538  139.578776041667 64.5576923076923  C 142.964626736111 56.5192307692308  147.556929976852 49.5769230769231  153.355685763889 43.7307692307692  C 159.154441550926 37.8846153846154  166.062355324074 33.1538461538461  174.079427083333 29.5384615384615  Z M 239.578125 127.557692307692  C 250.0859375 117.134615384615  255.33984375 104.576923076923  255.33984375 89.8846153846154  C 255.33984375 75.1923076923077  250.0859375 62.6346153846154  239.578125 52.2115384615385  C 229.0703125 41.7884615384615  216.383101851852 36.5769230769231  201.516493055556 36.5769230769231  C 186.649884259259 36.5769230769231  173.943214699074 41.7884615384615  163.396484375 52.2115384615385  C 152.849754050926 62.6346153846154  147.576388888889 75.1923076923077  147.576388888889 89.8846153846154  C 147.576388888889 104.576923076923  152.849754050926 117.134615384615  163.396484375 127.557692307692  C 173.943214699074 137.980769230769  186.649884259259 143.192307692308  201.516493055556 143.192307692308  C 216.383101851852 143.192307692308  229.0703125 137.980769230769  239.578125 127.557692307692  Z M 183.653211805556 6.46153846153846  C 198.986834490741 10.7692307692308  212.530237268519 16.8076923076923  224.283420138889 25  L 269 25  C 265.575231481482 28.5  262.656394675926 32.9038461538461  260.243489583333 37.7884615384615  C 257.830584490741 42.6730769230769  256.273871527778 47.0769230769231  255.573350694444 51  C 264.135271990741 62.6153846153846  268.416232638889 75.5769230769231  268.416232638889 89.8846153846154  C 268.416232638889 101.884615384615  265.419560185185 112.961538461538  259.426215277778 123.115384615385  C 253.43287037037 133.269230769231  245.299045138889 141.288461538462  235.024739583333 147.173076923077  C 224.750434027778 153.057692307692  213.581018518519 156  201.516493055556 156  C 191.164351851852 156  181.473813657407 153.846153846154  172.444878472222 149.538461538462  C 163.415943287037 145.230769230769  155.788049768519 139.269230769231  149.561197916667 131.653846153846  C 145.902922453704 135.961538461538  140.882523148148 142.846153846154  134.5 152.307692307692  C 133.64380787037 150.615384615385  131.561704282407 147.442307692308  128.253689236111 142.788461538462  C 124.945674189815 138.134615384615  122.046296296296 134.384615384615  119.555555555556 131.538461538462  C 113.328703703704 139.153846153846  105.681351273148 145.134615384615  96.6134982638889 149.480769230769  C 87.5456452546296 153.826923076923  77.8356481481482 156  67.4835069444445 156  C 55.4189814814815 156  44.2495659722222 153.057692307692  33.9752604166667 147.173076923077  C 23.7009548611111 141.288461538462  15.5671296296296 133.269230769231  9.57378472222222 123.115384615385  C 3.58043981481481 112.961538461538  0.583767361111111 101.884615384615  0.583767361111111 89.8846153846154  C 0.583767361111111 75.5769230769231  4.86472800925926 62.6153846153846  13.4266493055556 51  C 12.7261284722222 47.0769230769231  11.1694155092593 42.6730769230769  8.75651041666667 37.7884615384615  C 6.34360532407407 32.9038461538461  3.42476851851852 28.5  0 25  L 42.6150173611111 25  C 54.2125289351852 16.8846153846154  68.0283564814815 10.8653846153846  84.0625 6.51923076923077  C 100.096643518519 2.17307692307691  116.909143518519 0  134.5 0  C 151.935185185185 0  168.31958912037 2.15384615384613  183.653211805556 6.46153846153846  Z " fill-rule="nonzero" fill="#7f7f7f" stroke="none" transform="matrix(1 0 0 1 495 793 )" />
  </g>
</svg>