<?xml version="1.0" encoding="utf-8"?>
<svg version="1.1" xmlns:xlink="http://www.w3.org/1999/xlink" width="48px" height="32px" xmlns="http://www.w3.org/2000/svg">
  <g transform="matrix(1 0 0 1 -3936 -2265 )">
    <path d="M 48 28  L 40 28  C 42.21 28  43.98 26.21  44 24  L 44 4  C 44 1.79  42.21 0  40 0  L 8 0  C 5.79 0  4 1.79  4 4  L 4 24  C 4 26.21  5.79 28  8 28  L 0 28  L 0 32  L 48 32  L 48 28  Z M 8 24  L 8 4  L 40 4  L 40 24  L 8 24  Z " fill-rule="nonzero" fill="#7f7f7f" stroke="none" transform="matrix(1 0 0 1 3936 2265 )" />
  </g>
</svg>