<?xml version="1.0" encoding="utf-8"?>
<svg version="1.1" xmlns:xlink="http://www.w3.org/1999/xlink" width="51px" height="46px" xmlns="http://www.w3.org/2000/svg">
  <g transform="matrix(1 0 0 1 -3935 -1126 )">
    <path d="M 5.09999999999998 30  L 5.09999999999998 38.3333333333333  L 5.09999999999998 46  L 12.75 46  L 12.75 38  L 38.25 38  L 38.25 46  L 46 46  L 46 30  L 5.09999999999998 30  Z M 43.35 25.5555555555555  L 43.35 17.8888888888889  L 51 17.8888888888889  L 51 25.5555555555555  L 43.35 25.5555555555555  Z M 0 25.5555555555555  L 0 17.8888888888889  L 7.65000000000002 17.8888888888889  L 7.65000000000002 25.5555555555555  L 0 25.5555555555555  Z M 38 5.11111111111109  L 38 25  L 13 25  L 13 5.11111111111109  C 12.75 2.2872222222222  15.03225 0  17.85 0  L 33.15 0  C 35.96775 0  38.25 2.2872222222222  38 5.11111111111109  Z " fill-rule="nonzero" fill="#7f7f7f" stroke="none" transform="matrix(1 0 0 1 3935 1126 )" />
  </g>
</svg>