<?xml version="1.0" encoding="utf-8"?>
<svg version="1.1" xmlns:xlink="http://www.w3.org/1999/xlink" width="50px" height="48px" xmlns="http://www.w3.org/2000/svg">
  <g transform="matrix(1 0 0 1 -3935 -2687 )">
    <path d="M 44.4545454545455 30.3785850860421  L 50 24  L 44.4545454545455 17.6214149139579  L 45.2272727272727 9.16634799235182  L 37.0227272727273 7.29636711281071  L 32.7272727272727 0  L 25 3.34990439770554  L 17.2727272727273 0  L 12.9772727272727 7.29636711281071  L 4.77272727272727 9.16634799235182  L 5.54545454545455 17.6214149139579  L 0 24  L 5.54545454545455 30.3785850860421  L 4.77272727272727 38.8336520076482  L 12.9772727272727 40.7036328871893  L 17.2727272727273 48  L 25 44.6500956022945  L 32.7272727272727 48  L 37.0227272727273 40.7036328871893  L 45.2272727272727 38.8336520076482  L 44.4545454545455 30.3785850860421  Z M 27.2727272727273 30.8833652007648  L 27.2727272727273 35.472275334608  L 22.7272727272727 35.472275334608  L 22.7272727272727 30.8833652007648  L 27.2727272727273 30.8833652007648  Z M 27 12.527724665392  L 27 26.2944550669216  L 23 26.2944550669216  L 23 12.527724665392  L 27 12.527724665392  Z " fill-rule="nonzero" fill="#7f7f7f" stroke="none" transform="matrix(1 0 0 1 3935 2687 )" />
  </g>
</svg>