<?xml version="1.0" encoding="utf-8"?>
<svg version="1.1" xmlns:xlink="http://www.w3.org/1999/xlink" width="50px" height="50px" xmlns="http://www.w3.org/2000/svg">
  <g transform="matrix(1 0 0 1 -3935 -1641 )">
    <path d="M 3.57142857142857 30  L 46.4285714285714 30  L 46.4285714285714 35.7142857142857  C 46.4285714285714 38.8578869047619  45.2380952380952 41.5178571428571  42.8571428571429 43.6941964285714  L 42.8571428571429 49.1071428571429  C 42.8571428571429 49.3675595238095  42.7734375 49.5814732142857  42.6060267857143 49.7488839285714  C 42.4386160714286 49.9162946428571  42.2247023809524 50  41.9642857142857 50  L 40.1785714285714 50  C 39.9181547619048 50  39.7042410714286 49.9162946428571  39.5368303571429 49.7488839285714  C 39.3694196428571 49.5814732142857  39.2857142857143 49.3675595238095  39.2857142857143 49.1071428571429  L 39.2857142857143 45.8147321428571  C 38.1138392857143 46.2239583333333  36.9233630952381 46.4285714285714  35.7142857142857 46  L 14.2857142857143 46  C 13.0766369047619 46.4285714285714  11.8861607142857 46.2239583333333  10.7142857142857 45.8147321428571  L 10.7142857142857 48.8839285714286  C 10.7142857142857 49.2001488095238  10.6259300595238 49.4652157738095  10.44921875 49.6791294642857  C 10.2725074404762 49.8930431547619  10.063244047619 50  9.82142857142857 50  L 8.03571428571429 50  C 7.79389880952381 50  7.58463541666667 49.8930431547619  7.40792410714286 49.6791294642857  C 7.23121279761905 49.4652157738095  7.14285714285714 49.2001488095238  7.14285714285714 48.8839285714286  L 7.14285714285714 43.6941964285714  C 4.76190476190476 41.5178571428571  3.57142857142857 38.8578869047619  3.57142857142857 35.7142857142857  L 3.57142857142857 30  Z M 19.3917410714286 18.1082589285714  C 19.5591517857143 18.2756696428571  19.6428571428571 18.4895833333333  19.6428571428571 18.75  C 19.6428571428571 19.0104166666667  19.5591517857143 19.2243303571429  19.3917410714286 19.3917410714286  C 19.2243303571429 19.5591517857143  19.0104166666667 19.6428571428571  18.75 19.6428571428571  C 18.4895833333333 19.6428571428571  18.2756696428571 19.5591517857143  18.1082589285714 19.3917410714286  C 17.9408482142857 19.2243303571429  17.8571428571429 19.0104166666667  17.8571428571429 18.75  C 17.8571428571429 18.4895833333333  17.9408482142857 18.2756696428571  18.1082589285714 18.1082589285714  C 18.2756696428571 17.9408482142857  18.4895833333333 17.8571428571429  18.75 17.8571428571429  C 19.0104166666667 17.8571428571429  19.2243303571429 17.9408482142857  19.3917410714286 18.1082589285714  Z M 21.1774553571429 16.3225446428571  C 21.3448660714286 16.4899553571429  21.4285714285714 16.703869047619  21.4285714285714 16.9642857142857  C 21.4285714285714 17.2247023809524  21.3448660714286 17.4386160714286  21.1774553571429 17.6060267857143  C 21.0100446428571 17.7734375  20.796130952381 17.8571428571429  20.5357142857143 17.8571428571429  C 20.2752976190476 17.8571428571429  20.0613839285714 17.7734375  19.8939732142857 17.6060267857143  C 19.7265625 17.4386160714286  19.6428571428571 17.2247023809524  19.6428571428571 16.9642857142857  C 19.6428571428571 16.703869047619  19.7265625 16.4899553571429  19.8939732142857 16.3225446428571  C 20.0613839285714 16.1551339285714  20.2752976190476 16.0714285714286  20.5357142857143 16.0714285714286  C 20.796130952381 16.0714285714286  21.0100446428571 16.1551339285714  21.1774553571429 16.3225446428571  Z M 19.3917410714286 14.5368303571429  C 19.5591517857143 14.7042410714286  19.6428571428571 14.9181547619048  19.6428571428571 15.1785714285714  C 19.6428571428571 15.4389880952381  19.5591517857143 15.6529017857143  19.3917410714286 15.8203125  C 19.2243303571429 15.9877232142857  19.0104166666667 16.0714285714286  18.75 16.0714285714286  C 18.4895833333333 16.0714285714286  18.2756696428571 15.9877232142857  18.1082589285714 15.8203125  C 17.9408482142857 15.6529017857143  17.8571428571429 15.4389880952381  17.8571428571429 15.1785714285714  C 17.8571428571429 14.9181547619048  17.9408482142857 14.7042410714286  18.1082589285714 14.5368303571429  C 18.2756696428571 14.3694196428571  18.4895833333333 14.2857142857143  18.75 14.2857142857143  C 19.0104166666667 14.2857142857143  19.2243303571429 14.3694196428571  19.3917410714286 14.5368303571429  Z M 22.9631696428571 14.5368303571429  C 23.1305803571429 14.7042410714286  23.2142857142857 14.9181547619048  23.2142857142857 15.1785714285714  C 23.2142857142857 15.4389880952381  23.1305803571429 15.6529017857143  22.9631696428571 15.8203125  C 22.7957589285714 15.9877232142857  22.5818452380952 16.0714285714286  22.3214285714286 16.0714285714286  C 22.0610119047619 16.0714285714286  21.8470982142857 15.9877232142857  21.6796875 15.8203125  C 21.5122767857143 15.6529017857143  21.4285714285714 15.4389880952381  21.4285714285714 15.1785714285714  C 21.4285714285714 14.9181547619048  21.5122767857143 14.7042410714286  21.6796875 14.5368303571429  C 21.8470982142857 14.3694196428571  22.0610119047619 14.2857142857143  22.3214285714286 14.2857142857143  C 22.5818452380952 14.2857142857143  22.7957589285714 14.3694196428571  22.9631696428571 14.5368303571429  Z M 21.1774553571429 12.7511160714286  C 21.3448660714286 12.9185267857143  21.4285714285714 13.1324404761905  21.4285714285714 13.3928571428571  C 21.4285714285714 13.6532738095238  21.3448660714286 13.8671875  21.1774553571429 14.0345982142857  C 21.0100446428571 14.2020089285714  20.796130952381 14.2857142857143  20.5357142857143 14.2857142857143  C 20.2752976190476 14.2857142857143  20.0613839285714 14.2020089285714  19.8939732142857 14.0345982142857  C 19.7265625 13.8671875  19.6428571428571 13.6532738095238  19.6428571428571 13.3928571428571  C 19.6428571428571 13.1324404761905  19.7265625 12.9185267857143  19.8939732142857 12.7511160714286  C 20.0613839285714 12.5837053571429  20.2752976190476 12.5  20.5357142857143 12.5  C 20.796130952381 12.5  21.0100446428571 12.5837053571429  21.1774553571429 12.7511160714286  Z M 19.3917410714286 10.9654017857143  C 19.5591517857143 11.1328125  19.6428571428571 11.3467261904762  19.6428571428571 11.6071428571429  C 19.6428571428571 11.8675595238095  19.5591517857143 12.0814732142857  19.3917410714286 12.2488839285714  C 19.2243303571429 12.4162946428571  19.0104166666667 12.5  18.75 12.5  C 18.4895833333333 12.5  18.2756696428571 12.4162946428571  18.1082589285714 12.2488839285714  C 17.9408482142857 12.0814732142857  17.8571428571429 11.8675595238095  17.8571428571429 11.6071428571429  C 17.8571428571429 11.3467261904762  17.9408482142857 11.1328125  18.1082589285714 10.9654017857143  C 18.2756696428571 10.7979910714286  18.4895833333333 10.7142857142857  18.75 10.7142857142857  C 19.0104166666667 10.7142857142857  19.2243303571429 10.7979910714286  19.3917410714286 10.9654017857143  Z M 49.7488839285714 25.2511160714286  C 49.9162946428571 25.4185267857143  50 25.6324404761905  50 25.8928571428571  L 50 27.6785714285714  C 50 27.9389880952381  49.9162946428571 28.1529017857143  49.7488839285714 28.3203125  C 49.5814732142857 28.4877232142857  49.3675595238095 28.5714285714286  49.1071428571429 28  L 0.892857142857143 28  C 0.632440476190476 28.5714285714286  0.418526785714286 28.4877232142857  0.251116071428571 28.3203125  C 0.0837053571428571 28.1529017857143  0 27.9389880952381  0 27.6785714285714  L 0 25.8928571428571  C 0 25.6324404761905  0.0837053571428571 25.4185267857143  0.251116071428571 25.2511160714286  C 0.418526785714286 25.0837053571429  0.632440476190476 25  0.892857142857143 25  L 4 25  L 4 7.14285714285715  C 3.57142857142857 5.17113095238095  4.26897321428571 3.48772321428572  5.6640625 2.09263392857143  C 7.05915178571429 0.697544642857145  8.74255952380953 0  10.7142857142857 0  C 12.7232142857143 0  14.4345238095238 0.72544642857143  15.8482142857143 2.17633928571428  C 16.7038690476191 1.82291666666666  17.6153273809524 1.71130952380952  18.5825892857143 1.84151785714285  C 19.5498511904762 1.97172619047619  20.4148065476191 2.3344494047619  21.1774553571429 2.9296875  L 21.7912946428571 2.31584821428572  C 21.9959077380952 2.11123511904762  22.2005208333333 2.11123511904762  22.4051339285714 2.31584821428572  L 23.5770089285714 3.48772321428572  C 23.7816220238095 3.69233630952381  23.7816220238095 3.8969494047619  23.5770089285714 4.1015625  L 14.8158482142857 12.8627232142857  C 14.6112351190476 13.0673363095238  14.4066220238095 13.0673363095238  14.2020089285714 12.8627232142857  L 13.0301339285714 11.6908482142857  C 12.8255208333333 11.4862351190476  12.8255208333333 11.2816220238095  13.0301339285714 11.0770089285714  L 13.6439732142857 10.4631696428571  C 12.9743303571429 9.60751488095238  12.59765625 8.64025297619047  12.5139508928571 7.56138392857143  C 12.4302455357143 6.48251488095238  12.6488095238095 5.47805059523809  13.1696428571429 4.54799107142857  C 12.4813988095238 3.8969494047619  11.6629464285714 3.57142857142857  10.7142857142857 3.57142857142857  C 9.72842261904762 3.57142857142857  8.88671875 3.92020089285715  8.18917410714286 4.61774553571428  C 7.49162946428571 5.31529017857143  7.14285714285714 6.15699404761904  8 7.14285714285715  L 8 25  L 49.1071428571429 25  C 49.3675595238095 25  49.5814732142857 25.0837053571429  49.7488839285714 25.2511160714286  Z M 24.7488839285714 12.7511160714286  C 24.9162946428571 12.9185267857143  25 13.1324404761905  25 13.3928571428571  C 25 13.6532738095238  24.9162946428571 13.8671875  24.7488839285714 14.0345982142857  C 24.5814732142857 14.2020089285714  24.3675595238095 14.2857142857143  24.1071428571429 14.2857142857143  C 23.8467261904762 14.2857142857143  23.6328125 14.2020089285714  23.4654017857143 14.0345982142857  C 23.2979910714286 13.8671875  23.2142857142857 13.6532738095238  23.2142857142857 13.3928571428571  C 23.2142857142857 13.1324404761905  23.2979910714286 12.9185267857143  23.4654017857143 12.7511160714286  C 23.6328125 12.5837053571429  23.8467261904762 12.5  24.1071428571429 12.5  C 24.3675595238095 12.5  24.5814732142857 12.5837053571429  24.7488839285714 12.7511160714286  Z M 22.9631696428571 10.9654017857143  C 23.1305803571429 11.1328125  23.2142857142857 11.3467261904762  23.2142857142857 11.6071428571429  C 23.2142857142857 11.8675595238095  23.1305803571429 12.0814732142857  22.9631696428571 12.2488839285714  C 22.7957589285714 12.4162946428571  22.5818452380952 12.5  22.3214285714286 12.5  C 22.0610119047619 12.5  21.8470982142857 12.4162946428571  21.6796875 12.2488839285714  C 21.5122767857143 12.0814732142857  21.4285714285714 11.8675595238095  21.4285714285714 11.6071428571429  C 21.4285714285714 11.3467261904762  21.5122767857143 11.1328125  21.6796875 10.9654017857143  C 21.8470982142857 10.7979910714286  22.0610119047619 10.7142857142857  22.3214285714286 10.7142857142857  C 22.5818452380952 10.7142857142857  22.7957589285714 10.7979910714286  22.9631696428571 10.9654017857143  Z M 21.1774553571429 9.1796875  C 21.3448660714286 9.34709821428572  21.4285714285714 9.5610119047619  21.4285714285714 9.82142857142857  C 21.4285714285714 10.0818452380952  21.3448660714286 10.2957589285714  21.1774553571429 10.4631696428571  C 21.0100446428571 10.6305803571429  20.796130952381 10.7142857142857  20.5357142857143 10.7142857142857  C 20.2752976190476 10.7142857142857  20.0613839285714 10.6305803571429  19.8939732142857 10.4631696428571  C 19.7265625 10.2957589285714  19.6428571428571 10.0818452380952  19.6428571428571 9.82142857142857  C 19.6428571428571 9.5610119047619  19.7265625 9.34709821428572  19.8939732142857 9.1796875  C 20.0613839285714 9.01227678571428  20.2752976190476 8.92857142857143  20.5357142857143 8.92857142857143  C 20.796130952381 8.92857142857143  21.0100446428571 9.01227678571428  21.1774553571429 9.1796875  Z M 26.5345982142857 10.9654017857143  C 26.7020089285714 11.1328125  26.7857142857143 11.3467261904762  26.7857142857143 11.6071428571429  C 26.7857142857143 11.8675595238095  26.7020089285714 12.0814732142857  26.5345982142857 12.2488839285714  C 26.3671875 12.4162946428571  26.1532738095238 12.5  25.8928571428571 12.5  C 25.6324404761905 12.5  25.4185267857143 12.4162946428571  25.2511160714286 12.2488839285714  C 25.0837053571429 12.0814732142857  25 11.8675595238095  25 11.6071428571429  C 25 11.3467261904762  25.0837053571429 11.1328125  25.2511160714286 10.9654017857143  C 25.4185267857143 10.7979910714286  25.6324404761905 10.7142857142857  25.8928571428571 10.7142857142857  C 26.1532738095238 10.7142857142857  26.3671875 10.7979910714286  26.5345982142857 10.9654017857143  Z M 24.7488839285714 9.1796875  C 24.9162946428571 9.34709821428572  25 9.5610119047619  25 9.82142857142857  C 25 10.0818452380952  24.9162946428571 10.2957589285714  24.7488839285714 10.4631696428571  C 24.5814732142857 10.6305803571429  24.3675595238095 10.7142857142857  24.1071428571429 10.7142857142857  C 23.8467261904762 10.7142857142857  23.6328125 10.6305803571429  23.4654017857143 10.4631696428571  C 23.2979910714286 10.2957589285714  23.2142857142857 10.0818452380952  23.2142857142857 9.82142857142857  C 23.2142857142857 9.5610119047619  23.2979910714286 9.34709821428572  23.4654017857143 9.1796875  C 23.6328125 9.01227678571428  23.8467261904762 8.92857142857143  24.1071428571429 8.92857142857143  C 24.3675595238095 8.92857142857143  24.5814732142857 9.01227678571428  24.7488839285714 9.1796875  Z M 22.9631696428571 7.39397321428572  C 23.1305803571429 7.56138392857143  23.2142857142857 7.77529761904762  23.2142857142857 8.03571428571428  C 23.2142857142857 8.29613095238095  23.1305803571429 8.51004464285715  22.9631696428571 8.67745535714285  C 22.7957589285714 8.84486607142857  22.5818452380952 8.92857142857143  22.3214285714286 8.92857142857143  C 22.0610119047619 8.92857142857143  21.8470982142857 8.84486607142857  21.6796875 8.67745535714285  C 21.5122767857143 8.51004464285715  21.4285714285714 8.29613095238095  21.4285714285714 8.03571428571428  C 21.4285714285714 7.77529761904762  21.5122767857143 7.56138392857143  21.6796875 7.39397321428572  C 21.8470982142857 7.2265625  22.0610119047619 7.14285714285715  22.3214285714286 7.14285714285715  C 22.5818452380952 7.14285714285715  22.7957589285714 7.2265625  22.9631696428571 7.39397321428572  Z M 28.3203125 9.1796875  C 28.4877232142857 9.34709821428572  28.5714285714286 9.5610119047619  28.5714285714286 9.82142857142857  C 28.5714285714286 10.0818452380952  28.4877232142857 10.2957589285714  28.3203125 10.4631696428571  C 28.1529017857143 10.6305803571429  27.9389880952381 10.7142857142857  27.6785714285714 10.7142857142857  C 27.4181547619048 10.7142857142857  27.2042410714286 10.6305803571429  27.0368303571429 10.4631696428571  C 26.8694196428571 10.2957589285714  26.7857142857143 10.0818452380952  26.7857142857143 9.82142857142857  C 26.7857142857143 9.5610119047619  26.8694196428571 9.34709821428572  27.0368303571429 9.1796875  C 27.2042410714286 9.01227678571428  27.4181547619048 8.92857142857143  27.6785714285714 8.92857142857143  C 27.9389880952381 8.92857142857143  28.1529017857143 9.01227678571428  28.3203125 9.1796875  Z M 26.5345982142857 7.39397321428572  C 26.7020089285714 7.56138392857143  26.7857142857143 7.77529761904762  26.7857142857143 8.03571428571428  C 26.7857142857143 8.29613095238095  26.7020089285714 8.51004464285715  26.5345982142857 8.67745535714285  C 26.3671875 8.84486607142857  26.1532738095238 8.92857142857143  25.8928571428571 8.92857142857143  C 25.6324404761905 8.92857142857143  25.4185267857143 8.84486607142857  25.2511160714286 8.67745535714285  C 25.0837053571429 8.51004464285715  25 8.29613095238095  25 8.03571428571428  C 25 7.77529761904762  25.0837053571429 7.56138392857143  25.2511160714286 7.39397321428572  C 25.4185267857143 7.2265625  25.6324404761905 7.14285714285715  25.8928571428571 7.14285714285715  C 26.1532738095238 7.14285714285715  26.3671875 7.2265625  26.5345982142857 7.39397321428572  Z M 30.1060267857143 7.39397321428572  C 30.2734375 7.56138392857143  30.3571428571429 7.77529761904762  30.3571428571429 8.03571428571428  C 30.3571428571429 8.29613095238095  30.2734375 8.51004464285715  30.1060267857143 8.67745535714285  C 29.9386160714286 8.84486607142857  29.7247023809524 8.92857142857143  29.4642857142857 8.92857142857143  C 29.2038690476191 8.92857142857143  28.9899553571429 8.84486607142857  28.8225446428571 8.67745535714285  C 28.6551339285714 8.51004464285715  28.5714285714286 8.29613095238095  28.5714285714286 8.03571428571428  C 28.5714285714286 7.77529761904762  28.6551339285714 7.56138392857143  28.8225446428571 7.39397321428572  C 28.9899553571429 7.2265625  29.2038690476191 7.14285714285715  29.4642857142857 7.14285714285715  C 29.7247023809524 7.14285714285715  29.9386160714286 7.2265625  30.1060267857143 7.39397321428572  Z " fill-rule="nonzero" fill="#7f7f7f" stroke="none" transform="matrix(1 0 0 1 3935 1641 )" />
  </g>
</svg>