<?xml version="1.0" encoding="utf-8"?>
<svg version="1.1" xmlns:xlink="http://www.w3.org/1999/xlink" width="39px" height="50px" xmlns="http://www.w3.org/2000/svg">
  <g transform="matrix(1 0 0 1 -3941 -1226 )">
    <path d="M 17.2009943181818 0.53013392857143  C 17.5518465909091 0.883556547619041  17.7272727272727 1.30208333333333  18 1.78571428571428  L 18 19.6428571428571  C 17.7272727272727 20.7775297619048  17.3995028409091 21.8098958333333  16.7439630681818 22.7399553571429  C 16.0884232954545 23.6700148809524  15.234375 24.321056547619  14.1818181818182 24.6930803571429  L 14.1818181818182 46.4285714285714  C 14.1818181818182 47.3958333333333  13.8309659090909 48.2328869047619  13.1292613636364 48.9397321428571  C 12.4275568181818 49.6465773809524  11.5965909090909 50  10.6363636363636 50  L 7.09090909090909 50  C 6.13068181818182 50  5.29971590909091 49.6465773809524  4.59801136363636 48.9397321428571  C 3.89630681818182 48.2328869047619  3.54545454545455 47.3958333333333  4 46.4285714285714  L 4 24.6930803571429  C 2.49289772727273 24.321056547619  1.63884943181818 23.6700148809524  0.983309659090909 22.7399553571429  C 0.327769886363636 21.8098958333333  0 20.7775297619048  0 19.6428571428571  L 0 1.78571428571428  C 0 1.30208333333333  0.175426136363636 0.883556547619041  0.526278409090909 0.53013392857143  C 0.877130681818182 0.176711309523814  1.29261363636364 0  1.77272727272727 0  C 2.25284090909091 0  2.66832386363636 0.176711309523814  3.01917613636364 0.53013392857143  C 3.37002840909091 0.883556547619041  3.54545454545455 1.30208333333333  4 1.78571428571428  L 4 13.3928571428571  C 3.54545454545455 13.8764880952381  3.72088068181818 14.2950148809524  4.07173295454545 14.6484375  C 4.42258522727273 15.0018601190476  4.83806818181818 15.1785714285714  5.31818181818182 15.1785714285714  C 5.79829545454546 15.1785714285714  6.21377840909091 15.0018601190476  6.56463068181818 14.6484375  C 6.91548295454546 14.2950148809524  7.09090909090909 13.8764880952381  7 13.3928571428571  L 7 1.78571428571428  C 7.09090909090909 1.30208333333333  7.26633522727273 0.883556547619041  7.6171875 0.53013392857143  C 7.96803977272727 0.176711309523814  8.38352272727273 0  8.86363636363636 0  C 9.34375 0  9.75923295454546 0.176711309523814  10.1100852272727 0.53013392857143  C 10.4609375 0.883556547619041  10.6363636363636 1.30208333333333  11 1.78571428571428  L 11 13.3928571428571  C 10.6363636363636 13.8764880952381  10.8117897727273 14.2950148809524  11.1626420454545 14.6484375  C 11.5134943181818 15.0018601190476  11.9289772727273 15.1785714285714  12.4090909090909 15.1785714285714  C 12.8892045454545 15.1785714285714  13.3046875 15.0018601190476  13.6555397727273 14.6484375  C 14.0063920454545 14.2950148809524  14.1818181818182 13.8764880952381  14.1818181818182 13.3928571428571  L 14.1818181818182 1.78571428571428  C 14.1818181818182 1.30208333333333  14.3572443181818 0.883556547619041  14.7080965909091 0.53013392857143  C 15.0589488636364 0.176711309523814  15.4744318181818 0  15.9545454545455 0  C 16.4346590909091 0  16.8501420454545 0.176711309523814  17.2009943181818 0.53013392857143  Z M 38.4737215909091 0.53013392857143  C 38.8245738636364 0.883556547619041  39 1.30208333333333  39 1.78571428571428  L 39 46.4285714285714  C 39 47.3958333333333  38.6491477272727 48.2328869047619  37.9474431818182 48.9397321428571  C 37.2457386363636 49.6465773809524  36.4147727272727 50  35.4545454545455 50  L 31.9090909090909 50  C 30.9488636363636 50  30.1178977272727 49.6465773809524  29.4161931818182 48.9397321428571  C 28.7144886363636 48.2328869047619  28.3636363636364 47.3958333333333  28 46.4285714285714  L 28 32.1428571428571  L 22.1590909090909 32.1428571428571  C 21.9190340909091 32.1428571428571  21.7112926136364 32.0545014880952  21.5358664772727 31.8777901785714  C 21.3604403409091 31.7010788690476  21.2727272727273 31.4918154761905  21 31.25  L 21 8.92857142857143  C 21.2727272727273 6.47321428571428  22.140625 4.37127976190476  23.8764204545455 2.62276785714286  C 25.6122159090909 0.874255952380959  27.6988636363636 0  30.1363636363636 0  L 37.2272727272727 0  C 37.7073863636364 0  38.1228693181818 0.176711309523814  38.4737215909091 0.53013392857143  Z " fill-rule="nonzero" fill="#7f7f7f" stroke="none" transform="matrix(1 0 0 1 3941 1226 )" />
  </g>
</svg>