<?xml version="1.0" encoding="utf-8"?>
<svg version="1.1" xmlns:xlink="http://www.w3.org/1999/xlink" width="50px" height="22px" xmlns="http://www.w3.org/2000/svg">
  <g transform="matrix(1 0 0 1 -3935 -2066 )">
    <path d="M 6.81818181818182 6.6  C 6.81818181818182 10.241  9.875 13.2  13.6363636363636 13.2  C 17.3977272727273 13.2  20.4545454545455 10.241  20.4545454545455 6.6  C 20.4545454545455 2.959  17.3977272727273 0  13.6363636363636 0  C 9.875 0  6.81818181818182 2.959  6.81818181818182 6.6  Z M 50 8.8  C 50 3.938  45.9318181818182 0  40.9090909090909 0  L 23 0  L 23 15  L 5 15  L 5 0  L 0 0  L 0 22  L 50 22  L 50 8.8  Z " fill-rule="nonzero" fill="#7f7f7f" stroke="none" transform="matrix(1 0 0 1 3935 2066 )" />
  </g>
</svg>