<?xml version="1.0" encoding="utf-8"?>
<svg version="1.1" xmlns:xlink="http://www.w3.org/1999/xlink" width="40px" height="36px" xmlns="http://www.w3.org/2000/svg">
  <g transform="matrix(1 0 0 1 -3940 -1028 )">
    <path d="M 40 8  L 20 8  L 20 0  L 0 0  L 0 36  L 40 36  L 40 8  Z M 8 28  L 8 32  L 4 32  L 4 28  L 8 28  Z M 8 20  L 8 24  L 4 24  L 4 20  L 8 20  Z M 8 12  L 8 16  L 4 16  L 4 12  L 8 12  Z M 8 4  L 8 8  L 4 8  L 4 4  L 8 4  Z M 16 28  L 16 32  L 12 32  L 12 28  L 16 28  Z M 16 20  L 16 24  L 12 24  L 12 20  L 16 20  Z M 16 12  L 16 16  L 12 16  L 12 12  L 16 12  Z M 16 4  L 16 8  L 12 8  L 12 4  L 16 4  Z M 36 12  L 36 32  L 20 32  L 20 28  L 24 28  L 24 24  L 20 24  L 20 20  L 24 20  L 24 16  L 20 16  L 20 12  L 36 12  Z M 32 20  L 32 16  L 28 16  L 28 20  L 32 20  Z M 32 28  L 32 24  L 28 24  L 28 28  L 32 28  Z " fill-rule="nonzero" fill="#7f7f7f" stroke="none" transform="matrix(1 0 0 1 3940 1028 )" />
  </g>
</svg>