<?xml version="1.0" encoding="utf-8"?>
<svg version="1.1" xmlns:xlink="http://www.w3.org/1999/xlink" width="36px" height="42px" xmlns="http://www.w3.org/2000/svg">
  <g transform="matrix(1 0 0 1 -3942 -2363 )">
    <path d="M 36 24  C 26.06 24  18 32.06  18 42  C 27.94 42  36 33.94  36 24  Z M 8.07 14  C 6.38 14.8  5.21 16.51  5.21 18.5  C 5.21 21.26  7.45 23.5  10.21 23.5  C 11.26 23.5  12.24 23.17  13.04 22.62  L 13 23  C 13 25.76  15.24 28  18 28  C 20.76 28  23 25.76  23 23  L 22.96 22.62  C 23.77 23.18  24.74 23.5  25.79 23.5  C 28.55 23.5  30.79 21.26  30.79 18.5  C 30.79 16.51  29.62 14.8  27.93 14  C 29.61 13.2  30.79 11.49  30.79 9.5  C 30.79 6.74  28.55 4.5  25.79 4.5  C 24.74 4.5  23.76 4.83  22.96 5.38  L 23 5  C 23 2.24  20.76 0  18 0  C 15.24 0  13 2.24  13 5  L 13.04 5.38  C 12.23 4.82  11.26 4.5  10.21 4.5  C 7.45 4.5  5.21 6.74  5.21 9.5  C 5.21 11.49  6.38 13.2  8.07 14  Z M 13 14  C 13 11.24  15.24 9  18 9  C 20.76 9  23 11.24  23 14  C 23 16.76  20.76 19  18 19  C 15.24 19  13 16.76  13 14  Z M 18 42  C 18 32.06  9.94 24  0 24  C 0 33.94  8.06 42  18 42  Z " fill-rule="nonzero" fill="#7f7f7f" stroke="none" transform="matrix(1 0 0 1 3942 2363 )" />
  </g>
</svg>