<?xml version="1.0" encoding="utf-8"?>
<svg version="1.1" xmlns:xlink="http://www.w3.org/1999/xlink" width="39px" height="37px" xmlns="http://www.w3.org/2000/svg">
  <g transform="matrix(1 0 0 1 -3941 -1546 )">
    <path d="M 2.83 12.31  L 11.2 20.69  L 16.86 15.03  L 2.83 1  C -0.29 4.12  -0.29 9.19  2.83 12.31  Z M 21.83 20  L 24.77 17.06  C 27.82 18.49  32.13 17.48  35.31 14.3  C 39.14 10.47  39.87 5  36.94 2.07  C 34 -0.86  28.52 -0.13  24.7 3.7  C 21.52 6.88  20.52 11.19  21.94 14.24  C 17.49 18.68  2.41 33.76  2.41 33.76  L 5.24 36.59  L 19 22.83  L 32.76 36.59  L 35.59 33.76  L 21.83 20  Z " fill-rule="nonzero" fill="#7f7f7f" stroke="none" transform="matrix(1 0 0 1 3941 1546 )" />
  </g>
</svg>