<?xml version="1.0" encoding="utf-8"?>
<svg version="1.1" xmlns:xlink="http://www.w3.org/1999/xlink" width="50px" height="50px" xmlns="http://www.w3.org/2000/svg">
  <g transform="matrix(1 0 0 1 -3935 -2462 )">
    <path d="M 48.9312536106297 40.5834777585211  C 49.6437512035432 41.3344887348354  50 42.210668207202  50 43.212016175621  C 50 44.2326208357404  49.6437512035432 45.0991719622569  48.9312536106297 45.8116695551704  L 45.840554592721 48.9312536106297  C 45.0895436164067 49.6437512035432  44.2133641440401 50  43.212016175621 50  C 42.1914115155016 50  41.3248603889852 49.6437512035432  40.6123627960716 48.9312536106297  L 30.1270941652224 38.4170999422299  C 29.3953398806085 37.7238590410168  29.0294627383016 36.8573079145003  29.0294627383016 35.8174465626805  C 29.0294627383016 34.7968419025611  29.4434816098594 33.8725207009436  30.2715193529752 33.0444829578278  L 22.8769497400347 25.6499133448873  L 19.2374350086655 29.2894280762565  C 18.9678413248604 29.5590217600616  18.6404775659542 29.6938186019642  18.2553437319469 29.6938186019642  C 17.8702098979395 29.6938186019642  17.5428461390333 29.5590217600616  17.2732524552282 29.2894280762565  C 17.3117658386289 29.3279414596572  17.4321201617562 29.4434816098594  17.6343154246101 29.6360485268631  C 17.8365106874639 29.8286154438667  17.9568650105912 29.9537839399191  17.9953783939919 30.0115540150202  C 18.0338917773926 30.0693240901213  18.1301752358945 30.1800500673984  18.2842287694974 30.3437319468515  C 18.4382823031003 30.5074138263046  18.5345657616022 30.6373964952821  18.5730791450029 30.7336799537839  C 18.6115925284036 30.8299634122858  18.6693626035047 30.9599460812632  18.7463893703062 31.1236279607163  C 18.8234161371076 31.2873098401695  18.8763720392837 31.4461775466975  18.9052570768342 31.6002310803004  C 18.9341421143847 31.7542846139033  18.94858463316 31.9275948392066  18.94858463316 32.1201617562103  C 18.94858463316 32.8519160408242  18.6789909493549 33.5066435586366  18.1398035817447 34.0843443096476  C 18.0820335066436 34.1421143847487  17.9231658001155 34.315424610052  17.6632004621606 34.6042749855575  C 17.4032351242057 34.893125361063  17.2202965530522 35.0905064509917  17.1143847487002 35.1964182553437  C 17.0084729443482 35.3023300596957  16.8303485461198 35.4611977662238  16.580011554015 35.6730213749278  C 16.3296745619103 35.8848449836318  16.1178509532062 36.0340843443096  15.9445407279029 36.1207394569613  C 15.7712305025997 36.2073945696129  15.5594068938956 36.2940496822646  15.3090699017909 36.3807047949162  C 15.0587329096861 36.4673599075679  14.8083959175814 36.5106874638937  14.5580589254766 36.5106874638937  C 13.787791257462 36.5106874638937  13.1330637396495 36.2410937800886  12.5938763720393 35.7019064124783  L 0.808781051415367 23.9168110918544  C 0.269593683805122 23.3776237242442  0 22.7228962064317  0 21.9526285384171  C 0 21.7022915463123  0.0433275563258232 21.4519545542076  0.12998266897747 21.2016175621028  C 0.216637781629116 20.9512805699981  0.303292894280763 20.739456961294  0.389948006932409 20.5661467359908  C 0.476603119584055 20.3928365106875  0.625842480261891 20.1810129019834  0.837666088965916 19.9306759098787  C 1.04948969766994 19.6803389177739  1.20835740419796 19.5022145195455  1.31426920854997 19.3963027151935  C 1.42018101290198 19.2903909108415  1.61756210283073 19.107452339688  1.90641247833622 18.8474870017331  C 2.19526285384171 18.5875216637782  2.368573079145 18.4286539572501  2.4263431542461 18.370883882149  C 3.00404390525708 17.8316965145388  3.65877142306952 17.5621028307337  4.39052570768342 17.5621028307337  C 4.58309262468708 17.5621028307337  4.75640284999037 17.576545349509  4.9104563835933 17.6054303870595  C 5.06450991719623 17.6343154246101  5.22337762372424 17.6872713267861  5.38705950317735 17.7642980935875  C 5.55074138263046 17.841324860389  5.68072405160793 17.8990949354901  5.77700751010976 17.9376083188908  C 5.87329096861159 17.9761217022915  6.00327363758906 18.0724051607934  6.16695551704217 18.2264586943963  C 6.33063739649528 18.3805122279992  6.44136337377239 18.4767956865011  6.49913344887348 18.5153090699018  C 6.55690352397458 18.5538224533025  6.68207202002696 18.6741767764298  6.87463893703062 18.8763720392837  C 7.06720585403428 19.0785673021375  7.18274600423647 19.1989216252648  7.2212593876372 19.2374350086655  C 6.95166570383208 18.9678413248604  6.81686886192952 18.6404775659542  6.81686886192952 18.2553437319468  C 6.81686886192952 17.8702098979395  6.95166570383208 17.5428461390333  7.2212593876372 17.2732524552282  L 17.2732524552282 7.2212593876372  C 17.5428461390333 6.95166570383208  17.8702098979395 6.81686886192952  18.2553437319469 6.81686886192952  C 18.6404775659542 6.81686886192952  18.9678413248604 6.95166570383208  19.2374350086655 7.2212593876372  C 19.1989216252648 7.18274600423647  19.0785673021375 7.06720585403428  18.8763720392837 6.87463893703062  C 18.6741767764298 6.68207202002696  18.5538224533025 6.55690352397458  18.5153090699018 6.49913344887348  C 18.4767956865011 6.44136337377239  18.3805122279992 6.33063739649528  18.2264586943963 6.16695551704217  C 18.0724051607934 6.00327363758906  17.9761217022915 5.87329096861159  17.9376083188908 5.77700751010976  C 17.8990949354901 5.68072405160793  17.841324860389 5.55074138263046  17.7642980935875 5.38705950317735  C 17.6872713267861 5.22337762372424  17.6343154246101 5.06450991719622  17.6054303870595 4.9104563835933  C 17.576545349509 4.75640284999037  17.5621028307337 4.58309262468707  17.5621028307337 4.39052570768342  C 17.5621028307337 3.65877142306951  17.8316965145388 3.00404390525708  18.370883882149 2.4263431542461  C 18.4286539572501 2.368573079145  18.5875216637782 2.19526285384171  18.8474870017331 1.90641247833622  C 19.107452339688 1.61756210283073  19.2903909108415 1.42018101290198  19.3963027151935 1.31426920854997  C 19.5022145195455 1.20835740419796  19.6803389177739 1.04948969766994  19.9306759098787 0.837666088965916  C 20.1810129019834 0.625842480261884  20.3928365106875 0.476603119584057  20.5661467359908 0.389948006932411  C 20.739456961294 0.30329289428076  20.9512805699981 0.216637781629114  21.2016175621028 0.129982668977469  C 21.4519545542076 0.0433275563258229  21.7022915463123 0  21.9526285384171 0  C 22.7228962064317 0  23.3776237242442 0.269593683805119  23.9168110918544 0.808781051415369  L 35.7019064124783 12.5938763720393  C 36.2410937800886 13.1330637396495  36.5106874638937 13.787791257462  36.5106874638937 14.5580589254766  C 36.5106874638937 14.8083959175814  36.4673599075679 15.0587329096861  36.3807047949162 15.3090699017909  C 36.2940496822646 15.5594068938956  36.2073945696129 15.7712305025997  36.1207394569613 15.9445407279029  C 36.0340843443096 16.1178509532062  35.8848449836318 16.3296745619103  35.6730213749278 16.580011554015  C 35.4611977662238 16.8303485461198  35.3023300596957 17.0084729443482  35.1964182553437 17.1143847487002  C 35.0905064509917 17.2202965530522  34.893125361063 17.4032351242057  34.6042749855575 17.6632004621606  C 34.315424610052 17.9231658001155  34.1421143847487 18.0820335066436  34.0843443096476 18.1398035817447  C 33.5066435586366 18.6789909493549  32.8519160408242 18.94858463316  32.1201617562103 18.94858463316  C 31.9275948392066 18.94858463316  31.7542846139033 18.9341421143847  31.6002310803004 18.9052570768342  C 31.4461775466975 18.8763720392837  31.2873098401695 18.8234161371076  31.1236279607163 18.7463893703062  C 30.9599460812632 18.6693626035047  30.8299634122858 18.6115925284036  30.7336799537839 18.5730791450029  C 30.6373964952821 18.5345657616022  30.5074138263046 18.4382823031003  30.3437319468515 18.2842287694974  C 30.1800500673984 18.1301752358945  30.0693240901213 18.0338917773926  30.0115540150202 17.9953783939919  C 29.9537839399191 17.9568650105912  29.8286154438667 17.8365106874639  29.6360485268631 17.6343154246101  C 29.4434816098594 17.4321201617562  29.3279414596572 17.3117658386289  29.2894280762565 17.2732524552282  C 29.5590217600616 17.5428461390333  29.6938186019642 17.8702098979395  29.6938186019642 18.2553437319468  C 29.6938186019642 18.6404775659542  29.5590217600616 18.9678413248604  29.2894280762565 19.2374350086655  L 25.6499133448873 22.8769497400347  L 33.0444829578278 30.2715193529752  C 33.8725207009436 29.4434816098594  34.7968419025611 29.0294627383016  35.8174465626805 29.0294627383016  C 36.8187945310996 29.0294627383016  37.6949740034662 29.3857115347583  38.4459849797805 30.0982091276719  L 48.9312536106297 40.5834777585211  Z " fill-rule="nonzero" fill="#7f7f7f" stroke="none" transform="matrix(1 0 0 1 3935 2462 )" />
  </g>
</svg>