<?xml version="1.0" encoding="utf-8"?>
<svg version="1.1" xmlns:xlink="http://www.w3.org/1999/xlink" width="40px" height="40px" xmlns="http://www.w3.org/2000/svg">
  <defs>
    <filter x="4043px" y="1222px" width="40px" height="40px" filterUnits="userSpaceOnUse" id="filter8">
      <feOffset dx="1" dy="1" in="SourceAlpha" result="shadowOffsetInner" />
      <feGaussianBlur stdDeviation="2.5" in="shadowOffsetInner" result="shadowGaussian" />
      <feComposite in2="shadowGaussian" operator="atop" in="SourceAlpha" result="shadowComposite" />
      <feColorMatrix type="matrix" values="0 0 0 0 0  0 0 0 0 0  0 0 0 0 0  0 0 0 0.698039215686274 0  " in="shadowComposite" />
    </filter>
    <g id="widget9">
      <path d="M 4062 1226  C 4070.4 1226  4077 1232.6  4077 1241  C 4077 1249.4  4070.4 1256  4062 1256  C 4053.6 1256  4047 1249.4  4047 1241  C 4047 1232.6  4053.6 1226  4062 1226  Z " fill-rule="nonzero" fill="#ffff00" stroke="none" />
      <path d="M 4062 1226.5  C 4070.12 1226.5  4076.5 1232.88  4076.5 1241  C 4076.5 1249.12  4070.12 1255.5  4062 1255.5  C 4053.88 1255.5  4047.5 1249.12  4047.5 1241  C 4047.5 1232.88  4053.88 1226.5  4062 1226.5  Z " stroke-width="1" stroke="#ffffff" fill="none" />
    </g>
  </defs>
  <g transform="matrix(1 0 0 1 -4043 -1222 )">
    <use xlink:href="#widget9" filter="url(#filter8)" />
    <use xlink:href="#widget9" />
  </g>
</svg>