<?xml version="1.0" encoding="utf-8"?>
<svg version="1.1" xmlns:xlink="http://www.w3.org/1999/xlink" width="31px" height="28px" xmlns="http://www.w3.org/2000/svg">
  <g transform="matrix(1 0 0 1 -3941 -713 )">
    <path d="M 12.2143229166667 12.7295673076923  C 13.1238715277778 11.7816506410256  14.2190972222222 11.3076923076923  15.5 11.3076923076923  C 16.7809027777778 11.3076923076923  17.8761284722222 11.7816506410256  18.7856770833333 12.7295673076923  C 19.6952256944444 13.677483974359  20.15 14.8189102564103  20.15 16.1538461538462  C 20.15 17.4887820512821  19.6952256944444 18.6302083333333  18.7856770833333 19.578125  C 17.8761284722222 20.5260416666667  16.7809027777778 21  15.5 21  C 14.2190972222222 21  13.1238715277778 20.5260416666667  12.2143229166667 19.578125  C 11.3047743055556 18.6302083333333  10.85 17.4887820512821  10.85 16.1538461538462  C 10.85 14.8189102564103  11.3047743055556 13.677483974359  12.2143229166667 12.7295673076923  Z M 23.25 4.30769230769231  L 26.8666666666667 4.30769230769231  C 28.0076388888889 4.30769230769231  28.9817708333333 4.72836538461538  29.7890625 5.56971153846154  C 30.5963541666667 6.41105769230769  31 7.42628205128205  31 8.61538461538462  L 31 23.6923076923077  C 31 24.8814102564103  30.5963541666667 25.8966346153846  29.7890625 26.7379807692308  C 28.9817708333333 27.5793269230769  28.0076388888889 28  26.8666666666667 28  L 4.13333333333333 28  C 2.99236111111111 28  2.01822916666667 27.5793269230769  1.2109375 26.7379807692308  C 0.403645833333333 25.8966346153846  0 24.8814102564103  0 23.6923076923077  L 0 8.61538461538462  C 0 7.42628205128205  0.403645833333333 6.41105769230769  1.2109375 5.56971153846154  C 2.01822916666667 4.72836538461538  2.99236111111111 4.30769230769231  4.13333333333333 4.30769230769231  L 7.75 4.30769230769231  L 8.5734375 2.01923076923077  C 8.77795138888889 1.46955128205128  9.15199652777778 0.995592948717947  9.69557291666667 0.597355769230768  C 10.2391493055556 0.199118589743593  10.7961805555556 0  11.3666666666667 0  L 19.6333333333333 0  C 20.2038194444444 0  20.7608506944444 0.199118589743593  21.3044270833333 0.597355769230768  C 21.8480034722222 0.995592948717947  22.2220486111111 1.46955128205128  22.4265625 2.01923076923077  L 23.25 4.30769230769231  Z M 10.38984375 21.4795673076923  C 11.8052951388889 22.9547275641026  13.5086805555556 23.6923076923077  15.5 23.6923076923077  C 17.4913194444444 23.6923076923077  19.1947048611111 22.9547275641026  20.61015625 21.4795673076923  C 22.0256076388889 20.0044070512821  22.7333333333333 18.2291666666667  22.7333333333333 16.1538461538462  C 22.7333333333333 14.0785256410256  22.0256076388889 12.3032852564103  20.61015625 10.828125  C 19.1947048611111 9.35296474358974  17.4913194444444 8.61538461538462  15.5 8.61538461538462  C 13.5086805555556 8.61538461538462  11.8052951388889 9.35296474358974  10.38984375 10.828125  C 8.97439236111111 12.3032852564103  8.26666666666667 14.0785256410256  8.26666666666667 16.1538461538462  C 8.26666666666667 18.2291666666667  8.97439236111111 20.0044070512821  10.38984375 21.4795673076923  Z " fill-rule="nonzero" fill="#000000" stroke="none" transform="matrix(1 0 0 1 3941 713 )" />
  </g>
</svg>