<?xml version="1.0" encoding="utf-8"?>
<svg version="1.1" xmlns:xlink="http://www.w3.org/1999/xlink" width="40px" height="40px" xmlns="http://www.w3.org/2000/svg">
  <defs>
    <filter x="3939px" y="466px" width="40px" height="40px" filterUnits="userSpaceOnUse" id="filter10">
      <feOffset dx="1" dy="1" in="SourceAlpha" result="shadowOffsetInner" />
      <feGaussianBlur stdDeviation="2.5" in="shadowOffsetInner" result="shadowGaussian" />
      <feComposite in2="shadowGaussian" operator="atop" in="SourceAlpha" result="shadowComposite" />
      <feColorMatrix type="matrix" values="0 0 0 0 0  0 0 0 0 0  0 0 0 0 0  0 0 0 0.698039215686274 0  " in="shadowComposite" />
    </filter>
    <g id="widget11">
      <path d="M 3958 470  C 3966.4 470  3973 476.6  3973 485  C 3973 493.4  3966.4 500  3958 500  C 3949.6 500  3943 493.4  3943 485  C 3943 476.6  3949.6 470  3958 470  Z " fill-rule="nonzero" fill="#7f7f7f" stroke="none" />
      <path d="M 3958 470.5  C 3966.12 470.5  3972.5 476.88  3972.5 485  C 3972.5 493.12  3966.12 499.5  3958 499.5  C 3949.88 499.5  3943.5 493.12  3943.5 485  C 3943.5 476.88  3949.88 470.5  3958 470.5  Z " stroke-width="1" stroke="#ffffff" fill="none" />
    </g>
  </defs>
  <g transform="matrix(1 0 0 1 -3939 -466 )">
    <use xlink:href="#widget11" filter="url(#filter10)" />
    <use xlink:href="#widget11" />
  </g>
</svg>