<?xml version="1.0" encoding="utf-8"?>
<svg version="1.1" xmlns:xlink="http://www.w3.org/1999/xlink" width="28px" height="19px" xmlns="http://www.w3.org/2000/svg">
  <g transform="matrix(1 0 0 1 -4824 -391 )">
    <path d="M 6.97265625 1.27408854166667  C 9.11762152777778 0.424696180555554  11.4600694444444 0  14 0  C 16.5399305555556 0  18.8823784722222 0.424696180555554  21.02734375 1.27408854166667  C 23.1723090277778 2.12348090277778  24.8706597222222 3.27593315972222  26.1223958333333 4.7314453125  C 27.3741319444444 6.18695746527778  28 7.77647569444444  28 9.5  C 28 11.2235243055556  27.3741319444444 12.8130425347222  26.1223958333333 14.2685546875  C 24.8706597222222 15.7240668402778  23.1723090277778 16.8765190972222  21.02734375 17.7259114583333  C 18.8823784722222 18.5753038194444  16.5399305555556 19  14 19  C 11.4600694444444 19  9.11762152777778 18.5753038194444  6.97265625 17.7259114583333  C 4.82769097222222 16.8765190972222  3.12934027777778 15.7240668402778  1.87760416666667 14.2685546875  C 0.625868055555555 12.8130425347222  0 11.2235243055556  0 9.5  C 0 7.77647569444444  0.625868055555555 6.18695746527778  1.87760416666667 4.7314453125  C 3.12934027777778 3.27593315972222  4.82769097222222 2.12348090277778  6.97265625 1.27408854166667  Z M 16.1692708333333 15.7158203125  C 16.2786458333333 15.6374782986111  16.3333333333333 15.5405815972222  16.3333333333333 15.4251302083333  L 16.3333333333333 13.0748697916667  C 16.3333333333333 12.9594184027778  16.2786458333333 12.8625217013889  16.1692708333333 12.7841796875  C 16.0598958333333 12.7058376736111  15.9262152777778 12.6666666666667  15.7682291666667 12.6666666666667  L 12.2682291666667 12.6666666666667  C 12.1102430555556 12.6666666666667  11.9704861111111 12.7078993055556  11.8489583333333 12.7903645833333  C 11.7274305555556 12.8728298611111  11.6666666666667 12.9676649305556  11.6666666666667 13.0748697916667  L 11.6666666666667 15.4251302083333  C 11.6666666666667 15.5323350694444  11.7274305555556 15.6271701388889  11.8489583333333 15.7096354166667  C 11.9704861111111 15.7921006944444  12.1102430555556 15.8333333333333  12.2682291666667 15.8333333333333  L 15.7682291666667 15.8333333333333  C 15.9262152777778 15.8333333333333  16.0598958333333 15.7941623263889  16.1692708333333 15.7158203125  Z M 16.10546875 11.3863932291667  C 16.2209201388889 11.3245442708333  16.2847222222222 11.2523871527778  16.296875 11.169921875  L 16.625 3.48828125  C 16.625 3.38932291666667  16.5642361111111 3.31510416666667  16.4427083333333 3.265625  C 16.3211805555556 3.19965277777778  16.1753472222222 3.16666666666667  16.0052083333333 3.16666666666667  L 11.9947916666667 3.16666666666667  C 11.8246527777778 3.16666666666667  11.6788194444444 3.19965277777778  11.5572916666667 3.265625  C 11.4357638888889 3.31510416666667  11.375 3.38932291666667  11.375 3.48828125  L 11.6848958333333 11.169921875  C 11.6848958333333 11.2523871527778  11.7456597222222 11.3245442708333  11.8671875 11.3863932291667  C 11.9887152777778 11.4482421875  12.1345486111111 11.4791666666667  12.3046875 11.4791666666667  L 15.6770833333333 11.4791666666667  C 15.8472222222222 11.4791666666667  15.9900173611111 11.4482421875  16.10546875 11.3863932291667  Z " fill-rule="nonzero" fill="#7f7f7f" stroke="none" transform="matrix(1 0 0 1 4824 391 )" />
  </g>
</svg>