<?xml version="1.0" encoding="utf-8"?>
<svg version="1.1" xmlns:xlink="http://www.w3.org/1999/xlink" width="41px" height="39px" xmlns="http://www.w3.org/2000/svg">
  <g transform="matrix(1 0 0 1 -975 -1467 )">
    <path d="M 0 15.6  L 0 39  L 8 39  L 8 15.6  L 0 15.6  Z M 40.9813636363636 17.69625  L 41 17.55  C 41 15.39525  39.3320454545455 13.65  37.2727272727273 14  L 25.5038636363636 14  L 27.2836363636364 4.7385  C 27.3209090909091 4.5435  27.3488636363636 4.33875  27.3488636363636 4.12425  C 27.3488636363636 3.315  27.0320454545455 2.58375  26.5288636363636 2.05725  L 24.5440909090909 0  L 12.2720454545455 12.84075  C 11.6011363636364 13.5525  11.1818181818182 14.5275  12 15.6  L 12 35.1  C 11.1818181818182 37.25475  12.8497727272727 39  14.9090909090909 39  L 31.6818181818182 39  C 33.2286363636364 39  34.5518181818182 38.01525  35.1109090909091 36.621  L 40.7297727272727 22.8735  C 40.8975 22.425  41 21.94725  41 21.45  L 41 17.71575  L 40.9813636363636 17.69625  Z " fill-rule="nonzero" fill="#aaaaaa" stroke="none" transform="matrix(1 0 0 1 975 1467 )" />
  </g>
</svg>