<?xml version="1.0" encoding="utf-8"?>
<svg version="1.1" xmlns:xlink="http://www.w3.org/1999/xlink" width="73px" height="73px" xmlns="http://www.w3.org/2000/svg">
  <g transform="matrix(1 0 0 1 -156 -348 )">
    <path d="M 68.1048177083333 18.1787109375  C 71.3682725694444 23.7709418402778  73 29.8780381944444  73 36.5  C 73 43.1219618055556  71.3682725694444 49.2290581597222  68.1048177083333 54.8212890625  C 64.8413628472222 60.4135199652778  60.4135199652778 64.8413628472222  54.8212890625 68.1048177083333  C 49.2290581597222 71.3682725694445  43.1219618055556 73  36.5 73  C 29.8780381944444 73  23.7709418402778 71.3682725694445  18.1787109375 68.1048177083333  C 12.5864800347222 64.8413628472222  8.15863715277778 60.4135199652778  4.89518229166667 54.8212890625  C 1.63172743055556 49.2290581597222  0 43.1219618055556  0 36.5  C 0 29.8780381944444  1.63172743055556 23.7709418402778  4.89518229166667 18.1787109375  C 8.15863715277778 12.5864800347222  12.5864800347222 8.15863715277777  18.1787109375 4.89518229166666  C 23.7709418402778 1.63172743055555  29.8780381944444 0  36.5 0  C 43.1219618055556 0  49.2290581597222 1.63172743055555  54.8212890625 4.89518229166666  C 60.4135199652778 8.15863715277777  64.8413628472222 12.5864800347222  68.1048177083333 18.1787109375  Z " fill-rule="nonzero" fill="#f59a23" stroke="none" transform="matrix(1 0 0 1 156 348 )" />
  </g>
</svg>