<?xml version="1.0" encoding="utf-8"?>
<svg version="1.1" xmlns:xlink="http://www.w3.org/1999/xlink" width="41px" height="41px" xmlns="http://www.w3.org/2000/svg">
  <g transform="matrix(1 0 0 1 -336 -1450 )">
    <path d="M 41 4.1  C 41 1.83475  39.16525 0  36.9 0  L 4.1 0  C 1.83475 0  0.0204999999999996 1.83475  0 4.1  L 0 41  L 8.2 32  L 36.9 32  C 39.16525 32.8  41 30.96525  41 28.7  L 41 4.1  Z M 14.35 14.35  L 14.35 18.45  L 10.25 18.45  L 10.25 14.35  L 14.35 14.35  Z M 22.55 14.35  L 22.55 18.45  L 18.45 18.45  L 18.45 14.35  L 22.55 14.35  Z M 30.75 14.35  L 30.75 18.45  L 26.65 18.45  L 26.65 14.35  L 30.75 14.35  Z " fill-rule="nonzero" fill="#000000" stroke="none" transform="matrix(1 0 0 1 336 1450 )" />
  </g>
</svg>