<?xml version="1.0" encoding="utf-8"?>
<svg version="1.1" xmlns:xlink="http://www.w3.org/1999/xlink" width="555px" height="555px" xmlns="http://www.w3.org/2000/svg">
  <g transform="matrix(1 0 0 1 -427 -973 )">
    <path d="M 704.5 973  C 859.9 973  982 1095.1  982 1250.5  C 982 1405.9  859.9 1528  704.5 1528  C 549.1 1528  427 1405.9  427 1250.5  C 427 1095.1  549.1 973  704.5 973  Z " fill-rule="nonzero" fill="#ffffff" stroke="none" />
    <path d="M 704.5 973.5  C 859.62 973.5  981.5 1095.38  981.5 1250.5  C 981.5 1405.62  859.62 1527.5  704.5 1527.5  C 549.38 1527.5  427.5 1405.62  427.5 1250.5  C 427.5 1095.38  549.38 973.5  704.5 973.5  Z " stroke-width="1" stroke="#797979" fill="none" />
  </g>
</svg>