<?xml version="1.0" encoding="utf-8"?>
<svg version="1.1" xmlns:xlink="http://www.w3.org/1999/xlink" width="39px" height="39px" xmlns="http://www.w3.org/2000/svg">
  <defs>
    <mask fill="white" id="clip1">
      <path d="M 0 19.5  C 0 11.1029747631328  5.07332784611754 4.08958439338858  12.3827632946795 1.29704913443993  C 14.5791208674359 0.457971796343827  16.9771097342165 0  19.5 0  C 30.42 0  39 8.57999999999993  39 19.5  C 39 30.4200000000001  30.42 39  19.5 39  C 8.58000000000004 39  0 30.4200000000001  0 19.5  Z " fill-rule="evenodd" />
    </mask>
  </defs>
  <g transform="matrix(1 0 0 1 -792 -2317 )">
    <path d="M 0 19.5  C 0 11.1029747631328  5.07332784611754 4.08958439338858  12.3827632946795 1.29704913443993  C 14.5791208674359 0.457971796343827  16.9771097342165 0  19.5 0  C 30.42 0  39 8.57999999999993  39 19.5  C 39 30.4200000000001  30.42 39  19.5 39  C 8.58000000000004 39  0 30.4200000000001  0 19.5  Z " fill-rule="nonzero" fill="#ffff00" stroke="none" transform="matrix(1 0 0 1 792 2317 )" />
    <path d="M 0 19.5  C 0 11.1029747631328  5.07332784611754 4.08958439338858  12.3827632946795 1.29704913443993  C 14.5791208674359 0.457971796343827  16.9771097342165 0  19.5 0  C 30.42 0  39 8.57999999999993  39 19.5  C 39 30.4200000000001  30.42 39  19.5 39  C 8.58000000000004 39  0 30.4200000000001  0 19.5  Z " stroke-width="2" stroke="#797979" fill="none" transform="matrix(1 0 0 1 792 2317 )" mask="url(#clip1)" />
  </g>
</svg>