<?xml version="1.0" encoding="utf-8"?>
<svg version="1.1" xmlns:xlink="http://www.w3.org/1999/xlink" width="39px" height="39px" xmlns="http://www.w3.org/2000/svg">
  <g transform="matrix(1 0 0 1 -369 -1285 )">
    <path d="M 388.5 1289.60710678119  C 384.6 1285.5  380.7 1285.5  378.75 1285.5  C 375.05 1285.5  369.5 1289.2275862069  369.5 1296.31  C 369.5 1311.94755719701  388.5 1323.38967221921  388.5 1323.38967221921  C 388.5 1323.38967221921  407.5 1311.94755719701  407.5 1296.31  C 407.5 1289.2275862069  401.95 1285.5  398.25 1285.5  C 396.3 1285.5  392.4 1285.5  388.5 1289.60710678119  Z " fill-rule="nonzero" fill="#ffffff" stroke="none" />
    <path d="M 388.5 1288.9  C 384.6 1285  380.7 1285  378.75 1285  C 374.85 1285  369 1288.9  369 1296.31  C 369 1312.3  388.5 1324  388.5 1324  C 388.5 1324  408 1312.3  408 1296.31  C 408 1288.9  402.15 1285  398.25 1285  C 396.3 1285  392.4 1285  388.5 1288.9  Z M 388.5 1290.31421356237  C 392.4 1286  396.3 1286  398.25 1286  C 401.75 1286  407 1289.55517241379  407 1296.31  C 407 1311.59511439402  388.5 1322.77934443843  388.5 1322.77934443843  C 388.5 1322.77934443843  370 1311.59511439402  370 1296.31  C 370 1289.55517241379  375.25 1286  378.75 1286  C 380.7 1286  384.6 1286  388.5 1290.31421356237  Z " fill-rule="nonzero" fill="#797979" stroke="none" />
  </g>
</svg>