<?xml version="1.0" encoding="utf-8"?>
<svg version="1.1" xmlns:xlink="http://www.w3.org/1999/xlink" width="170px" height="170px" xmlns="http://www.w3.org/2000/svg">
  <g transform="matrix(1 0 0 1 -559 -2115 )">
    <path d="M 644 2115  C 691.6 2115  729 2152.4  729 2200  C 729 2247.6  691.6 2285  644 2285  C 596.4 2285  559 2247.6  559 2200  C 559 2152.4  596.4 2115  644 2115  Z " fill-rule="nonzero" fill="#ffffff" stroke="none" />
    <path d="M 644 2115.5  C 691.32 2115.5  728.5 2152.68  728.5 2200  C 728.5 2247.32  691.32 2284.5  644 2284.5  C 596.68 2284.5  559.5 2247.32  559.5 2200  C 559.5 2152.68  596.68 2115.5  644 2115.5  Z " stroke-width="1" stroke="#797979" fill="none" />
  </g>
</svg>