<?xml version="1.0" encoding="utf-8"?>
<svg version="1.1" xmlns:xlink="http://www.w3.org/1999/xlink" width="33px" height="17px" xmlns="http://www.w3.org/2000/svg">
  <g transform="matrix(1 0 0 1 -2631 -391 )">
    <path d="M 32.6693386773547 1.75257731958763  C 32.8897795591182 1.94730813287514  33 2.17124856815578  33 2.42439862542955  C 33 2.67754868270332  32.8897795591182 2.90148911798396  32.6693386773547 3.09621993127148  L 17.2605210420842 16.7079037800687  C 17.0400801603206 16.9026345933562  16.7865731462926 17  16.5 17  C 16.2134268537074 17  15.9599198396794 16.9026345933562  15.7394789579158 16.7079037800687  L 0.330661322645291 3.09621993127148  C 0.110220440881764 2.90148911798396  0 2.67754868270332  0 2.42439862542955  C 0 2.17124856815578  0.110220440881764 1.94730813287514  0.330661322645291 1.75257731958763  L 1.98396793587174 0.292096219931272  C 2.20440881763527 0.0973654066437549  2.45791583166333 0  2.74448897795591 0  C 3.0310621242485 0  3.28456913827655 0.0973654066437549  3.50501002004008 0.292096219931272  L 16.5 11.7714776632302  L 29.4949899799599 0.292096219931272  C 29.7154308617234 0.0973654066437549  29.9689378757515 0  30.2555110220441 0  C 30.5420841683367 0  30.7955911823647 0.0973654066437549  31.0160320641283 0.292096219931272  L 32.6693386773547 1.75257731958763  Z " fill-rule="nonzero" fill="#aaaaaa" stroke="none" transform="matrix(1 0 0 1 2631 391 )" />
  </g>
</svg>