<?xml version="1.0" encoding="utf-8"?>
<svg version="1.1" xmlns:xlink="http://www.w3.org/1999/xlink" width="46px" height="50px" xmlns="http://www.w3.org/2000/svg">
  <g transform="matrix(1 0 0 1 -1269 -2175 )">
    <path d="M 9.57872596153846 45.3822544642857  C 10.2698317307692 44.6847098214286  10.6153846153846 43.8430059523809  10.6153846153846 42.8571428571429  C 10.6153846153846 41.8712797619048  10.2698317307692 41.0295758928571  9.57872596153846 40.33203125  C 8.88762019230769 39.6344866071429  8.0536858974359 39.2857142857143  7.07692307692308 39.2857142857143  C 6.10016025641026 39.2857142857143  5.26622596153846 39.6344866071429  4.57512019230769 40.33203125  C 3.88401442307692 41.0295758928571  3.53846153846154 41.8712797619048  3.53846153846154 42.8571428571429  C 3.53846153846154 43.8430059523809  3.88401442307692 44.6847098214286  4.57512019230769 45.3822544642857  C 5.26622596153846 46.0797991071429  6.10016025641026 46.4285714285714  7.07692307692308 46.4285714285714  C 8.0536858974359 46.4285714285714  8.88762019230769 46.0797991071429  9.57872596153846 45.3822544642857  Z M 20.1941105769231 45.3822544642857  C 20.8852163461538 44.6847098214286  21.2307692307692 43.8430059523809  21.2307692307692 42.8571428571429  C 21.2307692307692 41.8712797619048  20.8852163461538 41.0295758928571  20.1941105769231 40.33203125  C 19.5030048076923 39.6344866071429  18.6690705128205 39.2857142857143  17.6923076923077 39.2857142857143  C 16.7155448717949 39.2857142857143  15.8816105769231 39.6344866071429  15.1905048076923 40.33203125  C 14.4993990384615 41.0295758928571  14.1538461538462 41.8712797619048  14.1538461538462 42.8571428571429  C 14.1538461538462 43.8430059523809  14.4993990384615 44.6847098214286  15.1905048076923 45.3822544642857  C 15.8816105769231 46.0797991071429  16.7155448717949 46.4285714285714  17.6923076923077 46.4285714285714  C 18.6690705128205 46.4285714285714  19.5030048076923 46.0797991071429  20.1941105769231 45.3822544642857  Z M 9.57872596153846 34.66796875  C 10.2698317307692 33.9704241071429  10.6153846153846 33.1287202380952  10.6153846153846 32.1428571428571  C 10.6153846153846 31.156994047619  10.2698317307692 30.3152901785714  9.57872596153846 29.6177455357143  C 8.88762019230769 28.9202008928571  8.0536858974359 28.5714285714286  7.07692307692308 28.5714285714286  C 6.10016025641026 28.5714285714286  5.26622596153846 28.9202008928571  4.57512019230769 29.6177455357143  C 3.88401442307692 30.3152901785714  3.53846153846154 31.156994047619  3.53846153846154 32.1428571428571  C 3.53846153846154 33.1287202380952  3.88401442307692 33.9704241071429  4.57512019230769 34.66796875  C 5.26622596153846 35.3655133928571  6.10016025641026 35.7142857142857  7.07692307692308 35.7142857142857  C 8.0536858974359 35.7142857142857  8.88762019230769 35.3655133928571  9.57872596153846 34.66796875  Z M 30.8094951923077 45.3822544642857  C 31.5006009615385 44.6847098214286  31.8461538461538 43.8430059523809  31.8461538461538 42.8571428571429  C 31.8461538461538 41.8712797619048  31.5006009615385 41.0295758928571  30.8094951923077 40.33203125  C 30.1183894230769 39.6344866071429  29.2844551282051 39.2857142857143  28.3076923076923 39.2857142857143  C 27.3309294871795 39.2857142857143  26.4969951923077 39.6344866071429  25.8058894230769 40.33203125  C 25.1147836538462 41.0295758928571  24.7692307692308 41.8712797619048  24.7692307692308 42.8571428571429  C 24.7692307692308 43.8430059523809  25.1147836538462 44.6847098214286  25.8058894230769 45.3822544642857  C 26.4969951923077 46.0797991071429  27.3309294871795 46.4285714285714  28.3076923076923 46.4285714285714  C 29.2844551282051 46.4285714285714  30.1183894230769 46.0797991071429  30.8094951923077 45.3822544642857  Z M 20.1941105769231 34.66796875  C 20.8852163461538 33.9704241071429  21.2307692307692 33.1287202380952  21.2307692307692 32.1428571428571  C 21.2307692307692 31.156994047619  20.8852163461538 30.3152901785714  20.1941105769231 29.6177455357143  C 19.5030048076923 28.9202008928571  18.6690705128205 28.5714285714286  17.6923076923077 28.5714285714286  C 16.7155448717949 28.5714285714286  15.8816105769231 28.9202008928571  15.1905048076923 29.6177455357143  C 14.4993990384615 30.3152901785714  14.1538461538462 31.156994047619  14.1538461538462 32.1428571428571  C 14.1538461538462 33.1287202380952  14.4993990384615 33.9704241071429  15.1905048076923 34.66796875  C 15.8816105769231 35.3655133928571  16.7155448717949 35.7142857142857  17.6923076923077 35.7142857142857  C 18.6690705128205 35.7142857142857  19.5030048076923 35.3655133928571  20.1941105769231 34.66796875  Z M 9.57872596153846 23.9536830357143  C 10.2698317307692 23.2561383928571  10.6153846153846 22.4144345238095  10.6153846153846 21.4285714285714  C 10.6153846153846 20.4427083333333  10.2698317307692 19.6010044642857  9.57872596153846 18.9034598214286  C 8.88762019230769 18.2059151785714  8.0536858974359 17.8571428571429  7.07692307692308 17.8571428571429  C 6.10016025641026 17.8571428571429  5.26622596153846 18.2059151785714  4.57512019230769 18.9034598214286  C 3.88401442307692 19.6010044642857  3.53846153846154 20.4427083333333  3.53846153846154 21.4285714285714  C 3.53846153846154 22.4144345238095  3.88401442307692 23.2561383928571  4.57512019230769 23.9536830357143  C 5.26622596153846 24.6512276785714  6.10016025641026 25  7.07692307692308 25  C 8.0536858974359 25  8.88762019230769 24.6512276785714  9.57872596153846 23.9536830357143  Z M 30.8094951923077 34.66796875  C 31.5006009615385 33.9704241071429  31.8461538461538 33.1287202380952  31.8461538461538 32.1428571428571  C 31.8461538461538 31.156994047619  31.5006009615385 30.3152901785714  30.8094951923077 29.6177455357143  C 30.1183894230769 28.9202008928571  29.2844551282051 28.5714285714286  28.3076923076923 28.5714285714286  C 27.3309294871795 28.5714285714286  26.4969951923077 28.9202008928571  25.8058894230769 29.6177455357143  C 25.1147836538462 30.3152901785714  24.7692307692308 31.156994047619  24.7692307692308 32.1428571428571  C 24.7692307692308 33.1287202380952  25.1147836538462 33.9704241071429  25.8058894230769 34.66796875  C 26.4969951923077 35.3655133928571  27.3309294871795 35.7142857142857  28.3076923076923 35.7142857142857  C 29.2844551282051 35.7142857142857  30.1183894230769 35.3655133928571  30.8094951923077 34.66796875  Z M 20.1941105769231 23.9536830357143  C 20.8852163461538 23.2561383928571  21.2307692307692 22.4144345238095  21.2307692307692 21.4285714285714  C 21.2307692307692 20.4427083333333  20.8852163461538 19.6010044642857  20.1941105769231 18.9034598214286  C 19.5030048076923 18.2059151785714  18.6690705128205 17.8571428571429  17.6923076923077 17.8571428571429  C 16.7155448717949 17.8571428571429  15.8816105769231 18.2059151785714  15.1905048076923 18.9034598214286  C 14.4993990384615 19.6010044642857  14.1538461538462 20.4427083333333  14.1538461538462 21.4285714285714  C 14.1538461538462 22.4144345238095  14.4993990384615 23.2561383928571  15.1905048076923 23.9536830357143  C 15.8816105769231 24.6512276785714  16.7155448717949 25  17.6923076923077 25  C 18.6690705128205 25  19.5030048076923 24.6512276785714  20.1941105769231 23.9536830357143  Z M 41.4110576923077 45.3683035714286  C 42.1113782051282 44.6614583333333  42.4615384615385 43.8244047619048  42 42.8571428571429  L 42 32.1428571428571  C 42.4615384615385 31.1755952380952  42.1113782051282 30.3385416666667  41.4110576923077 29.6316964285714  C 40.7107371794872 28.9248511904762  39.8814102564103 28.5714285714286  38.9230769230769 28.5714285714286  C 37.9647435897436 28.5714285714286  37.1354166666667 28.9248511904762  36.4350961538462 29.6316964285714  C 35.7347756410256 30.3385416666667  35.3846153846154 31.1755952380952  35 32.1428571428571  L 35 42.8571428571429  C 35.3846153846154 43.8244047619048  35.7347756410256 44.6614583333333  36.4350961538462 45.3683035714286  C 37.1354166666667 46.0751488095238  37.9647435897436 46.4285714285714  38.9230769230769 46.4285714285714  C 39.8814102564103 46.4285714285714  40.7107371794872 46.0751488095238  41.4110576923077 45.3683035714286  Z M 30.8094951923077 23.9536830357143  C 31.5006009615385 23.2561383928571  31.8461538461538 22.4144345238095  31.8461538461538 21.4285714285714  C 31.8461538461538 20.4427083333333  31.5006009615385 19.6010044642857  30.8094951923077 18.9034598214286  C 30.1183894230769 18.2059151785714  29.2844551282051 17.8571428571429  28.3076923076923 17.8571428571429  C 27.3309294871795 17.8571428571429  26.4969951923077 18.2059151785714  25.8058894230769 18.9034598214286  C 25.1147836538462 19.6010044642857  24.7692307692308 20.4427083333333  24.7692307692308 21.4285714285714  C 24.7692307692308 22.4144345238095  25.1147836538462 23.2561383928571  25.8058894230769 23.9536830357143  C 26.4969951923077 24.6512276785714  27.3309294871795 25  28.3076923076923 25  C 29.2844551282051 25  30.1183894230769 24.6512276785714  30.8094951923077 23.9536830357143  Z M 41.9362980769231 13.7555803571429  C 42.2864583333333 13.4021577380952  42.4615384615385 12.9836309523809  42.4615384615385 12.5  L 42.4615384615385 5.35714285714286  C 42.4615384615385 4.8735119047619  42.2864583333333 4.45498511904762  41.9362980769231 4.1015625  C 41.5861378205128 3.74813988095238  41.1714743589744 3.57142857142857  40.6923076923077 4  L 5.30769230769231 4  C 4.82852564102564 3.57142857142857  4.41386217948718 3.74813988095238  4.06370192307692 4.1015625  C 3.71354166666667 4.45498511904762  3.53846153846154 4.8735119047619  3.53846153846154 5.35714285714286  L 3.53846153846154 12.5  C 3.53846153846154 12.9836309523809  3.71354166666667 13.4021577380952  4.06370192307692 13.7555803571429  C 4.41386217948718 14.1090029761905  4.82852564102564 14.2857142857143  5.30769230769231 15  L 40.6923076923077 15  C 41.1714743589744 14.2857142857143  41.5861378205128 14.1090029761905  41.9362980769231 13.7555803571429  Z M 41.4248798076923 23.9536830357143  C 42.1159855769231 23.2561383928571  42.4615384615385 22.4144345238095  42.4615384615385 21.4285714285714  C 42.4615384615385 20.4427083333333  42.1159855769231 19.6010044642857  41.4248798076923 18.9034598214286  C 40.7337740384615 18.2059151785714  39.8998397435897 17.8571428571429  38.9230769230769 17.8571428571429  C 37.9463141025641 17.8571428571429  37.1123798076923 18.2059151785714  36.4212740384615 18.9034598214286  C 35.7301682692308 19.6010044642857  35.3846153846154 20.4427083333333  35.3846153846154 21.4285714285714  C 35.3846153846154 22.4144345238095  35.7301682692308 23.2561383928571  36.4212740384615 23.9536830357143  C 37.1123798076923 24.6512276785714  37.9463141025641 25  38.9230769230769 25  C 39.8998397435897 25  40.7337740384615 24.6512276785714  41.4248798076923 23.9536830357143  Z M 44.9495192307692 1.06026785714285  C 45.6498397435897 1.76711309523809  46 2.60416666666666  46 3.57142857142857  L 46 46.4285714285714  C 46 47.3958333333333  45.6498397435897 48.2328869047619  44.9495192307692 48.9397321428571  C 44.2491987179487 49.6465773809524  43.4198717948718 50  42.4615384615385 50  L 3.53846153846154 50  C 2.58012820512821 50  1.75080128205128 49.6465773809524  1.05048076923077 48.9397321428571  C 0.350160256410256 48.2328869047619  0 47.3958333333333  0 46.4285714285714  L 0 3.57142857142857  C 0 2.60416666666666  0.350160256410256 1.76711309523809  1.05048076923077 1.06026785714285  C 1.75080128205128 0.353422619047622  2.58012820512821 0  3.53846153846154 0  L 42.4615384615385 0  C 43.4198717948718 0  44.2491987179487 0.353422619047622  44.9495192307692 1.06026785714285  Z " fill-rule="nonzero" fill="#000000" stroke="none" transform="matrix(1 0 0 1 1269 2175 )" />
  </g>
</svg>