<?xml version="1.0" encoding="utf-8"?>
<svg version="1.1" xmlns:xlink="http://www.w3.org/1999/xlink" width="104px" height="104px" xmlns="http://www.w3.org/2000/svg">
  <g transform="matrix(1 0 0 1 -101 -796 )">
    <path d="M 97.0260416666667 25.8984375  C 101.675347222222 33.8654513888889  104 42.5659722222222  104 52  C 104 61.4340277777778  101.675347222222 70.1345486111111  97.0260416666667 78.1015625  C 92.3767361111111 86.0685763888889  86.0685763888889 92.3767361111111  78.1015625 97.0260416666667  C 70.1345486111111 101.675347222222  61.4340277777778 104  52 104  C 42.5659722222222 104  33.8654513888889 101.675347222222  25.8984375 97.0260416666667  C 17.9314236111111 92.3767361111111  11.6232638888889 86.0685763888889  6.97395833333333 78.1015625  C 2.32465277777778 70.1345486111111  0 61.4340277777778  0 52  C 0 42.5659722222222  2.32465277777778 33.8654513888889  6.97395833333333 25.8984375  C 11.6232638888889 17.9314236111111  17.9314236111111 11.6232638888889  25.8984375 6.97395833333333  C 33.8654513888889 2.32465277777777  42.5659722222222 0  52 0  C 61.4340277777778 0  70.1345486111111 2.32465277777777  78.1015625 6.97395833333333  C 86.0685763888889 11.6232638888889  92.3767361111111 17.9314236111111  97.0260416666667 25.8984375  Z " fill-rule="nonzero" fill="#facd91" stroke="none" transform="matrix(1 0 0 1 101 796 )" />
  </g>
</svg>