<?xml version="1.0" encoding="utf-8"?>
<svg version="1.1" xmlns:xlink="http://www.w3.org/1999/xlink" width="46px" height="50px" xmlns="http://www.w3.org/2000/svg">
  <g transform="matrix(1 0 0 1 -130 -452 )">
    <path d="M 23 47.7678571428571  C 23.2948717948718 47.7678571428571  23.4423076923077 47.6190476190476  23.4423076923077 47.3214285714286  C 23.4423076923077 47.0238095238095  23.2948717948718 46.875  23 46.875  C 21.9126602564103 46.875  20.9773637820513 46.4797247023809  20.1941105769231 45.6891741071429  C 19.4108573717949 44.8986235119048  19.0192307692308 43.9546130952381  19.0192307692308 42.8571428571429  C 19.0192307692308 42.5595238095238  18.8717948717949 42.4107142857143  18.5769230769231 42.4107142857143  C 18.2820512820513 42.4107142857143  18.1346153846154 42.5595238095238  18.1346153846154 42.8571428571429  C 18.1346153846154 44.2150297619048  18.6091746794872 45.3729538690476  19.5582932692308 46.3309151785714  C 20.5074118589744 47.2888764880952  21.6546474358974 47.7678571428571  23 47.7678571428571  Z M 43.484375 36.8303571428571  C 44.239983974359 37.6860119047619  45.0785256410256 38.5044642857143  46 39.2857142857143  C 46 40.2529761904762  45.6498397435897 41.0900297619048  44.9495192307692 41.796875  C 44.2491987179487 42.5037202380952  43.4198717948718 42.8571428571429  42.4615384615385 42  L 30.0769230769231 42  C 30.0769230769231 44.8288690476191  29.3858173076923 46.5122767857143  28.0036057692308 47.9073660714286  C 26.6213942307692 49.3024553571429  24.9535256410256 50  23 50  C 21.0464743589744 50  19.3786057692308 49.3024553571429  17.9963942307692 47.9073660714286  C 16.6141826923077 46.5122767857143  15.9230769230769 44.8288690476191  15.9230769230769 42  L 3.53846153846154 42  C 2.58012820512821 42.8571428571429  1.75080128205128 42.5037202380952  1.05048076923077 41.796875  C 0.350160256410257 41.0900297619048  0 40.2529761904762  0 39.2857142857143  C 0.921474358974359 38.5044642857143  1.76001602564103 37.6860119047619  2.515625 36.8303571428571  C 3.27123397435897 35.9747023809524  4.05448717948718 34.86328125  4.86538461538462 33.49609375  C 5.67628205128205 32.12890625  6.36278044871795 30.6547619047619  6.92487980769231 29.0736607142857  C 7.48697916666667 27.4925595238095  7.94771634615385 25.5766369047619  8.30709134615385 23.3258928571429  C 8.66646634615385 21.0751488095238  8.84615384615385 18.656994047619  8.84615384615385 16.0714285714286  C 8.84615384615385 13.2440476190476  9.92427884615385 10.6166294642857  12.0805288461538 8.18917410714285  C 14.2367788461538 5.76171875  17.0657051282051 4.2875744047619  20.5673076923077 3.76674107142857  C 20.4198717948718 3.41331845238095  20.3461538461538 3.05059523809524  20.3461538461538 2.67857142857143  C 20.3461538461538 1.93452380952381  20.6041666666667 1.30208333333333  21.1201923076923 0.78125  C 21.636217948718 0.260416666666669  22.2628205128205 0  23 0  C 23.7371794871795 0  24.3637820512821 0.260416666666669  24.8798076923077 0.78125  C 25.3958333333333 1.30208333333333  25.6538461538462 1.93452380952381  25.6538461538462 2.67857142857143  C 25.6538461538462 3.05059523809524  25.5801282051282 3.41331845238095  25.4326923076923 3.76674107142857  C 28.9342948717949 4.2875744047619  31.7632211538462 5.76171875  33.9194711538462 8.18917410714285  C 36.0757211538462 10.6166294642857  37.1538461538462 13.2440476190476  37.1538461538462 16.0714285714286  C 37.1538461538462 18.656994047619  37.3335336538462 21.0751488095238  37.6929086538462 23.3258928571429  C 38.0522836538462 25.5766369047619  38.5130208333333 27.4925595238095  39.0751201923077 29.0736607142857  C 39.6372195512821 30.6547619047619  40.3237179487179 32.12890625  41.1346153846154 33.49609375  C 41.9455128205128 34.86328125  42.728766025641 35.9747023809524  43.484375 36.8303571428571  Z " fill-rule="nonzero" fill="#ffffff" stroke="none" transform="matrix(1 0 0 1 130 452 )" />
  </g>
</svg>