<?xml version="1.0" encoding="utf-8"?>
<svg version="1.1" xmlns:xlink="http://www.w3.org/1999/xlink" width="45px" height="42px" xmlns="http://www.w3.org/2000/svg">
  <g transform="matrix(1 0 0 1 -3435 -1904 )">
    <path d="M 0 16.8  L 0 42  L 9 42  L 9 16.8  L 0 16.8  Z M 44.9795454545455 19.0575  L 45 18.9  C 45 16.5795  43.1693181818182 14.7  40.9090909090909 15  L 27.9920454545455 15  L 29.9454545454545 5.103  C 29.9863636363636 4.893  30.0170454545455 4.6725  30.0170454545455 4.4415  C 30.0170454545455 3.57  29.6693181818182 2.7825  29.1170454545455 2.2155  L 26.9386363636364 0  L 13.4693181818182 13.8285  C 12.7329545454545 14.595  12.2727272727273 15.645  13 16.8  L 13 37.8  C 12.2727272727273 40.1205  14.1034090909091 42  16.3636363636364 42  L 34.7727272727273 42  C 36.4704545454545 42  37.9227272727273 40.9395  38.5363636363636 39.438  L 44.7034090909091 24.633  C 44.8875 24.15  45 23.6355  45 23.1  L 45 19.0785  L 44.9795454545455 19.0575  Z " fill-rule="nonzero" fill="#000000" stroke="none" transform="matrix(1 0 0 1 3435 1904 )" />
  </g>
</svg>