<?xml version="1.0" encoding="utf-8"?>
<svg version="1.1" xmlns:xlink="http://www.w3.org/1999/xlink" width="41px" height="36px" xmlns="http://www.w3.org/2000/svg">
  <g transform="matrix(1 0 0 1 -2743 -4232 )">
    <path d="M 0 0  L 0 7.2  L 31.8888888888889 7.2  L 31.8888888888889 0  L 0 0  Z M 0 15  L 0 21  L 31.8888888888889 21  L 31.8888888888889 15  L 0 15  Z M 0 28.8  L 0 36  L 31.8888888888889 36  L 31.8888888888889 28.8  L 0 28.8  Z M 36.4444444444444 28.8  L 36.4444444444444 36  L 41 36  L 41 28.8  L 36.4444444444444 28.8  Z M 41 0  L 36.4444444444444 0  L 36.4444444444444 7.2  L 41 7.2  L 41 0  Z M 36.4444444444444 14.4  L 36.4444444444444 21.6  L 41 21.6  L 41 14.4  L 36.4444444444444 14.4  Z " fill-rule="nonzero" fill="#000000" stroke="none" transform="matrix(1 0 0 1 2743 4232 )" />
  </g>
</svg>