<?xml version="1.0" encoding="utf-8"?>
<svg version="1.1" xmlns:xlink="http://www.w3.org/1999/xlink" width="8px" height="32px" xmlns="http://www.w3.org/2000/svg">
  <g transform="matrix(1 0 0 1 -4414 -131 )">
    <path d="M 0 4  C 0 6.21  1.79 8  4 8  C 6.21 8  8 6.21  8 4  C 8 1.79  6.21 0  4 0  C 1.79 0  0 1.79  0 4  Z M 8 16  C 8 13.79  6.21 12  4 12  C 1.79 12  0 13.79  0 16  C 0 18.21  1.79 20  4 20  C 6.21 20  8 18.21  8 16  Z M 8 28  C 8 25.79  6.21 24  4 24  C 1.79 24  0 25.79  0 28  C 0 30.21  1.79 32  4 32  C 6.21 32  8 30.21  8 28  Z " fill-rule="nonzero" fill="#000000" stroke="none" transform="matrix(1 0 0 1 4414 131 )" />
  </g>
</svg>