<?xml version="1.0" encoding="utf-8"?>
<svg version="1.1" xmlns:xlink="http://www.w3.org/1999/xlink" width="44px" height="39px" xmlns="http://www.w3.org/2000/svg">
  <g transform="matrix(1 0 0 1 -1003 -98 )">
    <path d="M 43.5334821428571 12.943125  C 43.8444940476191 13.251875  44 13.6175  44 14.04  C 44 14.4625  43.8444940476191 14.828125  43.5334821428571 15.136875  L 30.9620535714286 27.616875  C 30.6510416666667 27.925625  30.2827380952381 28.08  29.8571428571429 28.08  C 29.4315476190476 28.08  29.063244047619 27.925625  28.7522321428571 27.616875  C 28.4412202380952 27.308125  28.2857142857143 26.9425  28.2857142857143 26.52  L 28.2857142857143 20.28  L 22.7857142857143 20.28  C 21.1815476190476 20.28  19.7451636904762 20.32875  18.4765625 20.42625  C 17.2079613095238 20.52375  15.9475446428571 20.6984375  14.6953125 20.9503125  C 13.4430803571429 21.2021875  12.3545386904762 21.5475  11.4296875 21.98625  C 10.5048363095238 22.425  9.64136904761905 22.9896875  8.83928571428572 23.6803125  C 8.03720238095238 24.3709375  7.38244047619048 25.1915625  6.875 26.1421875  C 6.36755952380952 27.0928125  5.97061011904762 28.218125  5.68415178571429 29.518125  C 5.39769345238095 30.818125  5.25446428571429 32.28875  5.25446428571429 33.93  C 5.25446428571429 34.82375  5.29538690476191 35.823125  5.37723214285714 36.928125  C 5.37723214285714 37.025625  5.39769345238095 37.2165625  5.43861607142857 37.5009375  C 5.47953869047619 37.7853125  5.5 38.000625  5.5 38.146875  C 5.5 38.390625  5.43043154761905 38.59375  5.29129464285714 38.75625  C 5.15215773809524 38.91875  4.95982142857143 39  4.71428571428571 39  C 4.45238095238095 39  4.22321428571429 38.861875  4.02678571428571 38.585625  C 3.91220238095238 38.439375  3.80580357142857 38.260625  3.70758928571429 38.049375  C 3.609375 37.838125  3.49888392857143 37.594375  3.37611607142857 37.318125  C 3.25334821428571 37.041875  3.16741071428571 36.846875  3.11830357142857 36.733125  C 1.03943452380952 32.101875  0 28.4375  0 25.74  C 0 22.50625  0.433779761904762 19.800625  1.30133928571429 17.623125  C 3.953125 11.074375  11.1145833333333 7.8  22.7857142857143 7.8  L 28.2857142857143 7.8  L 28.2857142857143 1.56  C 28.2857142857143 1.1375  28.4412202380952 0.771874999999995  28.7522321428571 0.463124999999999  C 29.063244047619 0.154374999999998  29.4315476190476 0  29.8571428571429 0  C 30.2827380952381 0  30.6510416666667 0.154374999999998  30.9620535714286 0.463124999999999  L 43.5334821428571 12.943125  Z " fill-rule="nonzero" fill="#000000" stroke="none" transform="matrix(1 0 0 1 1003 98 )" />
  </g>
</svg>