<?xml version="1.0" encoding="utf-8"?>
<svg version="1.1" xmlns:xlink="http://www.w3.org/1999/xlink" width="62px" height="62px" xmlns="http://www.w3.org/2000/svg">
  <g transform="matrix(1 0 0 1 -955 -1553 )">
    <path d="M 45.6119791666667 36.267578125  C 45.9348958333333 36.8999565972222  45.9887152777778 37.5525173611111  45.7734375 38.2252604166667  C 44.7777777777778 41.4813368055556  42.9210069444445 44.1050347222222  40.203125 46.0963541666667  C 37.4852430555556 48.0876736111111  34.4175347222222 49.0833333333333  31 49.0833333333333  C 27.5824652777778 49.0833333333333  24.5147569444444 48.0876736111111  21.796875 46.0963541666667  C 19.0789930555556 44.1050347222222  17.2222222222222 41.4813368055556  16.2265625 38.2252604166667  C 16.0112847222222 37.5525173611111  16.0651041666667 36.8999565972222  16.3880208333333 36.267578125  C 16.7109375 35.6351996527778  17.2222222222222 35.2113715277778  17.921875 34.99609375  C 18.5946180555556 34.7808159722222  19.2471788194444 34.8346354166667  19.8795572916667 35.1575520833333  C 20.5119357638889 35.48046875  20.9357638888889 35.9917534722222  21.1510416666667 36.69140625  C 21.8237847222222 38.8441840277778  23.068359375 40.5865885416667  24.884765625 41.9186197916667  C 26.701171875 43.2506510416667  28.7395833333333 43.9166666666667  31 43.9166666666667  C 33.2604166666667 43.9166666666667  35.298828125 43.2506510416667  37.115234375 41.9186197916667  C 38.931640625 40.5865885416667  40.1762152777778 38.8441840277778  40.8489583333333 36.69140625  C 41.0642361111111 35.9917534722222  41.4947916666667 35.48046875  42.140625 35.1575520833333  C 42.7864583333333 34.8346354166667  43.4457465277778 34.7808159722222  44.1184895833333 34.99609375  C 44.7912326388889 35.2113715277778  45.2890625 35.6351996527778  45.6119791666667 36.267578125  Z M 24.3196614583333 17.013671875  C 25.3287760416667 18.0227864583333  25.8333333333333 19.2404513888889  25.8333333333333 20.6666666666667  C 25.8333333333333 22.0928819444444  25.3287760416667 23.310546875  24.3196614583333 24.3196614583333  C 23.310546875 25.3287760416667  22.0928819444444 25.8333333333333  20.6666666666667 25.8333333333333  C 19.2404513888889 25.8333333333333  18.0227864583333 25.3287760416667  17.013671875 24.3196614583333  C 16.0045572916667 23.310546875  15.5 22.0928819444444  15.5 20.6666666666667  C 15.5 19.2404513888889  16.0045572916667 18.0227864583333  17.013671875 17.013671875  C 18.0227864583333 16.0045572916667  19.2404513888889 15.5  20.6666666666667 15.5  C 22.0928819444444 15.5  23.310546875 16.0045572916667  24.3196614583333 17.013671875  Z M 44.986328125 17.013671875  C 45.9954427083333 18.0227864583333  46.5 19.2404513888889  46.5 20.6666666666667  C 46.5 22.0928819444444  45.9954427083333 23.310546875  44.986328125 24.3196614583333  C 43.9772135416667 25.3287760416667  42.7595486111111 25.8333333333333  41.3333333333333 25.8333333333333  C 39.9071180555556 25.8333333333333  38.689453125 25.3287760416667  37.6803385416667 24.3196614583333  C 36.6712239583333 23.310546875  36.1666666666667 22.0928819444444  36.1666666666667 20.6666666666667  C 36.1666666666667 19.2404513888889  36.6712239583333 18.0227864583333  37.6803385416667 17.013671875  C 38.689453125 16.0045572916667  39.9071180555556 15.5  41.3333333333333 15.5  C 42.7595486111111 15.5  43.9772135416667 16.0045572916667  44.986328125 17.013671875  Z M 54.7747395833333 41.0305989583333  C 56.1471354166667 37.841796875  56.8333333333333 34.4982638888889  56.8333333333333 31  C 56.8333333333333 27.5017361111111  56.1471354166667 24.158203125  54.7747395833333 20.9694010416667  C 53.40234375 17.7805989583333  51.5657552083333 15.0358072916667  49.2649739583333 12.7350260416667  C 46.9641927083333 10.4342447916667  44.2194010416667 8.59765625  41.0305989583333 7.22526041666667  C 37.841796875 5.85286458333333  34.4982638888889 5.16666666666667  31 5.16666666666667  C 27.5017361111111 5.16666666666667  24.158203125 5.85286458333333  20.9694010416667 7.22526041666667  C 17.7805989583333 8.59765625  15.0358072916667 10.4342447916667  12.7350260416667 12.7350260416667  C 10.4342447916667 15.0358072916667  8.59765625 17.7805989583333  7.22526041666667 20.9694010416667  C 5.85286458333333 24.158203125  5.16666666666667 27.5017361111111  5.16666666666667 31  C 5.16666666666667 34.4982638888889  5.85286458333333 37.841796875  7.22526041666667 41.0305989583333  C 8.59765625 44.2194010416667  10.4342447916667 46.9641927083333  12.7350260416667 49.2649739583333  C 15.0358072916667 51.5657552083333  17.7805989583333 53.40234375  20.9694010416667 54.7747395833333  C 24.158203125 56.1471354166667  27.5017361111111 56.8333333333333  31 56.8333333333333  C 34.4982638888889 56.8333333333333  37.841796875 56.1471354166667  41.0305989583333 54.7747395833333  C 44.2194010416667 53.40234375  46.9641927083333 51.5657552083333  49.2649739583333 49.2649739583333  C 51.5657552083333 46.9641927083333  53.40234375 44.2194010416667  54.7747395833333 41.0305989583333  Z M 57.8424479166667 15.439453125  C 60.6141493055556 20.1890190972222  62 25.3758680555555  62 31  C 62 36.6241319444444  60.6141493055556 41.8109809027778  57.8424479166667 46.560546875  C 55.0707465277778 51.3101128472222  51.3101128472222 55.0707465277778  46.560546875 57.8424479166667  C 41.8109809027778 60.6141493055556  36.6241319444444 62  31 62  C 25.3758680555556 62  20.1890190972222 60.6141493055556  15.439453125 57.8424479166667  C 10.6898871527778 55.0707465277778  6.92925347222222 51.3101128472222  4.15755208333333 46.560546875  C 1.38585069444444 41.8109809027778  0 36.6241319444444  0 31  C 0 25.3758680555555  1.38585069444444 20.1890190972222  4.15755208333333 15.439453125  C 6.92925347222222 10.6898871527778  10.6898871527778 6.92925347222222  15.439453125 4.15755208333333  C 20.1890190972222 1.38585069444444  25.3758680555556 0  31 0  C 36.6241319444444 0  41.8109809027778 1.38585069444444  46.560546875 4.15755208333333  C 51.3101128472222 6.92925347222222  55.0707465277778 10.6898871527778  57.8424479166667 15.439453125  Z " fill-rule="nonzero" fill="#000000" stroke="none" transform="matrix(1 0 0 1 955 1553 )" />
  </g>
</svg>