<?xml version="1.0" encoding="utf-8"?>
<svg version="1.1" xmlns:xlink="http://www.w3.org/1999/xlink" width="57px" height="53px" xmlns="http://www.w3.org/2000/svg">
  <g transform="matrix(1 0 0 1 -943 -386 )">
    <path d="M 943 386  L 1000 386  L 1000 439  L 943 439  L 943 386  " fill-rule="nonzero" fill="#cccccc" stroke="none" />
    <path d="M 947 390  L 996 390  L 996 435  L 947 435  L 947 390  " fill-rule="nonzero" fill="#ffffff" stroke="none" />
    <path d="M 976.615 401.9  C 974.389 401.9  972.64 400.151  972.64 397.925  C 972.64 395.699  974.389 393.95  976.615 393.95  C 978.841 393.95  980.59 395.699  980.59 397.925  C 980.59 400.151  978.841 401.9  976.615 401.9  " fill-rule="nonzero" fill="#cccccc" stroke="none" />
    <path d="M 949 434  L 949 410.9  L 960.5 400.4  L 976.6 410.568421052632  L 985.8 406.7  L 995 410.568421052632  L 995 434  L 949 434  " fill-rule="nonzero" fill="#169bd5" stroke="none" />
  </g>
</svg>