<?xml version="1.0" encoding="utf-8"?>
<svg version="1.1" xmlns:xlink="http://www.w3.org/1999/xlink" width="122px" height="122px" xmlns="http://www.w3.org/2000/svg">
  <defs>
    <mask fill="white" id="clip18">
      <path d="M 113.819010416667 30.380859375  C 119.273003472222 39.7267795138889  122 49.9331597222222  122 61  C 122 72.0668402777778  119.273003472222 82.2732204861111  113.819010416667 91.619140625  C 108.365017361111 100.965060763889  100.965060763889 108.365017361111  91.619140625 113.819010416667  C 82.2732204861111 119.273003472222  72.0668402777778 122  61 122  C 49.9331597222222 122  39.7267795138889 119.273003472222  30.380859375 113.819010416667  C 21.0349392361111 108.365017361111  13.6349826388889 100.965060763889  8.18098958333333 91.619140625  C 2.72699652777778 82.2732204861111  0 72.0668402777778  0 61  C 0 49.9331597222222  2.72699652777778 39.7267795138889  8.18098958333333 30.380859375  C 13.6349826388889 21.0349392361111  21.0349392361111 13.6349826388889  30.380859375 8.18098958333333  C 39.7267795138889 2.72699652777777  49.9331597222222 0  61 0  C 72.0668402777778 0  82.2732204861111 2.72699652777777  91.619140625 8.18098958333333  C 100.965060763889 13.6349826388889  108.365017361111 21.0349392361111  113.819010416667 30.380859375  Z " fill-rule="evenodd" />
    </mask>
  </defs>
  <g transform="matrix(1 0 0 1 -895 -2468 )">
    <path d="M 113.819010416667 30.380859375  C 119.273003472222 39.7267795138889  122 49.9331597222222  122 61  C 122 72.0668402777778  119.273003472222 82.2732204861111  113.819010416667 91.619140625  C 108.365017361111 100.965060763889  100.965060763889 108.365017361111  91.619140625 113.819010416667  C 82.2732204861111 119.273003472222  72.0668402777778 122  61 122  C 49.9331597222222 122  39.7267795138889 119.273003472222  30.380859375 113.819010416667  C 21.0349392361111 108.365017361111  13.6349826388889 100.965060763889  8.18098958333333 91.619140625  C 2.72699652777778 82.2732204861111  0 72.0668402777778  0 61  C 0 49.9331597222222  2.72699652777778 39.7267795138889  8.18098958333333 30.380859375  C 13.6349826388889 21.0349392361111  21.0349392361111 13.6349826388889  30.380859375 8.18098958333333  C 39.7267795138889 2.72699652777777  49.9331597222222 0  61 0  C 72.0668402777778 0  82.2732204861111 2.72699652777777  91.619140625 8.18098958333333  C 100.965060763889 13.6349826388889  108.365017361111 21.0349392361111  113.819010416667 30.380859375  Z " fill-rule="nonzero" fill="#ffff80" stroke="none" fill-opacity="0" transform="matrix(1 0 0 1 895 2468 )" />
    <path d="M 113.819010416667 30.380859375  C 119.273003472222 39.7267795138889  122 49.9331597222222  122 61  C 122 72.0668402777778  119.273003472222 82.2732204861111  113.819010416667 91.619140625  C 108.365017361111 100.965060763889  100.965060763889 108.365017361111  91.619140625 113.819010416667  C 82.2732204861111 119.273003472222  72.0668402777778 122  61 122  C 49.9331597222222 122  39.7267795138889 119.273003472222  30.380859375 113.819010416667  C 21.0349392361111 108.365017361111  13.6349826388889 100.965060763889  8.18098958333333 91.619140625  C 2.72699652777778 82.2732204861111  0 72.0668402777778  0 61  C 0 49.9331597222222  2.72699652777778 39.7267795138889  8.18098958333333 30.380859375  C 13.6349826388889 21.0349392361111  21.0349392361111 13.6349826388889  30.380859375 8.18098958333333  C 39.7267795138889 2.72699652777777  49.9331597222222 0  61 0  C 72.0668402777778 0  82.2732204861111 2.72699652777777  91.619140625 8.18098958333333  C 100.965060763889 13.6349826388889  108.365017361111 21.0349392361111  113.819010416667 30.380859375  Z " stroke-width="2" stroke="#d7d7d7" fill="none" transform="matrix(1 0 0 1 895 2468 )" mask="url(#clip18)" />
  </g>
</svg>