<?xml version="1.0" encoding="utf-8"?>
<svg version="1.1" xmlns:xlink="http://www.w3.org/1999/xlink" width="50px" height="50px" xmlns="http://www.w3.org/2000/svg">
  <g transform="matrix(1 0 0 1 -97 -2497 )">
    <path d="M 30.9151785714286 37.5279017857143  C 32.1056547619048 38.1975446428571  32.8590029761905 37.8441220238095  33.1752232142857 36.4676339285714  L 37.2767857142857 17.1316964285714  C 37.4441964285714 16.313244047619  37.3465401785714 15.727306547619  36.9838169642857 15.3738839285714  C 36.62109375 15.0204613095238  36.1421130952381 14.9553571428571  35.546875 15.1785714285714  L 11.4397321428571 24.4698660714286  C 10.9002976190476 24.6744791666667  10.5329241071429 24.906994047619  10.3376116071429 25.1674107142857  C 10.1422991071429 25.4278273809524  10.1190476190476 25.6742931547619  10.2678571428571 25.9068080357143  C 10.4166666666667 26.1393229166667  10.7142857142857 26.3206845238095  11.1607142857143 26.4508928571429  L 17.3270089285714 28.3761160714286  L 31.640625 19.3638392857143  C 32.03125 19.1034226190476  32.3288690476191 19.047619047619  32.5334821428571 19.1964285714286  C 32.6636904761905 19.2894345238095  32.6264880952381 19.4289434523809  32.421875 19.6149553571429  L 20.8426339285714 30.078125  L 20.3962053571429 36.4397321428571  C 20.8240327380952 36.4397321428571  21.2425595238095 36.235119047619  21.6517857142857 35.8258928571429  L 24.6651785714286 32.9241071428571  L 30.9151785714286 37.5279017857143  Z M 48.0189732142857 15.2901785714286  C 49.3396577380952 18.3779761904762  50 21.6145833333333  50 25  C 50 28.3854166666667  49.3396577380952 31.6220238095238  48.0189732142857 34.7098214285714  C 46.6982886904762 37.797619047619  44.921875 40.4575892857143  42.6897321428571 42.6897321428571  C 40.4575892857143 44.921875  37.7976190476191 46.6982886904762  34.7098214285714 48.0189732142857  C 31.6220238095238 49.3396577380952  28.3854166666667 50  25 50  C 21.6145833333333 50  18.3779761904762 49.3396577380952  15.2901785714286 48.0189732142857  C 12.202380952381 46.6982886904762  9.54241071428571 44.921875  7.31026785714286 42.6897321428571  C 5.078125 40.4575892857143  3.30171130952381 37.797619047619  1.98102678571429 34.7098214285714  C 0.660342261904762 31.6220238095238  0 28.3854166666667  0 25  C 0 21.6145833333333  0.660342261904762 18.3779761904762  1.98102678571429 15.2901785714286  C 3.30171130952381 12.2023809523809  5.078125 9.54241071428572  7.31026785714286 7.31026785714286  C 9.54241071428571 5.078125  12.202380952381 3.30171130952381  15.2901785714286 1.98102678571428  C 18.3779761904762 0.660342261904762  21.6145833333333 0  25 0  C 28.3854166666667 0  31.6220238095238 0.660342261904762  34.7098214285714 1.98102678571428  C 37.7976190476191 3.30171130952381  40.4575892857143 5.078125  42.6897321428571 7.31026785714286  C 44.921875 9.54241071428572  46.6982886904762 12.2023809523809  48.0189732142857 15.2901785714286  Z " fill-rule="nonzero" fill="#ffffff" stroke="none" transform="matrix(1 0 0 1 97 2497 )" />
  </g>
</svg>