<?xml version="1.0" encoding="utf-8"?>
<svg version="1.1" xmlns:xlink="http://www.w3.org/1999/xlink" width="50px" height="38px" xmlns="http://www.w3.org/2000/svg">
  <g transform="matrix(1 0 0 1 -722 -2510 )">
    <path d="M 23.9210397253556 16.216796875  C 22.0819028935753 18.072265625  19.8626777832271 19  17.2633643943109 19  C 14.6640510053948 19  12.4448258950466 18.072265625  10.6056890632663 16.216796875  C 8.76655223148602 14.361328125  7.84698381559588 12.1223958333333  7.84698381559588 9.5  C 7.84698381559588 6.87760416666667  8.76655223148602 4.638671875  10.6056890632663 2.783203125  C 12.4448258950466 0.927734375  14.6640510053948 0  17.2633643943109 0  C 19.8626777832271 0  22.0819028935753 0.927734375  23.9210397253556 2.783203125  C 25.7601765571359 4.638671875  26.679744973026 6.87760416666667  26.679744973026 9.5  C 26.679744973026 12.1223958333333  25.7601765571359 14.361328125  23.9210397253556 16.216796875  Z M 49.7793035801864 20.7565104166667  L 43.6733692986758 26.9166666666667  L 49.7793035801864 33.0768229166667  C 49.9264345267288 33.2252604166667  50 33.4149305555556  50 33.6458333333333  C 50 33.8602430555556  49.9264345267288 34.0416666666667  49.7793035801864 34.1901041666667  L 46.4443354585581 37.5546875  C 46.2972045120157 37.703125  46.117377799575 37.77734375  45.9048553212359 37.77734375  C 45.6759849599477 37.77734375  45.4879843060324 37.703125  45.3408533594899 37.5546875  L 39.2349190779794 31.39453125  L 33.1289847964689 37.5546875  C 32.9818538499264 37.703125  32.7938531960111 37.77734375  32.5649828347229 37.77734375  C 32.3524603563839 37.77734375  32.1726336439431 37.703125  32.0255026974007 37.5546875  L 28.6905345757724 34.1901041666667  C 28.54340362923 34.0416666666667  28.4698381559588 33.8602430555556  28.4698381559588 33.6458333333333  C 28.4698381559588 33.4149305555556  28.54340362923 33.2252604166667  28.6905345757724 33.0768229166667  L 34.796468857283 26.9166666666667  L 28.6905345757724 20.7565104166667  C 28.54340362923 20.6080729166667  28.4698381559588 20.4184027777778  28.4698381559588 20.1875  C 28.4698381559588 19.9730902777778  28.54340362923 19.7916666666667  28.6905345757724 19.6432291666667  L 32.0255026974007 16.2786458333333  C 32.1726336439431 16.1302083333333  32.3524603563839 16.0559895833333  32.5649828347229 16.0559895833333  C 32.7938531960111 16.0559895833333  32.9818538499264 16.1302083333333  33.1289847964689 16.2786458333333  L 39.2349190779794 22.4388020833333  L 45.3408533594899 16.2786458333333  C 45.4879843060324 16.1302083333333  45.6759849599477 16.0559895833333  45.9048553212359 16.0559895833333  C 46.117377799575 16.0559895833333  46.2972045120157 16.1302083333333  46.4443354585581 16.2786458333333  L 49.7793035801864 19.6432291666667  C 49.9264345267288 19.7916666666667  50 19.9730902777778  50 20.1875  C 50 20.4184027777778  49.9264345267288 20.6080729166667  49.7793035801864 20.7565104166667  Z M 27.0230505149583 22.4388020833333  L 31.4615007356547 26.9166666666667  L 27.0230505149583 31.39453125  C 26.4181788458395 32.0047743055556  26.11574301128 32.7552083333333  26.11574301128 33.6458333333333  C 26.11574301128 34.5199652777778  26.4181788458395 35.2621527777778  27.0230505149583 35.8723958333333  L 29.0583619421285 37.92578125  C 28.7150564001962 37.9752604166667  28.3554029753147 38  27.9794016674841 38  L 6.54732712113781 38  C 4.56923328428968 38  2.98348863822135 37.4309895833333  1.79009318293281 36.29296875  C 0.59669772764427 35.1549479166667  0 33.5881076388889  0 31.5924479166667  C 0 30.7183159722222  0.0286087951610266 29.8648003472222  0.0858263854830799 29.0319010416667  C 0.143043975805133 28.1990017361111  0.25747915644924 27.3001302083333  0.4291319274154 26.3352864583333  C 0.60078469838156 25.3704427083333  0.817394147457904 24.4756944444444  1.07896027464443 23.6510416666667  C 1.34052640183096 22.8263888888889  1.69200588523786 22.0223524305556  2.13339872486513 21.2389322916667  C 2.5747915644924 20.4555121527778  3.0815759359163 19.7875434027778  3.65375183913683 19.2350260416667  C 4.22592774235736 18.6825086805556  4.92479973843387 18.2413194444444  5.75036782736636 17.9114583333333  C 6.57593591629884 17.5815972222222  7.4873303907144 17.4166666666667  8.48455125061304 17.4166666666667  C 8.79516102664705 17.4166666666667  9.11394474415563 17.5568576388889  9.44090240313879 17.8372395833333  C 11.9584763773091 19.8493923611111  14.5659637076999 20.85546875  17.2633643943109 20.85546875  C 19.960765080922 20.85546875  22.5682524113127 19.8493923611111  25.0858263854831 17.8372395833333  C 25.4127840444662 17.5568576388889  25.7315677619748 17.4166666666667  26.0421775380088 17.4166666666667  C 26.4999182605853 17.4166666666667  26.9658329246363 17.4661458333333  27.4399215301618 17.5651041666667  C 26.9821808075854 18.0104166666667  26.6470492071277 18.4227430555556  26.4345267287886 18.8020833333333  C 26.2220042504496 19.1814236111111  26.11574301128 19.6432291666667  26.11574301128 20.1875  C 26.11574301128 21.078125  26.4181788458395 21.8285590277778  27.0230505149583 22.4388020833333  Z " fill-rule="nonzero" fill="#d7d7d7" stroke="none" transform="matrix(1 0 0 1 722 2510 )" />
  </g>
</svg>