<?xml version="1.0" encoding="utf-8"?>
<svg version="1.1" xmlns:xlink="http://www.w3.org/1999/xlink" width="41px" height="41px" xmlns="http://www.w3.org/2000/svg">
  <g transform="matrix(1 0 0 1 -940 -2778 )">
    <path d="M 24.8108723958333 22.7021484375  C 25.5671657986111 20.9315321180556  25.9453125 19.1208767361111  25.9453125 17.2701822916667  C 25.9453125 15.3483072916667  25.4692925347222 13.8446180555556  24.5172526041667 12.7591145833333  C 23.5652126736111 11.6736111111111  22.2528211805556 11.130859375  20.580078125 11.130859375  C 19.458984375 11.130859375  18.3556857638889 11.4022352430556  17.2701822916667 11.9449869791667  C 16.1846788194444 12.4877387152778  15.2059461805556 13.2395833333333  14.333984375 14.2005208333333  C 13.4620225694444 15.1614583333333  12.7546657986111 16.3804253472222  12.2119140625 17.857421875  C 11.6691623263889 19.3344184027778  11.3977864583333 20.9359809027778  11.3977864583333 22.662109375  C 11.3977864583333 24.6551649305556  11.8738064236111 26.1944444444444  12.8258463541667 27.2799479166667  C 13.7778862847222 28.3654513888889  15.1169704861111 28.908203125  16.8430989583333 28.908203125  C 18.5514322916667 28.908203125  20.1174045138889 28.3165147569444  21.541015625 27.1331380208333  C 22.9646267361111 25.9497612847222  24.0545789930556 24.4727647569444  24.8108723958333 22.7021484375  Z M 35.3411458333333 5.65885416666667  C 39.1137152777778 9.43142361111111  41 14.3784722222222  41 20.5  C 41 22.4752604166667  40.6707899305556 24.2280815972222  40.0123697916667 25.7584635416667  C 39.3539496527778 27.2888454861111  38.4775390625 28.4900173611111  37.3831380208333 29.3619791666667  C 36.2887369791667 30.2339409722222  35.1187065972222 30.8968098958333  33.873046875 31.3505859375  C 32.6273871527778 31.8043619791667  31.3372395833333 32.0490451388889  30.0026041666667 32.0846354166667  C 29.8958333333333 32.0846354166667  29.7579210069444 32.0890842013889  29.5888671875 32.0979817708333  C 29.4198133680556 32.1068793402778  29.2730034722222 32.111328125  29.1484375 32.111328125  C 27.4578993055556 32.111328125  26.1944444444444 31.6397569444444  25.3580729166667 30.6966145833333  C 24.8598090277778 30.109375  24.5661892361111 29.3708767361111  24.4772135416667 28.4811197916667  C 23.5518663194444 29.6555989583333  22.3818359375 30.6343315972222  20.9671223958333 31.4173177083333  C 19.5524088541667 32.2003038194444  18.0086805555556 32.591796875  16.3359375 32.591796875  C 13.4709201388889 32.591796875  11.2509765625 31.7420789930556  9.67610677083333 30.0426432291667  C 8.10123697916667 28.3432074652778  7.31380208333333 25.9453125  7.31380208333333 22.8489583333333  C 7.31380208333333 20.0551215277778  7.90104166666667 17.4748263888889  9.07552083333333 15.1080729166667  C 10.25 12.7413194444444  11.8426649305556 10.8683810763889  13.853515625 9.4892578125  C 15.8643663194444 8.11013454861111  18.0531684027778 7.42057291666667  20.419921875 7.42057291666667  C 21.9680989583333 7.42057291666667  23.3472222222222 7.73643663194444  24.5572916666667 8.3681640625  C 25.7673611111111 8.99989149305555  26.7105034722222 9.88519965277778  27.38671875 11.0240885416667  L 27.4401041666667 10.5169270833333  L 27.7337239583333 9.02213541666667  C 27.7515190972222 8.91536458333333  27.8004557291667 8.80859375  27.8805338541667 8.70182291666667  C 27.9606119791667 8.59505208333333  28.0451388888889 8.54166666666667  28.1341145833333 8.54166666666667  L 31.2838541666667 8.54166666666667  C 31.3728298611111 8.54166666666667  31.4884982638889 8.63953993055555  31.630859375 8.83528645833333  C 31.7198350694444 8.92426215277778  31.7465277777778 9.06662326388889  31.7109375 9.26236979166667  L 28.5078125 25.6516927083333  C 28.4188368055556 26.0787760416667  28.3743489583333 26.505859375  28.3743489583333 26.9329427083333  C 28.3743489583333 27.626953125  28.4855685763889 28.0896267361111  28.7080078125 28.3209635416667  C 28.9304470486111 28.5523003472222  29.3263888888889 28.66796875  29.8958333333333 28.66796875  C 30.3940972222222 28.6501736111111  30.9012586805556 28.6012369791667  31.4173177083333 28.5211588541667  C 31.9333767361111 28.4410807291667  32.5828993055556 28.2275390625  33.3658854166667 27.8805338541667  C 34.1488715277778 27.5335286458333  34.833984375 27.0886501736111  35.4212239583333 26.5458984375  C 36.0084635416667 26.0031467013889  36.515625 25.2068142361111  36.9427083333333 24.1569010416667  C 37.3697916666667 23.1069878472222  37.5833333333333 21.8880208333333  37.5833333333333 20.5  C 37.5833333333333 15.3038194444444  36.03515625 11.1575520833333  32.9388020833333 8.06119791666667  C 29.8424479166667 4.96484375  25.6961805555556 3.41666666666667  20.5 3.41666666666667  C 18.1866319444444 3.41666666666667  15.9755859375 3.87044270833333  13.8668619791667 4.77799479166667  C 11.7581380208333 5.685546875  9.94303385416667 6.90006510416667  8.42154947916667 8.42154947916667  C 6.90006510416667 9.94303385416667  5.685546875 11.7581380208333  4.77799479166667 13.8668619791667  C 3.87044270833333 15.9755859375  3.41666666666667 18.1866319444444  3.41666666666667 20.5  C 3.41666666666667 22.8133680555556  3.87044270833333 25.0244140625  4.77799479166667 27.1331380208333  C 5.685546875 29.2418619791667  6.90006510416667 31.0569661458333  8.42154947916667 32.5784505208333  C 9.94303385416667 34.0999348958333  11.7581380208333 35.314453125  13.8668619791667 36.2220052083333  C 15.9755859375 37.1295572916667  18.1866319444444 37.5833333333333  20.5 37.5833333333333  C 24.5572916666667 37.5833333333333  28.1608072916667 36.3020833333333  31.310546875 33.7395833333333  C 31.5062934027778 33.5794270833333  31.7198350694444 33.5082465277778  31.951171875 33.5260416666667  C 32.1825086805556 33.5438368055556  32.3693576388889 33.6506076388889  32.51171875 33.8463541666667  L 33.6061197916667 35.154296875  C 33.7484809027778 35.3678385416667  33.8107638888889 35.5813802083333  33.79296875 35.794921875  C 33.7573784722222 36.0262586805556  33.6506076388889 36.2220052083333  33.47265625 36.3821614583333  C 31.6575520833333 37.8591579861111  29.6333550347222 38.998046875  27.4000651041667 39.798828125  C 25.1667751736111 40.599609375  22.8667534722222 41  20.5 41  C 17.7239583333333 41  15.0724826388889 40.4572482638889  12.5455729166667 39.3717447916667  C 10.0186631944444 38.2862413194444  7.83875868055556 36.8270399305556  6.005859375 34.994140625  C 4.17296006944444 33.1612413194444  2.71375868055556 30.9813368055556  1.62825520833333 28.4544270833333  C 0.542751736111111 25.9275173611111  0 23.2760416666667  0 20.5  C 0 17.7239583333333  0.542751736111111 15.0724826388889  1.62825520833333 12.5455729166667  C 2.71375868055556 10.0186631944444  4.17296006944444 7.83875868055555  6.005859375 6.005859375  C 7.83875868055556 4.17296006944444  10.0186631944444 2.71375868055555  12.5455729166667 1.62825520833333  C 15.0724826388889 0.542751736111111  17.7239583333333 0  20.5 0  C 26.6215277777778 0  31.5685763888889 1.88628472222222  35.3411458333333 5.65885416666667  Z " fill-rule="nonzero" fill="#555555" stroke="none" transform="matrix(1 0 0 1 940 2778 )" />
  </g>
</svg>