<?xml version="1.0" encoding="utf-8"?>
<svg version="1.1" xmlns:xlink="http://www.w3.org/1999/xlink" width="41px" height="41px" xmlns="http://www.w3.org/2000/svg">
  <g transform="matrix(1 0 0 1 -993 -2778 )">
    <path d="M 30.1627604166667 23.9833984375  C 30.3763020833333 24.4015842013889  30.4118923611111 24.8331163194444  30.26953125 25.2779947916667  C 29.6111111111111 27.4312065972222  28.3832465277778 29.1662326388889  26.5859375 30.4830729166667  C 24.7886284722222 31.7999131944444  22.7599826388889 32.4583333333333  20.5 32.4583333333333  C 18.2400173611111 32.4583333333333  16.2113715277778 31.7999131944444  14.4140625 30.4830729166667  C 12.6167534722222 29.1662326388889  11.3888888888889 27.4312065972222  10.73046875 25.2779947916667  C 10.5881076388889 24.8331163194444  10.6236979166667 24.4015842013889  10.8372395833333 23.9833984375  C 11.05078125 23.5652126736111  11.3888888888889 23.2849392361111  11.8515625 23.142578125  C 12.2964409722222 23.0002170138889  12.7279730902778 23.0358072916667  13.1461588541667 23.2493489583333  C 13.5643446180556 23.462890625  13.8446180555556 23.8009982638889  13.9869791666667 24.263671875  C 14.4318576388889 25.6872829861111  15.2548828125 26.8395182291667  16.4560546875 27.7203776041667  C 17.6572265625 28.6012369791667  19.0052083333333 29.0416666666667  20.5 29.0416666666667  C 21.9947916666667 29.0416666666667  23.3427734375 28.6012369791667  24.5439453125 27.7203776041667  C 25.7451171875 26.8395182291667  26.5681423611111 25.6872829861111  27.0130208333333 24.263671875  C 27.1553819444444 23.8009982638889  27.4401041666667 23.462890625  27.8671875 23.2493489583333  C 28.2942708333333 23.0358072916667  28.7302517361111 23.0002170138889  29.1751302083333 23.142578125  C 29.6200086805556 23.2849392361111  29.94921875 23.5652126736111  30.1627604166667 23.9833984375  Z M 16.0823567708333 11.2509765625  C 16.7496744791667 11.9182942708333  17.0833333333333 12.7235243055556  17.0833333333333 13.6666666666667  C 17.0833333333333 14.6098090277778  16.7496744791667 15.4150390625  16.0823567708333 16.0823567708333  C 15.4150390625 16.7496744791667  14.6098090277778 17.0833333333333  13.6666666666667 17.0833333333333  C 12.7235243055556 17.0833333333333  11.9182942708333 16.7496744791667  11.2509765625 16.0823567708333  C 10.5836588541667 15.4150390625  10.25 14.6098090277778  10.25 13.6666666666667  C 10.25 12.7235243055556  10.5836588541667 11.9182942708333  11.2509765625 11.2509765625  C 11.9182942708333 10.5836588541667  12.7235243055556 10.25  13.6666666666667 10.25  C 14.6098090277778 10.25  15.4150390625 10.5836588541667  16.0823567708333 11.2509765625  Z M 29.7490234375 11.2509765625  C 30.4163411458333 11.9182942708333  30.75 12.7235243055556  30.75 13.6666666666667  C 30.75 14.6098090277778  30.4163411458333 15.4150390625  29.7490234375 16.0823567708333  C 29.0817057291667 16.7496744791667  28.2764756944444 17.0833333333333  27.3333333333333 17.0833333333333  C 26.3901909722222 17.0833333333333  25.5849609375 16.7496744791667  24.9176432291667 16.0823567708333  C 24.2503255208333 15.4150390625  23.9166666666667 14.6098090277778  23.9166666666667 13.6666666666667  C 23.9166666666667 12.7235243055556  24.2503255208333 11.9182942708333  24.9176432291667 11.2509765625  C 25.5849609375 10.5836588541667  26.3901909722222 10.25  27.3333333333333 10.25  C 28.2764756944444 10.25  29.0817057291667 10.5836588541667  29.7490234375 11.2509765625  Z M 36.2220052083333 27.1331380208333  C 37.1295572916667 25.0244140625  37.5833333333333 22.8133680555556  37.5833333333333 20.5  C 37.5833333333333 18.1866319444444  37.1295572916667 15.9755859375  36.2220052083333 13.8668619791667  C 35.314453125 11.7581380208333  34.0999348958333 9.94303385416667  32.5784505208333 8.42154947916667  C 31.0569661458333 6.90006510416667  29.2418619791667 5.685546875  27.1331380208333 4.77799479166667  C 25.0244140625 3.87044270833333  22.8133680555556 3.41666666666667  20.5 3.41666666666667  C 18.1866319444444 3.41666666666667  15.9755859375 3.87044270833333  13.8668619791667 4.77799479166667  C 11.7581380208333 5.685546875  9.94303385416667 6.90006510416667  8.42154947916667 8.42154947916667  C 6.90006510416667 9.94303385416667  5.685546875 11.7581380208333  4.77799479166667 13.8668619791667  C 3.87044270833333 15.9755859375  3.41666666666667 18.1866319444444  3.41666666666667 20.5  C 3.41666666666667 22.8133680555556  3.87044270833333 25.0244140625  4.77799479166667 27.1331380208333  C 5.685546875 29.2418619791667  6.90006510416667 31.0569661458333  8.42154947916667 32.5784505208333  C 9.94303385416667 34.0999348958333  11.7581380208333 35.314453125  13.8668619791667 36.2220052083333  C 15.9755859375 37.1295572916667  18.1866319444444 37.5833333333333  20.5 37.5833333333333  C 22.8133680555556 37.5833333333333  25.0244140625 37.1295572916667  27.1331380208333 36.2220052083333  C 29.2418619791667 35.314453125  31.0569661458333 34.0999348958333  32.5784505208333 32.5784505208333  C 34.0999348958333 31.0569661458333  35.314453125 29.2418619791667  36.2220052083333 27.1331380208333  Z M 38.2506510416667 10.2099609375  C 40.0835503472222 13.3508029513889  41 16.7808159722222  41 20.5  C 41 24.2191840277778  40.0835503472222 27.6491970486111  38.2506510416667 30.7900390625  C 36.4177517361111 33.9308810763889  33.9308810763889 36.4177517361111  30.7900390625 38.2506510416667  C 27.6491970486111 40.0835503472222  24.2191840277778 41  20.5 41  C 16.7808159722222 41  13.3508029513889 40.0835503472222  10.2099609375 38.2506510416667  C 7.06911892361111 36.4177517361111  4.58224826388889 33.9308810763889  2.74934895833333 30.7900390625  C 0.916449652777778 27.6491970486111  0 24.2191840277778  0 20.5  C 0 16.7808159722222  0.916449652777778 13.3508029513889  2.74934895833333 10.2099609375  C 4.58224826388889 7.06911892361111  7.06911892361111 4.58224826388888  10.2099609375 2.74934895833333  C 13.3508029513889 0.916449652777774  16.7808159722222 0  20.5 0  C 24.2191840277778 0  27.6491970486111 0.916449652777774  30.7900390625 2.74934895833333  C 33.9308810763889 4.58224826388888  36.4177517361111 7.06911892361111  38.2506510416667 10.2099609375  Z " fill-rule="nonzero" fill="#555555" stroke="none" transform="matrix(1 0 0 1 993 2778 )" />
  </g>
</svg>