<?xml version="1.0" encoding="utf-8"?>
<svg version="1.1" xmlns:xlink="http://www.w3.org/1999/xlink" width="29px" height="29px" xmlns="http://www.w3.org/2000/svg">
  <g transform="matrix(1 0 0 1 -713 -1012 )">
    <path d="M 21.3346354166667 16.9638671875  C 21.4856770833333 17.2596571180556  21.5108506944444 17.5648871527778  21.41015625 17.8795572916667  C 20.9444444444444 19.4025607638889  20.0759548611111 20.6297743055556  18.8046875 21.5611979166667  C 17.5334201388889 22.4926215277778  16.0985243055556 22.9583333333333  14.5 22.9583333333333  C 12.9014756944444 22.9583333333333  11.4665798611111 22.4926215277778  10.1953125 21.5611979166667  C 8.92404513888889 20.6297743055556  8.05555555555556 19.4025607638889  7.58984375 17.8795572916667  C 7.48914930555556 17.5648871527778  7.51432291666667 17.2596571180556  7.66536458333333 16.9638671875  C 7.81640625 16.6680772569444  8.05555555555556 16.4698350694444  8.3828125 16.369140625  C 8.69748263888889 16.2684461805556  9.00271267361111 16.2936197916667  9.29850260416667 16.4446614583333  C 9.59429253472222 16.595703125  9.79253472222222 16.8348524305556  9.89322916666667 17.162109375  C 10.2078993055556 18.1690538194444  10.7900390625 18.9840494791667  11.6396484375 19.6070963541667  C 12.4892578125 20.2301432291667  13.4427083333333 20.5416666666667  14.5 20.5416666666667  C 15.5572916666667 20.5416666666667  16.5107421875 20.2301432291667  17.3603515625 19.6070963541667  C 18.2099609375 18.9840494791667  18.7921006944444 18.1690538194444  19.1067708333333 17.162109375  C 19.2074652777778 16.8348524305556  19.4088541666667 16.595703125  19.7109375 16.4446614583333  C 20.0130208333333 16.2936197916667  20.3213975694444 16.2684461805556  20.6360677083333 16.369140625  C 20.9507378472222 16.4698350694444  21.18359375 16.6680772569444  21.3346354166667 16.9638671875  Z M 11.3753255208333 7.9580078125  C 11.8473307291667 8.43001302083333  12.0833333333333 8.99956597222222  12.0833333333333 9.66666666666667  C 12.0833333333333 10.3337673611111  11.8473307291667 10.9033203125  11.3753255208333 11.3753255208333  C 10.9033203125 11.8473307291667  10.3337673611111 12.0833333333333  9.66666666666667 12.0833333333333  C 8.99956597222222 12.0833333333333  8.43001302083333 11.8473307291667  7.9580078125 11.3753255208333  C 7.48600260416667 10.9033203125  7.25 10.3337673611111  7.25 9.66666666666667  C 7.25 8.99956597222222  7.48600260416667 8.43001302083333  7.9580078125 7.9580078125  C 8.43001302083333 7.48600260416667  8.99956597222222 7.25  9.66666666666667 7.25  C 10.3337673611111 7.25  10.9033203125 7.48600260416667  11.3753255208333 7.9580078125  Z M 21.0419921875 7.9580078125  C 21.5139973958333 8.43001302083333  21.75 8.99956597222222  21.75 9.66666666666667  C 21.75 10.3337673611111  21.5139973958333 10.9033203125  21.0419921875 11.3753255208333  C 20.5699869791667 11.8473307291667  20.0004340277778 12.0833333333333  19.3333333333333 12.0833333333333  C 18.6662326388889 12.0833333333333  18.0966796875 11.8473307291667  17.6246744791667 11.3753255208333  C 17.1526692708333 10.9033203125  16.9166666666667 10.3337673611111  16.9166666666667 9.66666666666667  C 16.9166666666667 8.99956597222222  17.1526692708333 8.43001302083333  17.6246744791667 7.9580078125  C 18.0966796875 7.48600260416667  18.6662326388889 7.25  19.3333333333333 7.25  C 20.0004340277778 7.25  20.5699869791667 7.48600260416667  21.0419921875 7.9580078125  Z M 25.6204427083333 19.1917317708333  C 26.2623697916667 17.7001953125  26.5833333333333 16.1362847222222  26.5833333333333 14.5  C 26.5833333333333 12.8637152777778  26.2623697916667 11.2998046875  25.6204427083333 9.80826822916667  C 24.978515625 8.31673177083333  24.1194661458333 7.03287760416667  23.0432942708333 5.95670572916667  C 21.9671223958333 4.88053385416667  20.6832682291667 4.021484375  19.1917317708333 3.37955729166667  C 17.7001953125 2.73763020833333  16.1362847222222 2.41666666666667  14.5 2.41666666666667  C 12.8637152777778 2.41666666666667  11.2998046875 2.73763020833333  9.80826822916667 3.37955729166667  C 8.31673177083333 4.021484375  7.03287760416667 4.88053385416667  5.95670572916667 5.95670572916667  C 4.88053385416667 7.03287760416667  4.021484375 8.31673177083333  3.37955729166667 9.80826822916667  C 2.73763020833333 11.2998046875  2.41666666666667 12.8637152777778  2.41666666666667 14.5  C 2.41666666666667 16.1362847222222  2.73763020833333 17.7001953125  3.37955729166667 19.1917317708333  C 4.021484375 20.6832682291667  4.88053385416667 21.9671223958333  5.95670572916667 23.0432942708333  C 7.03287760416667 24.1194661458333  8.31673177083333 24.978515625  9.80826822916667 25.6204427083333  C 11.2998046875 26.2623697916667  12.8637152777778 26.5833333333333  14.5 26.5833333333333  C 16.1362847222222 26.5833333333333  17.7001953125 26.2623697916667  19.1917317708333 25.6204427083333  C 20.6832682291667 24.978515625  21.9671223958333 24.1194661458333  23.0432942708333 23.0432942708333  C 24.1194661458333 21.9671223958333  24.978515625 20.6832682291667  25.6204427083333 19.1917317708333  Z M 27.0553385416667 7.2216796875  C 28.3517795138889 9.44325086805555  29 11.8693576388889  29 14.5  C 29 17.1306423611111  28.3517795138889 19.5567491319444  27.0553385416667 21.7783203125  C 25.7588975694444 23.9998914930556  23.9998914930556 25.7588975694444  21.7783203125 27.0553385416667  C 19.5567491319444 28.3517795138889  17.1306423611111 29  14.5 29  C 11.8693576388889 29  9.44325086805556 28.3517795138889  7.2216796875 27.0553385416667  C 5.00010850694444 25.7588975694444  3.24110243055556 23.9998914930556  1.94466145833333 21.7783203125  C 0.648220486111111 19.5567491319444  0 17.1306423611111  0 14.5  C 0 11.8693576388889  0.648220486111111 9.44325086805555  1.94466145833333 7.2216796875  C 3.24110243055556 5.00010850694444  5.00010850694444 3.24110243055555  7.2216796875 1.94466145833333  C 9.44325086805556 0.648220486111109  11.8693576388889 0  14.5 0  C 17.1306423611111 0  19.5567491319444 0.648220486111109  21.7783203125 1.94466145833333  C 23.9998914930556 3.24110243055555  25.7588975694444 5.00010850694444  27.0553385416667 7.2216796875  Z " fill-rule="nonzero" fill="#555555" stroke="none" transform="matrix(1 0 0 1 713 1012 )" />
  </g>
</svg>