<?xml version="1.0" encoding="utf-8"?>
<svg version="1.1" xmlns:xlink="http://www.w3.org/1999/xlink" width="37px" height="37px" xmlns="http://www.w3.org/2000/svg">
  <g transform="matrix(1 0 0 1 -958 -423 )">
    <path d="M 976.5 423  C 986.86 423  995 431.14  995 441.5  C 995 451.86  986.86 460  976.5 460  C 966.14 460  958 451.86  958 441.5  C 958 431.14  966.14 423  976.5 423  Z " fill-rule="nonzero" fill="#ffffff" stroke="none" />
    <path d="M 976.5 423.5  C 986.58 423.5  994.5 431.42  994.5 441.5  C 994.5 451.58  986.58 459.5  976.5 459.5  C 966.42 459.5  958.5 451.58  958.5 441.5  C 958.5 431.42  966.42 423.5  976.5 423.5  Z " stroke-width="1" stroke="#797979" fill="none" />
  </g>
</svg>