<?xml version="1.0" encoding="utf-8"?>
<svg version="1.1" xmlns:xlink="http://www.w3.org/1999/xlink" width="24px" height="24px" xmlns="http://www.w3.org/2000/svg">
  <defs>
    <mask fill="white" id="clip16">
      <path d="M 0 12  C 0 6.83259985423557  3.1220479053031 2.51666731900835  7.6201620274951 0.798184082732265  C 8.97176668765286 0.281828797750047  10.4474521441332 0  12 0  C 18.72 0  24 5.27999999999996  24 12  C 24 18.72  18.72 24  12 24  C 5.28000000000003 24  0 18.72  0 12  Z " fill-rule="evenodd" />
    </mask>
  </defs>
  <g transform="matrix(1 0 0 1 -976 -627 )">
    <path d="M 0 12  C 0 6.83259985423557  3.1220479053031 2.51666731900835  7.6201620274951 0.798184082732265  C 8.97176668765286 0.281828797750047  10.4474521441332 0  12 0  C 18.72 0  24 5.27999999999996  24 12  C 24 18.72  18.72 24  12 24  C 5.28000000000003 24  0 18.72  0 12  Z " fill-rule="nonzero" fill="#ffff00" stroke="none" transform="matrix(1 0 0 1 976 627 )" />
    <path d="M 0 12  C 0 6.83259985423557  3.1220479053031 2.51666731900835  7.6201620274951 0.798184082732265  C 8.97176668765286 0.281828797750047  10.4474521441332 0  12 0  C 18.72 0  24 5.27999999999996  24 12  C 24 18.72  18.72 24  12 24  C 5.28000000000003 24  0 18.72  0 12  Z " stroke-width="2" stroke="#797979" fill="none" transform="matrix(1 0 0 1 976 627 )" mask="url(#clip16)" />
  </g>
</svg>