<?xml version="1.0" encoding="utf-8"?>
<svg version="1.1" xmlns:xlink="http://www.w3.org/1999/xlink" width="40px" height="40px" xmlns="http://www.w3.org/2000/svg">
  <g transform="matrix(1 0 0 1 -956 -607 )">
    <path d="M 976 607  C 987.2 607  996 615.8  996 627  C 996 638.2  987.2 647  976 647  C 964.8 647  956 638.2  956 627  C 956 615.8  964.8 607  976 607  Z " fill-rule="nonzero" fill="#ffffff" stroke="none" />
    <path d="M 976 607.5  C 986.92 607.5  995.5 616.08  995.5 627  C 995.5 637.92  986.92 646.5  976 646.5  C 965.08 646.5  956.5 637.92  956.5 627  C 956.5 616.08  965.08 607.5  976 607.5  Z " stroke-width="1" stroke="#797979" fill="none" />
  </g>
</svg>