<?xml version="1.0" encoding="utf-8"?>
<svg version="1.1" xmlns:xlink="http://www.w3.org/1999/xlink" width="22px" height="22px" xmlns="http://www.w3.org/2000/svg">
  <defs>
    <mask fill="white" id="clip15">
      <path d="M 0 11  C 0 6.26321653304928  2.86187724652784 2.30694504242433  6.98514852520384 0.731668742504576  C 8.22411946368179 0.25834306460421  9.57683113212211 0  11 0  C 17.16 0  22 4.83999999999996  22 11  C 22 17.16  17.16 22  11 22  C 4.84000000000002 22  0 17.16  0 11  Z " fill-rule="evenodd" />
    </mask>
  </defs>
  <g transform="matrix(1 0 0 1 -977 -442 )">
    <path d="M 0 11  C 0 6.26321653304928  2.86187724652784 2.30694504242433  6.98514852520384 0.731668742504576  C 8.22411946368179 0.25834306460421  9.57683113212211 0  11 0  C 17.16 0  22 4.83999999999996  22 11  C 22 17.16  17.16 22  11 22  C 4.84000000000002 22  0 17.16  0 11  Z " fill-rule="nonzero" fill="#ffff00" stroke="none" transform="matrix(1 0 0 1 977 442 )" />
    <path d="M 0 11  C 0 6.26321653304928  2.86187724652784 2.30694504242433  6.98514852520384 0.731668742504576  C 8.22411946368179 0.25834306460421  9.57683113212211 0  11 0  C 17.16 0  22 4.83999999999996  22 11  C 22 17.16  17.16 22  11 22  C 4.84000000000002 22  0 17.16  0 11  Z " stroke-width="2" stroke="#797979" fill="none" transform="matrix(1 0 0 1 977 442 )" mask="url(#clip15)" />
  </g>
</svg>