<?xml version="1.0" encoding="utf-8"?>
<svg version="1.1" xmlns:xlink="http://www.w3.org/1999/xlink" width="32px" height="32px" xmlns="http://www.w3.org/2000/svg">
  <defs>
    <mask fill="white" id="clip14">
      <path d="M 0 16  C 0 9.11013313898076  4.16273054040413 3.35555642534447  10.1602160366601 1.06424544364302  C 11.9623555835372 0.375771730333397  13.9299361921776 0  16 0  C 24.96 0  32 7.03999999999994  32 16  C 32 24.9600000000001  24.96 32  16 32  C 7.04000000000003 32  0 24.9600000000001  0 16  Z " fill-rule="evenodd" />
    </mask>
  </defs>
  <g transform="matrix(1 0 0 1 -203 -309 )">
    <path d="M 0 16  C 0 9.11013313898076  4.16273054040413 3.35555642534447  10.1602160366601 1.06424544364302  C 11.9623555835372 0.375771730333397  13.9299361921776 0  16 0  C 24.96 0  32 7.03999999999994  32 16  C 32 24.9600000000001  24.96 32  16 32  C 7.04000000000003 32  0 24.9600000000001  0 16  Z " fill-rule="nonzero" fill="#ffff00" stroke="none" transform="matrix(1 0 0 1 203 309 )" />
    <path d="M 0 16  C 0 9.11013313898076  4.16273054040413 3.35555642534447  10.1602160366601 1.06424544364302  C 11.9623555835372 0.375771730333397  13.9299361921776 0  16 0  C 24.96 0  32 7.03999999999994  32 16  C 32 24.9600000000001  24.96 32  16 32  C 7.04000000000003 32  0 24.9600000000001  0 16  Z " stroke-width="2" stroke="#797979" fill="none" transform="matrix(1 0 0 1 203 309 )" mask="url(#clip14)" />
  </g>
</svg>