<?xml version="1.0" encoding="utf-8"?>
<svg version="1.1" xmlns:xlink="http://www.w3.org/1999/xlink" width="34px" height="34px" xmlns="http://www.w3.org/2000/svg">
  <g transform="matrix(1 0 0 1 -519 -845 )">
    <path d="M 536 849.107106781187  C 532.6 845.5  529.2 845.5  527.5 845.5  C 524.3 845.5  519.5 848.727586206897  519.5 854.86  C 519.5 868.447557197011  536 878.389672219213  536 878.389672219213  C 536 878.389672219213  552.5 868.447557197011  552.5 854.86  C 552.5 848.727586206897  547.7 845.5  544.5 845.5  C 542.8 845.5  539.4 845.5  536 849.107106781187  Z " fill-rule="nonzero" fill="#ffffff" stroke="none" />
    <path d="M 536 848.4  C 532.6 845  529.2 845  527.5 845  C 524.1 845  519 848.4  519 854.86  C 519 868.8  536 879  536 879  C 536 879  553 868.8  553 854.86  C 553 848.4  547.9 845  544.5 845  C 542.8 845  539.4 845  536 848.4  Z M 536 849.814213562373  C 539.4 846  542.8 846  544.5 846  C 547.5 846  552 849.055172413793  552 854.86  C 552 868.095114394021  536 877.779344438427  536 877.779344438427  C 536 877.779344438427  520 868.095114394021  520 854.86  C 520 849.055172413793  524.5 846  527.5 846  C 529.2 846  532.6 846  536 849.814213562373  Z " fill-rule="nonzero" fill="#797979" stroke="none" />
  </g>
</svg>