<?xml version="1.0" encoding="utf-8"?>
<svg version="1.1" xmlns:xlink="http://www.w3.org/1999/xlink" width="34px" height="34px" xmlns="http://www.w3.org/2000/svg">
  <g transform="matrix(1 0 0 1 -513 -472 )">
    <path d="M 530 476.107106781187  C 526.6 472.5  523.2 472.5  521.5 472.5  C 518.3 472.5  513.5 475.727586206897  513.5 481.86  C 513.5 495.447557197011  530 505.389672219213  530 505.389672219213  C 530 505.389672219213  546.5 495.447557197011  546.5 481.86  C 546.5 475.727586206897  541.7 472.5  538.5 472.5  C 536.8 472.5  533.4 472.5  530 476.107106781187  Z " fill-rule="nonzero" fill="#aaaaaa" stroke="none" />
    <path d="M 530 475.4  C 526.6 472  523.2 472  521.5 472  C 518.1 472  513 475.4  513 481.86  C 513 495.8  530 506  530 506  C 530 506  547 495.8  547 481.86  C 547 475.4  541.9 472  538.5 472  C 536.8 472  533.4 472  530 475.4  Z M 530 476.814213562373  C 533.4 473  536.8 473  538.5 473  C 541.5 473  546 476.055172413793  546 481.86  C 546 495.095114394021  530 504.779344438427  530 504.779344438427  C 530 504.779344438427  514 495.095114394021  514 481.86  C 514 476.055172413793  518.5 473  521.5 473  C 523.2 473  526.6 473  530 476.814213562373  Z " fill-rule="nonzero" fill="#797979" stroke="none" />
  </g>
</svg>