<?xml version="1.0" encoding="utf-8"?>
<svg version="1.1" xmlns:xlink="http://www.w3.org/1999/xlink" width="38px" height="41px" xmlns="http://www.w3.org/2000/svg">
  <g transform="matrix(1 0 0 1 -913 -243 )">
    <path d="M 13.5752840909091 15.615234375  C 13.7372159090909 15.775390625  13.8181818181818 15.9800347222222  14 16.2291666666667  L 14 31.6041666666667  C 13.8181818181818 31.8532986111111  13.7372159090909 32.0579427083333  13.5752840909091 32.2180989583333  C 13.4133522727273 32.3782552083333  13.2064393939394 32.4583333333333  12.9545454545455 32.4583333333333  L 11.2272727272727 32.4583333333333  C 10.9753787878788 32.4583333333333  10.7684659090909 32.3782552083333  10.6065340909091 32.2180989583333  C 10.4446022727273 32.0579427083333  10.3636363636364 31.8532986111111  11 31.6041666666667  L 11 16.2291666666667  C 10.3636363636364 15.9800347222222  10.4446022727273 15.775390625  10.6065340909091 15.615234375  C 10.7684659090909 15.455078125  10.9753787878788 15.375  11.2272727272727 15.375  L 12.9545454545455 15.375  C 13.2064393939394 15.375  13.4133522727273 15.455078125  13.5752840909091 15.615234375  Z M 20.484375 15.615234375  C 20.6463068181818 15.775390625  20.7272727272727 15.9800347222222  20 16.2291666666667  L 20 31.6041666666667  C 20.7272727272727 31.8532986111111  20.6463068181818 32.0579427083333  20.484375 32.2180989583333  C 20.3224431818182 32.3782552083333  20.1155303030303 32.4583333333333  19.8636363636364 32.4583333333333  L 18.1363636363636 32.4583333333333  C 17.8844696969697 32.4583333333333  17.6775568181818 32.3782552083333  17.515625 32.2180989583333  C 17.3536931818182 32.0579427083333  17.2727272727273 31.8532986111111  18 31.6041666666667  L 18 16.2291666666667  C 17.2727272727273 15.9800347222222  17.3536931818182 15.775390625  17.515625 15.615234375  C 17.6775568181818 15.455078125  17.8844696969697 15.375  18.1363636363636 15.375  L 19.8636363636364 15.375  C 20.1155303030303 15.375  20.3224431818182 15.455078125  20.484375 15.615234375  Z M 27.3934659090909 15.615234375  C 27.5553977272727 15.775390625  27.6363636363636 15.9800347222222  27 16.2291666666667  L 27 31.6041666666667  C 27.6363636363636 31.8532986111111  27.5553977272727 32.0579427083333  27.3934659090909 32.2180989583333  C 27.2315340909091 32.3782552083333  27.0246212121212 32.4583333333333  26.7727272727273 32.4583333333333  L 25.0454545454545 32.4583333333333  C 24.7935606060606 32.4583333333333  24.5866477272727 32.3782552083333  24.4247159090909 32.2180989583333  C 24.2627840909091 32.0579427083333  24.1818181818182 31.8532986111111  24 31.6041666666667  L 24 16.2291666666667  C 24.1818181818182 15.9800347222222  24.2627840909091 15.775390625  24.4247159090909 15.615234375  C 24.5866477272727 15.455078125  24.7935606060606 15.375  25.0454545454545 15.375  L 26.7727272727273 15.375  C 27.0246212121212 15.375  27.2315340909091 15.455078125  27.3934659090909 15.615234375  Z M 30.9019886363636 36.6357421875  C 31.0279356060606 36.3065321180556  31.0909090909091 35.9461805555556  31 35.5546875  L 31 11  L 7 11  L 7 35.5546875  C 6.90909090909091 35.9461805555556  6.97206439393939 36.3065321180556  7.09801136363636 36.6357421875  C 7.22395833333333 36.9649522569444  7.35440340909091 37.2051866319444  7.48934659090909 37.3564453125  C 7.62428977272727 37.5077039930556  7.71875 37.5833333333333  7.77272727272727 37  L 30.2272727272727 37  C 30.28125 37.5833333333333  30.3757102272727 37.5077039930556  30.5106534090909 37.3564453125  C 30.6455965909091 37.2051866319444  30.7760416666667 36.9649522569444  30.9019886363636 36.6357421875  Z M 14.2769886363636 3.71028645833333  L 12.9545454545455 7  L 25.0454545454545 7  L 23.75 3.71028645833333  C 23.624053030303 3.55013020833333  23.4711174242424 3.45225694444444  23.2911931818182 3.41666666666667  L 14.7357954545455 3.41666666666667  C 14.5558712121212 3.45225694444444  14.4029356060606 3.55013020833333  14.2769886363636 3.71028645833333  Z M 37.7571022727273 7.07356770833333  C 37.9190340909091 7.23372395833333  38 7.43836805555555  38 7.6875  L 38 9.39583333333333  C 38 9.64496527777778  37.9190340909091 9.849609375  37.7571022727273 10.009765625  C 37.5951704545455 10.169921875  37.3882575757576 10.25  37.1363636363636 10.25  L 34 10.25  L 34 35.5546875  C 34.5454545454545 37.0316840277778  34.1226325757576 38.3084852430556  33.2769886363636 39.3850911458333  C 32.4313446969697 40.4616970486111  31.4147727272727 41  30.2272727272727 41  L 7.77272727272727 41  C 6.58522727272727 41  5.5686553030303 40.4794921875  4.72301136363636 39.4384765625  C 3.87736742424242 38.3974609375  3.45454545454545 37.1384548611111  4 35.6614583333333  L 4 10.25  L 0.863636363636364 10.25  C 0.611742424242424 10.25  0.404829545454545 10.169921875  0.242897727272727 10.009765625  C 0.0809659090909091 9.849609375  0 9.64496527777778  0 9.39583333333333  L 0 7.6875  C 0 7.43836805555555  0.0809659090909091 7.23372395833333  0.242897727272727 7.07356770833333  C 0.404829545454545 6.91341145833333  0.611742424242424 6.83333333333333  0.863636363636364 6.83333333333333  L 9.203125 6.83333333333333  L 11.0923295454545 2.37565104166667  C 11.3622159090909 1.71723090277777  11.8480113636364 1.15668402777777  12.5497159090909 0.694010416666668  C 13.2514204545455 0.231336805555553  13.9621212121212 0  14.6818181818182 0  L 23.3181818181818 0  C 24.0378787878788 0  24.7485795454545 0.231336805555553  25.4502840909091 0.694010416666668  C 26.1519886363636 1.15668402777777  26.6377840909091 1.71723090277777  26.9076704545455 2.37565104166667  L 28.796875 6.83333333333333  L 37.1363636363636 6.83333333333333  C 37.3882575757576 6.83333333333333  37.5951704545455 6.91341145833333  37.7571022727273 7.07356770833333  Z " fill-rule="nonzero" fill="#000000" stroke="none" transform="matrix(1 0 0 1 913 243 )" />
  </g>
</svg>