<?xml version="1.0" encoding="utf-8"?>
<svg version="1.1" xmlns:xlink="http://www.w3.org/1999/xlink" width="215px" height="215px" xmlns="http://www.w3.org/2000/svg">
  <g transform="matrix(1 0 0 1 -95 -257 )">
    <path d="M 202.5 257  C 262.7 257  310 304.3  310 364.5  C 310 424.7  262.7 472  202.5 472  C 142.3 472  95 424.7  95 364.5  C 95 304.3  142.3 257  202.5 257  Z " fill-rule="nonzero" fill="#ffffff" stroke="none" />
    <path d="M 202.5 257.5  C 262.42 257.5  309.5 304.58  309.5 364.5  C 309.5 424.42  262.42 471.5  202.5 471.5  C 142.58 471.5  95.5 424.42  95.5 364.5  C 95.5 304.58  142.58 257.5  202.5 257.5  Z " stroke-width="1" stroke="#797979" fill="none" />
  </g>
</svg>