<?xml version="1.0" encoding="utf-8"?>
<svg version="1.1" xmlns:xlink="http://www.w3.org/1999/xlink" width="30px" height="30px" viewBox="2957 2074  30 30" xmlns="http://www.w3.org/2000/svg">
  <path d="M 2972 2074  C 2980.4 2074  2987 2080.6  2987 2089  C 2987 2097.4  2980.4 2104  2972 2104  C 2963.6 2104  2957 2097.4  2957 2089  C 2957 2080.6  2963.6 2074  2972 2074  Z " fill-rule="nonzero" fill="#ffffff" stroke="none" />
  <path d="M 2972 2074.5  C 2980.12 2074.5  2986.5 2080.88  2986.5 2089  C 2986.5 2097.12  2980.12 2103.5  2972 2103.5  C 2963.88 2103.5  2957.5 2097.12  2957.5 2089  C 2957.5 2080.88  2963.88 2074.5  2972 2074.5  Z " stroke-width="1" stroke="#797979" fill="none" />
  <path d="M 2972 2096.5  C 2967.8 2096.5  2964.5 2093.2  2964.5 2089  C 2964.5 2084.8  2967.8 2081.5  2972 2081.5  C 2976.2 2081.5  2979.5 2084.8  2979.5 2089  C 2979.5 2093.2  2976.2 2096.5  2972 2096.5  " fill-rule="nonzero" fill="#797979" stroke="none" />
</svg>