<?xml version="1.0" encoding="utf-8"?>
<svg version="1.1" xmlns:xlink="http://www.w3.org/1999/xlink" width="37px" height="33px" xmlns="http://www.w3.org/2000/svg">
  <g transform="matrix(1 0 0 1 -235 -2108 )">
    <path d="M 35.9056919642857 14.911875  C 36.6352306547619 16.754375  37 19.04375  37 21.78  C 37 24.0625  36.1259300595238 27.163125  34.3777901785714 31.081875  C 34.3364955357143 31.178125  34.2642299107143 31.343125  34.1609933035714 31.576875  C 34.0577566964286 31.810625  33.96484375 32.016875  33.8822544642857 32.195625  C 33.7996651785714 32.374375  33.710193452381 32.525625  33.6138392857143 32.649375  C 33.4486607142857 32.883125  33.2559523809524 33  33.0357142857143 33  C 32.8292410714286 33  32.6675037202381 32.93125  32.5505022321429 32.79375  C 32.4335007440476 32.65625  32.375 32.484375  32.375 32.278125  C 32.375 32.154375  32.3922061011905 31.9721875  32.4266183035714 31.7315625  C 32.4610305059524 31.4909375  32.4782366071429 31.329375  32.4782366071429 31.246875  C 32.5470610119048 30.311875  32.5814732142857 29.46625  32.5814732142857 28.71  C 32.5814732142857 27.32125  32.4610305059524 26.076875  32.2201450892857 24.976875  C 31.9792596726191 23.876875  31.6454613095238 22.9246875  31.21875 22.1203125  C 30.7920386904762 21.3159375  30.241443452381 20.6215625  29.5669642857143 20.0371875  C 28.8924851190476 19.4528125  28.1663876488095 18.975  27.388671875 18.60375  C 26.6109561011905 18.2325  25.6955915178571 17.9403125  24.642578125 17.7271875  C 23.5895647321429 17.5140625  22.5296688988095 17.36625  21.462890625 17.28375  C 20.3961123511905 17.20125  19.188244047619 17.16  17.8392857142857 17.16  L 13.2142857142857 17.16  L 13.2142857142857 22.44  C 13.2142857142857 22.7975  13.0835193452381 23.106875  12.8219866071429 23.368125  C 12.5604538690476 23.629375  12.250744047619 23.76  11.8928571428571 23.76  C 11.5349702380952 23.76  11.2252604166667 23.629375  10.9637276785714 23.368125  L 0.392299107142857 12.808125  C 0.130766369047619 12.546875  0 12.2375  0 11.88  C 0 11.5225  0.130766369047619 11.213125  0.392299107142857 10.951875  L 10.9637276785714 0.391874999999999  C 11.2252604166667 0.130624999999998  11.5349702380952 0  11.8928571428571 0  C 12.250744047619 0  12.5604538690476 0.130624999999998  12.8219866071429 0.391874999999999  C 13.0835193452381 0.653124999999996  13.2142857142857 0.962499999999997  13.2142857142857 1.32  L 13.2142857142857 6.6  L 17.8392857142857 6.6  C 27.6536458333333 6.6  33.67578125 9.370625  35.9056919642857 14.911875  Z " fill-rule="nonzero" fill="#ffffff" stroke="none" transform="matrix(1 0 0 1 235 2108 )" />
  </g>
</svg>