<?xml version="1.0" encoding="utf-8"?>
<svg version="1.1" xmlns:xlink="http://www.w3.org/1999/xlink" width="31px" height="50px" xmlns="http://www.w3.org/2000/svg">
  <g transform="matrix(1 0 0 1 -757 -2132 )">
    <path d="M 27.1470170454545 6.21448863636363  C 26.4571496212121 5.10179924242424  25.6278409090909 4.54545454545455  24.6590909090909 5  L 6.34090909090909 5  C 5.37215909090909 4.54545454545455  4.54285037878788 5.10179924242424  3.85298295454545 6.21448863636363  C 3.16311553030303 7.32717803030303  2.81818181818182 8.66477272727273  3 10.2272727272727  L 3 39.7727272727273  C 2.81818181818182 41.3352272727273  3.16311553030303 42.672821969697  3.85298295454545 43.7855113636364  C 4.54285037878788 44.8982007575758  5.37215909090909 45.4545454545455  6.34090909090909 45  L 24.6590909090909 45  C 25.6278409090909 45.4545454545455  26.4571496212121 44.8982007575758  27.1470170454545 43.7855113636364  C 27.836884469697 42.672821969697  28.1818181818182 41.3352272727273  28 39.7727272727273  L 28 10.2272727272727  C 28.1818181818182 8.66477272727273  27.836884469697 7.32717803030303  27.1470170454545 6.21448863636363  Z M 29.1395596590909 3.00071022727273  C 30.379853219697 5.00118371212121  31 7.41003787878787  31 10.2272727272727  L 31 39.7727272727273  C 31 42.5899621212121  30.379853219697 44.9988162878788  29.1395596590909 46.9992897727273  C 27.8992660984849 48.9997632575758  26.4057765151515 50  24.6590909090909 50  L 6.34090909090909 50  C 4.59422348484849 50  3.10073390151515 48.9997632575758  1.86044034090909 46.9992897727273  C 0.62014678030303 44.9988162878788  0 42.5899621212121  0 39.7727272727273  L 0 10.2272727272727  C 0 7.41003787878787  0.62014678030303 5.00118371212121  1.86044034090909 3.00071022727273  C 3.10073390151515 1.00023674242424  4.59422348484849 0  6.34090909090909 0  L 24.6590909090909 0  C 26.4057765151515 0  27.8992660984849 1.00023674242424  29.1395596590909 3.00071022727273  Z " fill-rule="nonzero" fill="#ffffff" stroke="none" transform="matrix(1 0 0 1 757 2132 )" />
  </g>
</svg>