<?xml version="1.0" encoding="utf-8"?>
<svg version="1.1" xmlns:xlink="http://www.w3.org/1999/xlink" width="48px" height="48px" xmlns="http://www.w3.org/2000/svg">
  <g transform="matrix(1 0 0 1 -1100 -2130 )">
    <path d="M 46.09375 14.6875  C 47.3645833333333 17.6458333333333  48 20.75  48 24  C 48 27.25  47.3645833333333 30.3541666666667  46.09375 33.3125  C 44.8229166666667 36.2708333333333  43.1145833333333 38.8229166666667  40.96875 40.96875  C 38.8229166666667 43.1145833333333  36.2708333333333 44.8229166666667  33.3125 46.09375  C 30.3541666666667 47.3645833333333  27.25 48  24 48  C 20.4166666666667 48  17.0104166666667 47.2447916666667  13.78125 45.734375  C 10.5520833333333 44.2239583333333  7.80208333333333 42.09375  5.53125 39.34375  C 5.38541666666667 39.1354166666667  5.31770833333333 38.9010416666667  5.328125 38.640625  C 5.33854166666667 38.3802083333333  5.42708333333333 38.1666666666667  5.59375 38  L 9.875 33.6875  C 10.0833333333333 33.5  10.34375 33.40625  10.65625 33.40625  C 10.9895833333333 33.4479166666667  11.2291666666667 33.5729166666667  11.375 33.78125  C 12.8958333333333 35.7604166666667  14.7604166666667 37.2916666666667  16.96875 38.375  C 19.1770833333333 39.4583333333333  21.5208333333333 40  24 40  C 26.1666666666667 40  28.234375 39.578125  30.203125 38.734375  C 32.171875 37.890625  33.875 36.75  35.3125 35.3125  C 36.75 33.875  37.890625 32.171875  38.734375 30.203125  C 39.578125 28.234375  40 26.1666666666667  40 24  C 40 21.8333333333333  39.578125 19.765625  38.734375 17.796875  C 37.890625 15.828125  36.75 14.125  35.3125 12.6875  C 33.875 11.25  32.171875 10.109375  30.203125 9.265625  C 28.234375 8.421875  26.1666666666667 8  24 8  C 21.9583333333333 8  20 8.36979166666667  18.125 9.109375  C 16.25 9.84895833333333  14.5833333333333 10.90625  13.125 12.28125  L 17.40625 16.59375  C 18.0520833333333 17.21875  18.1979166666667 17.9375  17.84375 18.75  C 17.4895833333333 19.5833333333333  16.875 20  16 20  L 2 20  C 1.45833333333333 20  0.989583333333333 19.8020833333333  0.59375 19.40625  C 0.197916666666667 19.0104166666667  0 18.5416666666667  0 18  L 0 4  C 0 3.125  0.416666666666667 2.51041666666667  1.25 2.15625  C 2.0625 1.80208333333333  2.78125 1.94791666666667  3.40625 2.59375  L 7.46875 6.625  C 9.69791666666667 4.52083333333333  12.2447916666667 2.890625  15.109375 1.734375  C 17.9739583333333 0.578125000000002  20.9375 0  24 0  C 27.25 0  30.3541666666667 0.635416666666666  33.3125 1.90625  C 36.2708333333333 3.17708333333333  38.8229166666667 4.88541666666666  40.96875 7.03125  C 43.1145833333333 9.17708333333333  44.8229166666667 11.7291666666667  46.09375 14.6875  Z " fill-rule="nonzero" fill="#ffffff" stroke="none" transform="matrix(1 0 0 1 1100 2130 )" />
  </g>
</svg>