<?xml version="1.0" encoding="utf-8"?>
<svg version="1.1" xmlns:xlink="http://www.w3.org/1999/xlink" width="55px" height="38px" xmlns="http://www.w3.org/2000/svg">
  <g transform="matrix(1 0 0 1 -917 -2144 )">
    <path d="M 48.1640625 4.72301136363636  C 46.9401041666667 3.87736742424242  45.46875 3.45454545454546  43.75 4  L 11.25 4  C 9.53125 3.45454545454546  8.05989583333334 3.87736742424242  6.8359375 4.72301136363636  C 5.61197916666667 5.5686553030303  5 6.58522727272727  5 7.77272727272727  L 5 30.2272727272727  C 5 31.4147727272727  5.61197916666667 32.4313446969697  6.8359375 33.2769886363636  C 8.05989583333334 34.1226325757576  9.53125 34.5454545454545  11.25 34  L 43.75 34  C 45.46875 34.5454545454545  46.9401041666667 34.1226325757576  48.1640625 33.2769886363636  C 49.3880208333333 32.4313446969697  50 31.4147727272727  50 30.2272727272727  L 50 7.77272727272727  C 50 6.58522727272727  49.3880208333333 5.5686553030303  48.1640625 4.72301136363636  Z M 51.69921875 2.28053977272727  C 53.8997395833333 3.80089962121212  55 5.63162878787878  55 7.77272727272727  L 55 30.2272727272727  C 55 32.3683712121212  53.8997395833333 34.1991003787879  51.69921875 35.7194602272727  C 49.4986979166667 37.2398200757576  46.8489583333333 38  43.75 38  L 11.25 38  C 8.15104166666667 38  5.50130208333333 37.2398200757576  3.30078125 35.7194602272727  C 1.10026041666667 34.1991003787879  0 32.3683712121212  0 30.2272727272727  L 0 7.77272727272727  C 0 5.63162878787878  1.10026041666667 3.80089962121212  3.30078125 2.28053977272727  C 5.50130208333333 0.760179924242421  8.15104166666667 0  11.25 0  L 43.75 0  C 46.8489583333333 0  49.4986979166667 0.760179924242421  51.69921875 2.28053977272727  Z " fill-rule="nonzero" fill="#ffffff" stroke="none" transform="matrix(1 0 0 1 917 2144 )" />
  </g>
</svg>