<?xml version="1.0" encoding="utf-8"?>
<svg version="1.1" xmlns:xlink="http://www.w3.org/1999/xlink" width="30px" height="30px" viewBox="4907 2143  30 30" xmlns="http://www.w3.org/2000/svg">
  <path d="M 4922 2143  C 4930.4 2143  4937 2149.6  4937 2158  C 4937 2166.4  4930.4 2173  4922 2173  C 4913.6 2173  4907 2166.4  4907 2158  C 4907 2149.6  4913.6 2143  4922 2143  Z " fill-rule="nonzero" fill="#ffffff" stroke="none" />
  <path d="M 4922 2143.5  C 4930.12 2143.5  4936.5 2149.88  4936.5 2158  C 4936.5 2166.12  4930.12 2172.5  4922 2172.5  C 4913.88 2172.5  4907.5 2166.12  4907.5 2158  C 4907.5 2149.88  4913.88 2143.5  4922 2143.5  Z " stroke-width="1" stroke="#797979" fill="none" />
  <path d="M 4922 2165.5  C 4917.8 2165.5  4914.5 2162.2  4914.5 2158  C 4914.5 2153.8  4917.8 2150.5  4922 2150.5  C 4926.2 2150.5  4929.5 2153.8  4929.5 2158  C 4929.5 2162.2  4926.2 2165.5  4922 2165.5  " fill-rule="nonzero" fill="#797979" stroke="none" />
</svg>