<?xml version="1.0" encoding="utf-8"?>
<svg version="1.1" xmlns:xlink="http://www.w3.org/1999/xlink" width="57px" height="57px" xmlns="http://www.w3.org/2000/svg">
  <defs>
    <filter x="4329px" y="1826px" width="57px" height="57px" filterUnits="userSpaceOnUse" id="filter5">
      <feOffset dx="1" dy="1" in="SourceAlpha" result="shadowOffsetInner" />
      <feGaussianBlur stdDeviation="2.5" in="shadowOffsetInner" result="shadowGaussian" />
      <feComposite in2="shadowGaussian" operator="atop" in="SourceAlpha" result="shadowComposite" />
      <feColorMatrix type="matrix" values="0 0 0 0 0  0 0 0 0 0  0 0 0 0 0  0 0 0 0.698039215686274 0  " in="shadowComposite" />
    </filter>
    <g id="widget6">
      <path d="M 4356.5 1830  C 4369.66 1830  4380 1840.34  4380 1853.5  C 4380 1866.66  4369.66 1877  4356.5 1877  C 4343.34 1877  4333 1866.66  4333 1853.5  C 4333 1840.34  4343.34 1830  4356.5 1830  Z " fill-rule="nonzero" fill="#009dd9" stroke="none" />
      <path d="M 4356.5 1830.5  C 4369.38 1830.5  4379.5 1840.62  4379.5 1853.5  C 4379.5 1866.38  4369.38 1876.5  4356.5 1876.5  C 4343.62 1876.5  4333.5 1866.38  4333.5 1853.5  C 4333.5 1840.62  4343.62 1830.5  4356.5 1830.5  Z " stroke-width="1" stroke="#ffffff" fill="none" />
    </g>
  </defs>
  <g transform="matrix(1 0 0 1 -4329 -1826 )">
    <use xlink:href="#widget6" filter="url(#filter5)" />
    <use xlink:href="#widget6" />
  </g>
</svg>