<?xml version="1.0" encoding="utf-8"?>
<svg version="1.1" xmlns:xlink="http://www.w3.org/1999/xlink" width="32px" height="43px" xmlns="http://www.w3.org/2000/svg">
  <g transform="matrix(1 0 0 1 -5304 -1834 )">
    <path d="M 32 6.13523573200992  C 32 6.59760132340777  31.8043758043758 6.99772539288668  31.4131274131274 7.33560794044665  L 15.011583011583 21.5  L 31.4131274131274 35.6643920595534  C 31.8043758043758 36.0022746071133  32 36.4023986765922  32 36.8647642679901  C 32 37.3271298593879  31.8043758043758 37.7272539288668  31.4131274131274 38.0651364764268  L 26.2857142857143 42.4931761786601  C 25.8944658944659 42.83105872622  25.4311454311454 43  24.8957528957529 43  C 24.3603603603604 43  23.8970398970399 42.83105872622  23.5057915057915 42.4931761786601  L 0.586872586872587 22.7003722084367  C 0.195624195624196 22.3624896608768  0 21.9623655913978  0 21.5  C 0 21.0376344086022  0.195624195624196 20.6375103391232  0.586872586872587 20.2996277915633  L 23.5057915057915 0.506823821339949  C 23.8970398970399 0.168941273779981  24.3603603603604 0  24.8957528957529 0  C 25.4311454311454 0  25.8944658944659 0.168941273779981  26.2857142857143 0.506823821339949  L 31.4131274131274 4.9348635235732  C 31.8043758043758 5.27274607113316  32 5.67287014061207  32 6.13523573200992  Z " fill-rule="nonzero" fill="#000000" stroke="none" transform="matrix(1 0 0 1 5304 1834 )" />
  </g>
</svg>