<?xml version="1.0" encoding="utf-8"?>
<svg version="1.1" xmlns:xlink="http://www.w3.org/1999/xlink" width="30px" height="30px" viewBox="4887 1952  30 30" xmlns="http://www.w3.org/2000/svg">
  <path d="M 4902 1952  C 4910.4 1952  4917 1958.6  4917 1967  C 4917 1975.4  4910.4 1982  4902 1982  C 4893.6 1982  4887 1975.4  4887 1967  C 4887 1958.6  4893.6 1952  4902 1952  Z " fill-rule="nonzero" fill="#ffffff" stroke="none" />
  <path d="M 4902 1952.5  C 4910.12 1952.5  4916.5 1958.88  4916.5 1967  C 4916.5 1975.12  4910.12 1981.5  4902 1981.5  C 4893.88 1981.5  4887.5 1975.12  4887.5 1967  C 4887.5 1958.88  4893.88 1952.5  4902 1952.5  Z " stroke-width="1" stroke="#797979" fill="none" />
  <path d="M 4902 1974.5  C 4897.8 1974.5  4894.5 1971.2  4894.5 1967  C 4894.5 1962.8  4897.8 1959.5  4902 1959.5  C 4906.2 1959.5  4909.5 1962.8  4909.5 1967  C 4909.5 1971.2  4906.2 1974.5  4902 1974.5  " fill-rule="nonzero" fill="#797979" stroke="none" />
</svg>