<?xml version="1.0" encoding="utf-8"?>
<svg version="1.1" xmlns:xlink="http://www.w3.org/1999/xlink" width="50px" height="46px" xmlns="http://www.w3.org/2000/svg">
  <g transform="matrix(1 0 0 1 -432 -2174 )">
    <path d="M 22.5360576923077 5.76497395833333  C 23.1370192307692 7.31228298611111  23.4375 8.82465277777777  23.4375 10.3020833333333  C 23.4375 11.5  23.2471955128205 12.6330295138889  22.8665865384615 13.701171875  C 22.4859775641026 14.7693142361111  21.8549679487179 15.6927083333333  20.9735576923077 16.4713541666667  C 20.0921474358974 17.25  19.0404647435897 17.6393229166667  17.8185096153846 17.6393229166667  C 16.2960737179487 17.6393229166667  14.9138621794872 17.0653211805556  13.671875 15.9173177083333  C 12.4298878205128 14.7693142361111  11.5084134615385 13.4166666666667  10.9074519230769 11.859375  C 10.3064903846154 10.3020833333333  10.0060096153846 8.79470486111111  10.0060096153846 7.33723958333333  C 10.0060096153846 6.13932291666667  10.1963141025641 5.00629340277777  10.5769230769231 3.93815104166667  C 10.9575320512821 2.87000868055555  11.5885416666667 1.94661458333334  12.4699519230769 1.16796875  C 13.3513621794872 0.389322916666665  14.4030448717949 0  15.625 0  C 17.1674679487179 0  18.5546875 0.574001736111108  19.7866586538462 1.72200520833334  C 21.0186298076923 2.87000868055555  21.9350961538462 4.21766493055555  22.5360576923077 5.76497395833333  Z M 12.109375 20.1998697916667  C 12.8104967948718 21.7671440972222  13.1610576923077 23.2894965277778  13.1610576923077 24.7669270833333  C 13.1610576923077 26.3641493055556  12.7403846153846 27.7517361111111  11.8990384615385 28.9296875  C 11.0576923076923 30.1076388888889  9.86578525641026 30.6966145833333  8.32331730769231 30.6966145833333  C 6.80088141025641 30.6966145833333  5.38361378205128 30.142578125  4.07151442307692 29.0345052083333  C 2.75941506410256 27.9264322916667  1.75280448717949 26.59375  1.05168269230769 25.0364583333333  C 0.350560897435897 23.4791666666667  0 21.9618055555556  0 20.484375  C 0 18.8871527777778  0.420673076923077 17.4945746527778  1.26201923076923 16.306640625  C 2.10336538461538 15.1187065972222  3.29527243589744 14.5247395833333  4.83774038461539 14.5247395833333  C 6.36017628205128 14.5247395833333  7.77744391025641 15.0787760416667  9.08954326923077 16.1868489583333  C 10.4016426282051 17.294921875  11.4082532051282 18.6325954861111  12.109375 20.1998697916667  Z M 19.2007211538462 25.7252604166667  C 21.2840544871795 24.5473090277778  23.2171474358974 23.9583333333333  25 23.9583333333333  C 27.3637820512821 23.9583333333333  29.9178685897436 24.931640625  32.6622596153846 26.8782552083333  C 35.4066506410256 28.8248697916667  37.7003205128205 31.1907552083333  39.5432692307692 33.9759114583333  C 41.3862179487179 36.7610677083333  42.3076923076923 39.3016493055556  42.3076923076923 41.59765625  C 42.3076923076923 42.5160590277778  42.1374198717949 43.2797309027778  41.796875 43.888671875  C 41.4563301282051 44.4976128472222  40.9705528846154 44.9468315972222  40.3395432692308 45.236328125  C 39.7085336538462 45.5258246527778  39.0625 45.7254774305556  38.4014423076923 45.8352864583333  C 37.7403846153846 45.9450954861111  36.9791666666667 46  36.1177884615385 46  C 34.755608974359 46  32.8776041666667 45.55078125  30.4837740384615 44.65234375  C 28.0899439102564 43.75390625  26.2620192307692 43.3046875  25 43.3046875  C 23.6778846153846 43.3046875  21.7497996794872 43.7489149305556  19.2157451923077 44.6373697916667  C 16.6816907051282 45.5258246527778  14.6734775641026 45.9700520833333  13.1911057692308 45.9700520833333  C 9.52524038461538 45.9700520833333  7.69230769230769 44.5125868055556  7.69230769230769 41.59765625  C 7.69230769230769 39.8806423611111  8.25320512820513 37.9689670138889  9.375 35.8626302083333  C 10.4967948717949 33.7562934027778  11.894030448718 31.8346354166667  13.5667067307692 30.09765625  C 15.2393830128205 28.3606770833333  17.1173878205128 26.9032118055556  19.2007211538462 25.7252604166667  Z M 36.328125 15.9173177083333  C 35.0861378205128 17.0653211805556  33.7039262820513 17.6393229166667  32.1814903846154 17.6393229166667  C 30.9595352564103 17.6393229166667  29.9078525641026 17.25  29.0264423076923 16.4713541666667  C 28.1450320512821 15.6927083333333  27.5140224358974 14.7693142361111  27.1334134615385 13.701171875  C 26.7528044871795 12.6330295138889  26.5625 11.5  26.5625 10.3020833333333  C 26.5625 8.82465277777777  26.8629807692308 7.31228298611111  27.4639423076923 5.76497395833333  C 28.0649038461538 4.21766493055555  28.9813701923077 2.87000868055555  30.2133413461538 1.72200520833334  C 31.4453125 0.574001736111108  32.8325320512821 0  34.375 0  C 35.5969551282051 0  36.6486378205128 0.389322916666665  37.5300480769231 1.16796875  C 38.4114583333333 1.94661458333334  39.0424679487179 2.87000868055555  39.4230769230769 3.93815104166667  C 39.8036858974359 5.00629340277777  39.9939903846154 6.13932291666667  39.9939903846154 7.33723958333333  C 39.9939903846154 8.79470486111111  39.6935096153846 10.3020833333333  39.0925480769231 11.859375  C 38.4915865384615 13.4166666666667  37.5701121794872 14.7693142361111  36.328125 15.9173177083333  Z M 40.9104567307692 16.1868489583333  C 42.2225560897436 15.0787760416667  43.6398237179487 14.5247395833333  45.1622596153846 14.5247395833333  C 46.7047275641026 14.5247395833333  47.8966346153846 15.1187065972222  48.7379807692308 16.306640625  C 49.5793269230769 17.4945746527778  50 18.8871527777778  50 20.484375  C 50 21.9618055555556  49.6494391025641 23.4791666666667  48.9483173076923 25.0364583333333  C 48.2471955128205 26.59375  47.2405849358974 27.9264322916667  45.9284855769231 29.0345052083333  C 44.6163862179487 30.142578125  43.1991185897436 30.6966145833333  41.6766826923077 30.6966145833333  C 40.1342147435897 30.6966145833333  38.9423076923077 30.1076388888889  38.1009615384615 28.9296875  C 37.2596153846154 27.7517361111111  36.8389423076923 26.3641493055556  36.8389423076923 24.7669270833333  C 36.8389423076923 23.2894965277778  37.1895032051282 21.7671440972222  37.890625 20.1998697916667  C 38.5917467948718 18.6325954861111  39.5983573717949 17.294921875  40.9104567307692 16.1868489583333  Z " fill-rule="nonzero" fill="#ffffff" stroke="none" transform="matrix(1 0 0 1 432 2174 )" />
  </g>
</svg>