<?xml version="1.0" encoding="utf-8"?>
<svg version="1.1" xmlns:xlink="http://www.w3.org/1999/xlink" width="61px" height="53px" xmlns="http://www.w3.org/2000/svg">
  <g transform="matrix(1 0 0 1 -639 -1977 )">
    <path d="M 11.5963541666667 48.3179086538462  C 11.9987847222222 47.9144631410256  12.2 47.4366987179487  12.2 46.8846153846154  L 12.2 42.8076923076923  C 12.2 42.255608974359  11.9987847222222 41.7778445512821  11.5963541666667 41.3743990384615  C 11.1939236111111 40.970953525641  10.7173611111111 40.7692307692308  10.1666666666667 40.7692307692308  L 6.1 40.7692307692308  C 5.54930555555556 40.7692307692308  5.07274305555556 40.970953525641  4.6703125 41.3743990384615  C 4.26788194444444 41.7778445512821  4.06666666666667 42.255608974359  4.06666666666667 42.8076923076923  L 4.06666666666667 46.8846153846154  C 4.06666666666667 47.4366987179487  4.26788194444444 47.9144631410256  4.6703125 48.3179086538462  C 5.07274305555556 48.7213541666667  5.54930555555556 48.9230769230769  6.1 48.9230769230769  L 10.1666666666667 48.9230769230769  C 10.7173611111111 48.9230769230769  11.1939236111111 48.7213541666667  11.5963541666667 48.3179086538462  Z M 11.5963541666667 36.0871394230769  C 11.9987847222222 35.6836939102564  12.2 35.2059294871795  12.2 34.6538461538462  L 12.2 30.5769230769231  C 12.2 30.0248397435897  11.9987847222222 29.5470753205128  11.5963541666667 29.1436298076923  C 11.1939236111111 28.7401842948718  10.7173611111111 28.5384615384615  10.1666666666667 28.5384615384615  L 6.1 28.5384615384615  C 5.54930555555556 28.5384615384615  5.07274305555556 28.7401842948718  4.6703125 29.1436298076923  C 4.26788194444444 29.5470753205128  4.06666666666667 30.0248397435897  4.06666666666667 30.5769230769231  L 4.06666666666667 34.6538461538462  C 4.06666666666667 35.2059294871795  4.26788194444444 35.6836939102564  4.6703125 36.0871394230769  C 5.07274305555556 36.4905849358974  5.54930555555556 36.6923076923077  6.1 36.6923076923077  L 10.1666666666667 36.6923076923077  C 10.7173611111111 36.6923076923077  11.1939236111111 36.4905849358974  11.5963541666667 36.0871394230769  Z M 11.5963541666667 23.8563701923077  C 11.9987847222222 23.4529246794872  12.2 22.9751602564103  12.2 22.4230769230769  L 12.2 18.3461538461538  C 12.2 17.7940705128205  11.9987847222222 17.3163060897436  11.5963541666667 16.9128605769231  C 11.1939236111111 16.5094150641026  10.7173611111111 16.3076923076923  10.1666666666667 16.3076923076923  L 6.1 16.3076923076923  C 5.54930555555556 16.3076923076923  5.07274305555556 16.5094150641026  4.6703125 16.9128605769231  C 4.26788194444444 17.3163060897436  4.06666666666667 17.7940705128205  4.06666666666667 18.3461538461538  L 4.06666666666667 22.4230769230769  C 4.06666666666667 22.9751602564103  4.26788194444444 23.4529246794872  4.6703125 23.8563701923077  C 5.07274305555556 24.2598157051282  5.54930555555556 24.4615384615385  6.1 24.4615384615385  L 10.1666666666667 24.4615384615385  C 10.7173611111111 24.4615384615385  11.1939236111111 24.2598157051282  11.5963541666667 23.8563701923077  Z M 44.1296875 48.3179086538462  C 44.5321180555556 47.9144631410256  44.7333333333333 47.4366987179487  44 46.8846153846154  L 44 30.5769230769231  C 44.7333333333333 30.0248397435897  44.5321180555556 29.5470753205128  44.1296875 29.1436298076923  C 43.7272569444444 28.7401842948718  43.2506944444444 28.5384615384615  42.7 28  L 18.3 28  C 17.7493055555556 28.5384615384615  17.2727430555556 28.7401842948718  16.8703125 29.1436298076923  C 16.4678819444444 29.5470753205128  16.2666666666667 30.0248397435897  17 30.5769230769231  L 17 46.8846153846154  C 16.2666666666667 47.4366987179487  16.4678819444444 47.9144631410256  16.8703125 48.3179086538462  C 17.2727430555556 48.7213541666667  17.7493055555556 48.9230769230769  18.3 49  L 42.7 49  C 43.2506944444444 48.9230769230769  43.7272569444444 48.7213541666667  44.1296875 48.3179086538462  Z M 11.5963541666667 11.6256009615385  C 11.9987847222222 11.2221554487179  12.2 10.744391025641  12.2 10.1923076923077  L 12.2 6.11538461538462  C 12.2 5.56330128205128  11.9987847222222 5.08553685897435  11.5963541666667 4.68209134615385  C 11.1939236111111 4.27864583333333  10.7173611111111 4.07692307692307  10.1666666666667 4.07692307692307  L 6.1 4.07692307692307  C 5.54930555555556 4.07692307692307  5.07274305555556 4.27864583333333  4.6703125 4.68209134615385  C 4.26788194444444 5.08553685897435  4.06666666666667 5.56330128205128  4.06666666666667 6.11538461538462  L 4.06666666666667 10.1923076923077  C 4.06666666666667 10.744391025641  4.26788194444444 11.2221554487179  4.6703125 11.6256009615385  C 5.07274305555556 12.029046474359  5.54930555555556 12.2307692307692  6.1 12.2307692307692  L 10.1666666666667 12.2307692307692  C 10.7173611111111 12.2307692307692  11.1939236111111 12.029046474359  11.5963541666667 11.6256009615385  Z M 56.3296875 48.3179086538462  C 56.7321180555556 47.9144631410256  56.9333333333333 47.4366987179487  56.9333333333333 46.8846153846154  L 56.9333333333333 42.8076923076923  C 56.9333333333333 42.255608974359  56.7321180555556 41.7778445512821  56.3296875 41.3743990384615  C 55.9272569444445 40.970953525641  55.4506944444445 40.7692307692308  54.9 40.7692307692308  L 50.8333333333333 40.7692307692308  C 50.2826388888889 40.7692307692308  49.8060763888889 40.970953525641  49.4036458333333 41.3743990384615  C 49.0012152777778 41.7778445512821  48.8 42.255608974359  48.8 42.8076923076923  L 48.8 46.8846153846154  C 48.8 47.4366987179487  49.0012152777778 47.9144631410256  49.4036458333333 48.3179086538462  C 49.8060763888889 48.7213541666667  50.2826388888889 48.9230769230769  50.8333333333333 48.9230769230769  L 54.9 48.9230769230769  C 55.4506944444445 48.9230769230769  55.9272569444445 48.7213541666667  56.3296875 48.3179086538462  Z M 44.1296875 23.8563701923077  C 44.5321180555556 23.4529246794872  44.7333333333333 22.9751602564103  44 22.4230769230769  L 44 6.11538461538462  C 44.7333333333333 5.56330128205128  44.5321180555556 5.08553685897435  44.1296875 4.68209134615385  C 43.7272569444444 4.27864583333333  43.2506944444444 4.07692307692307  42.7 4  L 18.3 4  C 17.7493055555556 4.07692307692307  17.2727430555556 4.27864583333333  16.8703125 4.68209134615385  C 16.4678819444444 5.08553685897435  16.2666666666667 5.56330128205128  17 6.11538461538462  L 17 22.4230769230769  C 16.2666666666667 22.9751602564103  16.4678819444444 23.4529246794872  16.8703125 23.8563701923077  C 17.2727430555556 24.2598157051282  17.7493055555556 24.4615384615385  18.3 25  L 42.7 25  C 43.2506944444444 24.4615384615385  43.7272569444444 24.2598157051282  44.1296875 23.8563701923077  Z M 56.3296875 36.0871394230769  C 56.7321180555556 35.6836939102564  56.9333333333333 35.2059294871795  56.9333333333333 34.6538461538462  L 56.9333333333333 30.5769230769231  C 56.9333333333333 30.0248397435897  56.7321180555556 29.5470753205128  56.3296875 29.1436298076923  C 55.9272569444445 28.7401842948718  55.4506944444445 28.5384615384615  54.9 28.5384615384615  L 50.8333333333333 28.5384615384615  C 50.2826388888889 28.5384615384615  49.8060763888889 28.7401842948718  49.4036458333333 29.1436298076923  C 49.0012152777778 29.5470753205128  48.8 30.0248397435897  48.8 30.5769230769231  L 48.8 34.6538461538462  C 48.8 35.2059294871795  49.0012152777778 35.6836939102564  49.4036458333333 36.0871394230769  C 49.8060763888889 36.4905849358974  50.2826388888889 36.6923076923077  50.8333333333333 36.6923076923077  L 54.9 36.6923076923077  C 55.4506944444445 36.6923076923077  55.9272569444445 36.4905849358974  56.3296875 36.0871394230769  Z M 56.3296875 23.8563701923077  C 56.7321180555556 23.4529246794872  56.9333333333333 22.9751602564103  56.9333333333333 22.4230769230769  L 56.9333333333333 18.3461538461538  C 56.9333333333333 17.7940705128205  56.7321180555556 17.3163060897436  56.3296875 16.9128605769231  C 55.9272569444445 16.5094150641026  55.4506944444445 16.3076923076923  54.9 16.3076923076923  L 50.8333333333333 16.3076923076923  C 50.2826388888889 16.3076923076923  49.8060763888889 16.5094150641026  49.4036458333333 16.9128605769231  C 49.0012152777778 17.3163060897436  48.8 17.7940705128205  48.8 18.3461538461538  L 48.8 22.4230769230769  C 48.8 22.9751602564103  49.0012152777778 23.4529246794872  49.4036458333333 23.8563701923077  C 49.8060763888889 24.2598157051282  50.2826388888889 24.4615384615385  50.8333333333333 24.4615384615385  L 54.9 24.4615384615385  C 55.4506944444445 24.4615384615385  55.9272569444445 24.2598157051282  56.3296875 23.8563701923077  Z M 56.3296875 11.6256009615385  C 56.7321180555556 11.2221554487179  56.9333333333333 10.744391025641  56.9333333333333 10.1923076923077  L 56.9333333333333 6.11538461538462  C 56.9333333333333 5.56330128205128  56.7321180555556 5.08553685897435  56.3296875 4.68209134615385  C 55.9272569444445 4.27864583333333  55.4506944444445 4.07692307692307  54.9 4.07692307692307  L 50.8333333333333 4.07692307692307  C 50.2826388888889 4.07692307692307  49.8060763888889 4.27864583333333  49.4036458333333 4.68209134615385  C 49.0012152777778 5.08553685897435  48.8 5.56330128205128  48.8 6.11538461538462  L 48.8 10.1923076923077  C 48.8 10.744391025641  49.0012152777778 11.2221554487179  49.4036458333333 11.6256009615385  C 49.8060763888889 12.029046474359  50.2826388888889 12.2307692307692  50.8333333333333 12.2307692307692  L 54.9 12.2307692307692  C 55.4506944444445 12.2307692307692  55.9272569444445 12.029046474359  56.3296875 11.6256009615385  Z M 59.5067708333333 1.49699519230769  C 60.5022569444444 2.49499198717949  61 3.69471153846154  61 5.09615384615385  L 61 47.9038461538462  C 61 49.3052884615385  60.5022569444444 50.5050080128205  59.5067708333333 51.5030048076923  C 58.5112847222222 52.5010016025641  57.3145833333333 53  55.9166666666667 53  L 5.08333333333333 53  C 3.68541666666667 53  2.48871527777778 52.5010016025641  1.49322916666667 51.5030048076923  C 0.497743055555556 50.5050080128205  0 49.3052884615385  0 47.9038461538462  L 0 5.09615384615385  C 0 3.69471153846154  0.497743055555556 2.49499198717949  1.49322916666667 1.49699519230769  C 2.48871527777778 0.498998397435891  3.68541666666667 0  5.08333333333333 0  L 55.9166666666667 0  C 57.3145833333333 0  58.5112847222222 0.498998397435891  59.5067708333333 1.49699519230769  Z " fill-rule="nonzero" fill="#d7d7d7" stroke="none" transform="matrix(1 0 0 1 639 1977 )" />
  </g>
</svg>