<?xml version="1.0" encoding="utf-8"?>
<svg version="1.1" xmlns:xlink="http://www.w3.org/1999/xlink" width="28px" height="28px" xmlns="http://www.w3.org/2000/svg">
  <g transform="matrix(1 0 0 1 -196 -2172 )">
    <path d="M 210 2172  C 217.84 2172  224 2178.16  224 2186  C 224 2193.84  217.84 2200  210 2200  C 202.16 2200  196 2193.84  196 2186  C 196 2178.16  202.16 2172  210 2172  Z " fill-rule="nonzero" fill="#ffffff" stroke="none" />
    <path d="M 210 2172.5  C 217.56 2172.5  223.5 2178.44  223.5 2186  C 223.5 2193.56  217.56 2199.5  210 2199.5  C 202.44 2199.5  196.5 2193.56  196.5 2186  C 196.5 2178.44  202.44 2172.5  210 2172.5  Z " stroke-width="1" stroke="#797979" fill="none" />
  </g>
</svg>