<?xml version="1.0" encoding="utf-8"?>
<svg version="1.1" xmlns:xlink="http://www.w3.org/1999/xlink" width="22px" height="62px" xmlns="http://www.w3.org/2000/svg">
  <defs>
    <mask fill="white" id="clip7">
      <path d="M 0 62  L 0 38  L 0 0  L 22 0  L 22 38  L 22 62  L 0 62  Z " fill-rule="evenodd" />
    </mask>
  </defs>
  <g transform="matrix(1 0 0 1 -624 -1972 )">
    <path d="M 0 62  L 0 38  L 0 0  L 22 0  L 22 38  L 22 62  L 0 62  Z " fill-rule="nonzero" fill="#ffffff" stroke="none" transform="matrix(1 0 0 1 624 1972 )" />
    <path d="M 0 62  L 0 38  L 0 0  L 22 0  L 22 38  L 22 62  L 0 62  Z " stroke-width="2" stroke="#797979" fill="none" transform="matrix(1 0 0 1 624 1972 )" mask="url(#clip7)" />
  </g>
</svg>