<?xml version="1.0" encoding="utf-8"?>
<svg version="1.1" xmlns:xlink="http://www.w3.org/1999/xlink" width="46px" height="50px" xmlns="http://www.w3.org/2000/svg">
  <g transform="matrix(1 0 0 1 -1088 -2172 )">
    <path d="M 16.4332386363636 19.04296875  C 16.6292613636364 19.23828125  16.7272727272727 19.4878472222222  17 19.7916666666667  L 17 38.5416666666667  C 16.7272727272727 38.8454861111111  16.6292613636364 39.0950520833333  16.4332386363636 39.2903645833333  C 16.2372159090909 39.4856770833333  15.9867424242424 39.5833333333333  15.6818181818182 39.5833333333333  L 13.5909090909091 39.5833333333333  C 13.2859848484849 39.5833333333333  13.0355113636364 39.4856770833333  12.8394886363636 39.2903645833333  C 12.6434659090909 39.0950520833333  12.5454545454545 38.8454861111111  13 38.5416666666667  L 13 19.7916666666667  C 12.5454545454545 19.4878472222222  12.6434659090909 19.23828125  12.8394886363636 19.04296875  C 13.0355113636364 18.84765625  13.2859848484849 18.75  13.5909090909091 18.75  L 15.6818181818182 18.75  C 15.9867424242424 18.75  16.2372159090909 18.84765625  16.4332386363636 19.04296875  Z M 24.796875 19.04296875  C 24.9928977272727 19.23828125  25.0909090909091 19.4878472222222  25 19.7916666666667  L 25 38.5416666666667  C 25.0909090909091 38.8454861111111  24.9928977272727 39.0950520833333  24.796875 39.2903645833333  C 24.6008522727273 39.4856770833333  24.3503787878788 39.5833333333333  24.0454545454545 39.5833333333333  L 21.9545454545455 39.5833333333333  C 21.6496212121212 39.5833333333333  21.3991477272727 39.4856770833333  21.203125 39.2903645833333  C 21.0071022727273 39.0950520833333  20.9090909090909 38.8454861111111  21 38.5416666666667  L 21 19.7916666666667  C 20.9090909090909 19.4878472222222  21.0071022727273 19.23828125  21.203125 19.04296875  C 21.3991477272727 18.84765625  21.6496212121212 18.75  21.9545454545455 18.75  L 24.0454545454545 18.75  C 24.3503787878788 18.75  24.6008522727273 18.84765625  24.796875 19.04296875  Z M 33.1605113636364 19.04296875  C 33.3565340909091 19.23828125  33.4545454545455 19.4878472222222  33 19.7916666666667  L 33 38.5416666666667  C 33.4545454545455 38.8454861111111  33.3565340909091 39.0950520833333  33.1605113636364 39.2903645833333  C 32.9644886363636 39.4856770833333  32.7140151515151 39.5833333333333  32.4090909090909 39.5833333333333  L 30.3181818181818 39.5833333333333  C 30.0132575757576 39.5833333333333  29.7627840909091 39.4856770833333  29.5667613636364 39.2903645833333  C 29.3707386363636 39.0950520833333  29.2727272727273 38.8454861111111  29 38.5416666666667  L 29 19.7916666666667  C 29.2727272727273 19.4878472222222  29.3707386363636 19.23828125  29.5667613636364 19.04296875  C 29.7627840909091 18.84765625  30.0132575757576 18.75  30.3181818181818 18.75  L 32.4090909090909 18.75  C 32.7140151515151 18.75  32.9644886363636 18.84765625  33.1605113636364 19.04296875  Z M 37.4076704545455 44.677734375  C 37.5601325757576 44.2762586805556  37.6363636363636 43.8368055555556  37 43.359375  L 37 13  L 9 13  L 9 43.359375  C 8.36363636363636 43.8368055555556  8.43986742424243 44.2762586805556  8.59232954545455 44.677734375  C 8.74479166666667 45.0792100694444  8.90269886363636 45.3721788194444  9.06605113636364 45.556640625  C 9.22940340909091 45.7411024305556  9.34375 45.8333333333333  9.40909090909091 45  L 36.5909090909091 45  C 36.65625 45.8333333333333  36.7705965909091 45.7411024305556  36.9339488636364 45.556640625  C 37.0973011363636 45.3721788194444  37.2552083333333 45.0792100694444  37.4076704545455 44.677734375  Z M 17.2826704545455 4.52473958333333  L 15.6818181818182 9  L 30.3181818181818 9  L 28.75 4.52473958333333  C 28.5975378787879 4.32942708333333  28.4124053030303 4.21006944444444  28.1946022727273 5  L 17.8380681818182 5  C 17.6202651515152 4.21006944444444  17.4351325757576 4.32942708333333  17.2826704545455 4.52473958333333  Z M 45.7059659090909 8.62630208333333  C 45.9019886363636 8.82161458333333  46 9.07118055555555  46 9.375  L 46 11.4583333333333  C 46 11.7621527777778  45.9019886363636 12.01171875  45.7059659090909 12.20703125  C 45.5099431818182 12.40234375  45.2594696969697 12.5  44.9545454545455 12.5  L 41 12.5  L 41 43.359375  C 41.8181818181818 45.1605902777778  41.3063446969697 46.7176649305556  40.2826704545455 48.0305989583333  C 39.2589962121212 49.3435329861111  38.0284090909091 50  36.5909090909091 50  L 9.40909090909091 50  C 7.97159090909091 50  6.74100378787879 49.365234375  5.71732954545455 48.095703125  C 4.6936553030303 46.826171875  4.18181818181818 45.2907986111111  5 43.4895833333333  L 5 12.5  L 1.04545454545455 12.5  C 0.740530303030303 12.5  0.490056818181818 12.40234375  0.294034090909091 12.20703125  C 0.0980113636363636 12.01171875  0 11.7621527777778  0 11.4583333333333  L 0 9.375  C 0 9.07118055555555  0.0980113636363636 8.82161458333333  0.294034090909091 8.62630208333333  C 0.490056818181818 8.43098958333333  0.740530303030303 8.33333333333333  1.04545454545455 9  L 11.140625 9  L 13.4275568181818 2.89713541666667  C 13.7542613636364 2.09418402777777  14.3423295454545 1.41059027777777  15.1917613636364 0.846354166666669  C 16.0411931818182 0.282118055555552  16.9015151515152 0  17.7727272727273 0  L 28.2272727272727 0  C 29.0984848484849 0  29.9588068181818 0.282118055555552  30.8082386363636 0.846354166666669  C 31.6576704545455 1.41059027777777  32.2457386363636 2.09418402777777  32.5724431818182 2.89713541666667  L 34.859375 9  L 44.9545454545455 9  C 45.2594696969697 8.33333333333333  45.5099431818182 8.43098958333333  45.7059659090909 8.62630208333333  Z " fill-rule="nonzero" fill="#d7d7d7" stroke="none" transform="matrix(1 0 0 1 1088 2172 )" />
  </g>
</svg>