<?xml version="1.0" encoding="utf-8"?>
<svg version="1.1" xmlns:xlink="http://www.w3.org/1999/xlink" width="28px" height="38px" xmlns="http://www.w3.org/2000/svg">
  <g transform="matrix(1 0 0 1 -596 -1490 )">
    <path d="M 27.0763888888889 17.330078125  C 27.6921296296296 17.8001302083333  28 18.3567708333333  28 19  C 28 19.6432291666667  27.6921296296296 20.1998697916667  27.0763888888889 20.669921875  L 5.29861111111111 37.294921875  C 4.68287037037037 37.7649739583333  3.9537037037037 38  3.11111111111111 38  C 2.26851851851852 38  1.53935185185185 37.7649739583333  0.923611111111111 37.294921875  C 0.30787037037037 36.8248697916667  0 36.2682291666667  0 35.625  L 0 2.375  C 0 1.73177083333333  0.30787037037037 1.17513020833333  0.923611111111111 0.705078125  C 1.53935185185185 0.235026041666664  2.26851851851852 0  3.11111111111111 0  C 3.9537037037037 0  4.68287037037037 0.235026041666664  5.29861111111111 0.705078125  L 27.0763888888889 17.330078125  Z " fill-rule="nonzero" fill="#ffffff" stroke="none" transform="matrix(1 0 0 1 596 1490 )" />
  </g>
</svg>