<?xml version="1.0" encoding="utf-8"?>
<svg version="1.1" xmlns:xlink="http://www.w3.org/1999/xlink" width="50px" height="50px" xmlns="http://www.w3.org/2000/svg">
  <g transform="matrix(1 0 0 1 -1066 -1484 )">
    <path d="M 48.73046875 2.24609375  C 49.5768229166667 2.61501736111111  50 3.25520833333333  50 4.16666666666667  L 50 18.75  C 50 19.3142361111111  49.7938368055556 19.8025173611111  49.3815104166667 20.21484375  C 48.9691840277778 20.6271701388889  48.4809027777778 20.8333333333333  47.9166666666667 21  L 33.3333333333333 21  C 32.421875 20.8333333333333  31.7816840277778 20.3993055555556  31.4127604166667 19.53125  C 31.0438368055556 18.6848958333333  31.1957465277778 17.9361979166667  31.8684895833333 17.28515625  L 36.3606770833333 12.79296875  C 33.1488715277778 9.81987847222222  29.3619791666667 8.33333333333333  25 8.33333333333333  C 22.7430555555556 8.33333333333333  20.5891927083333 8.77278645833333  18.5384114583333 9.65169270833333  C 16.4876302083333 10.5305989583333  14.7135416666667 11.71875  13.2161458333333 13.2161458333333  C 11.71875 14.7135416666667  10.5305989583333 16.4876302083333  9.65169270833333 18.5384114583333  C 8.77278645833333 20.5891927083333  8.33333333333333 22.7430555555556  8.33333333333333 25  C 8.33333333333333 27.2569444444444  8.77278645833333 29.4108072916667  9.65169270833333 31.4615885416667  C 10.5305989583333 33.5123697916667  11.71875 35.2864583333333  13.2161458333333 36.7838541666667  C 14.7135416666667 38.28125  16.4876302083333 39.4694010416667  18.5384114583333 40.3483072916667  C 20.5891927083333 41.2272135416667  22.7430555555556 41.6666666666667  25 41.6666666666667  C 27.5824652777778 41.6666666666667  30.0238715277778 41.1024305555556  32.32421875 39.9739583333333  C 34.6245659722222 38.8454861111111  36.5668402777778 37.2504340277778  38.1510416666667 35.1888020833333  C 38.3029513888889 34.9717881944444  38.5525173611111 34.8415798611111  38.8997395833333 34.7981770833333  C 39.2252604166667 34.7981770833333  39.4965277777778 34.8958333333333  39.7135416666667 35.0911458333333  L 44.1731770833333 39.5833333333333  C 44.3684895833333 39.7569444444444  44.4715711805556 39.9793836805556  44.482421875 40.2506510416667  C 44.4932725694445 40.5219184027778  44.4118923611111 40.7660590277778  44.23828125 40.9830729166667  C 41.8728298611111 43.84765625  39.0082465277778 46.0666232638889  35.64453125 47.6399739583333  C 32.2808159722222 49.2133246527778  28.7326388888889 50  25 50  C 21.6145833333333 50  18.3810763888889 49.3381076388889  15.2994791666667 48.0143229166667  C 12.2178819444444 46.6905381944444  9.55946180555556 44.9110243055556  7.32421875 42.67578125  C 5.08897569444444 40.4405381944444  3.30946180555556 37.7821180555556  1.98567708333333 34.7005208333333  C 0.661892361111111 31.6189236111111  0 28.3854166666667  0 25  C 0 21.6145833333333  0.661892361111111 18.3810763888889  1.98567708333333 15.2994791666667  C 3.30946180555556 12.2178819444444  5.08897569444444 9.55946180555555  7.32421875 7.32421875  C 9.55946180555556 5.08897569444444  12.2178819444444 3.30946180555555  15.2994791666667 1.98567708333333  C 18.3810763888889 0.66189236111111  21.6145833333333 0  25 0  C 28.1901041666667 0  31.2771267361111 0.602213541666669  34.2610677083333 1.806640625  C 37.2450086805556 3.01106770833333  39.8980034722222 4.70920138888888  42.2200520833333 6.90104166666667  L 46.4518229166667 2.70182291666667  C 47.0811631944445 2.02907986111111  47.8407118055556 1.87717013888888  48.73046875 2.24609375  Z " fill-rule="nonzero" fill="#7f7f7f" stroke="none" transform="matrix(1 0 0 1 1066 1484 )" />
  </g>
</svg>