<?xml version="1.0" encoding="utf-8"?>
<svg version="1.1" xmlns:xlink="http://www.w3.org/1999/xlink" width="50px" height="50px" xmlns="http://www.w3.org/2000/svg">
  <g transform="matrix(1 0 0 1 -954 -1484 )">
    <path d="M 48.0143229166667 15.2994791666667  C 49.3381076388889 18.3810763888889  50 21.6145833333333  50 25  C 50 28.3854166666667  49.3381076388889 31.6189236111111  48.0143229166667 34.7005208333333  C 46.6905381944445 37.7821180555556  44.9110243055556 40.4405381944444  42.67578125 42.67578125  C 40.4405381944445 44.9110243055556  37.7821180555556 46.6905381944444  34.7005208333333 48.0143229166667  C 31.6189236111111 49.3381076388889  28.3854166666667 50  25 50  C 21.2673611111111 50  17.7191840277778 49.2133246527778  14.35546875 47.6399739583333  C 10.9917534722222 46.0666232638889  8.12717013888889 43.84765625  5.76171875 40.9830729166667  C 5.60980902777778 40.7660590277778  5.53927951388889 40.5219184027778  5.55013020833333 40.2506510416667  C 5.56098090277778 39.9793836805556  5.65321180555556 39.7569444444444  5.82682291666667 39.5833333333333  L 10.2864583333333 35.0911458333333  C 10.5034722222222 34.8958333333333  10.7747395833333 34.7981770833333  11.1002604166667 34.7981770833333  C 11.4474826388889 34.8415798611111  11.6970486111111 34.9717881944444  11.8489583333333 35.1888020833333  C 13.4331597222222 37.2504340277778  15.3754340277778 38.8454861111111  17.67578125 39.9739583333333  C 19.9761284722222 41.1024305555556  22.4175347222222 41.6666666666667  25 41.6666666666667  C 27.2569444444444 41.6666666666667  29.4108072916667 41.2272135416667  31.4615885416667 40.3483072916667  C 33.5123697916667 39.4694010416667  35.2864583333333 38.28125  36.7838541666667 36.7838541666667  C 38.28125 35.2864583333333  39.4694010416667 33.5123697916667  40.3483072916667 31.4615885416667  C 41.2272135416667 29.4108072916667  41.6666666666667 27.2569444444444  41.6666666666667 25  C 41.6666666666667 22.7430555555556  41.2272135416667 20.5891927083333  40.3483072916667 18.5384114583333  C 39.4694010416667 16.4876302083333  38.28125 14.7135416666667  36.7838541666667 13.2161458333333  C 35.2864583333333 11.71875  33.5123697916667 10.5305989583333  31.4615885416667 9.65169270833333  C 29.4108072916667 8.77278645833333  27.2569444444444 8.33333333333333  25 8.33333333333333  C 22.8732638888889 8.33333333333333  20.8333333333333 8.71853298611111  18.8802083333333 9.48893229166667  C 16.9270833333333 10.2593315972222  15.1909722222222 11.3606770833333  13.671875 12.79296875  L 18.1315104166667 17.28515625  C 18.8042534722222 17.9361979166667  18.9561631944444 18.6848958333333  18.5872395833333 19.53125  C 18.2183159722222 20.3993055555556  17.578125 20.8333333333333  16.6666666666667 21  L 2.08333333333333 21  C 1.51909722222222 20.8333333333333  1.03081597222222 20.6271701388889  0.618489583333333 20.21484375  C 0.206163194444444 19.8025173611111  0 19.3142361111111  0 18.75  L 0 4.16666666666667  C 0 3.25520833333333  0.434027777777778 2.61501736111111  1.30208333333333 2.24609375  C 2.1484375 1.87717013888888  2.89713541666667 2.02907986111111  3.54817708333333 2.70182291666667  L 7.77994791666667 6.90104166666667  C 10.1019965277778 4.70920138888888  12.7549913194444 3.01106770833333  15.7389322916667 1.806640625  C 18.7228732638889 0.602213541666669  21.8098958333333 0  25 0  C 28.3854166666667 0  31.6189236111111 0.66189236111111  34.7005208333333 1.98567708333333  C 37.7821180555556 3.30946180555555  40.4405381944445 5.08897569444444  42.67578125 7.32421875  C 44.9110243055556 9.55946180555555  46.6905381944445 12.2178819444444  48.0143229166667 15.2994791666667  Z " fill-rule="nonzero" fill="#7f7f7f" stroke="none" transform="matrix(1 0 0 1 954 1484 )" />
  </g>
</svg>