<?xml version="1.0" encoding="utf-8"?>
<svg version="1.1" xmlns:xlink="http://www.w3.org/1999/xlink" width="30px" height="30px" viewBox="2627 2083  30 30" xmlns="http://www.w3.org/2000/svg">
  <path d="M 2642 2083  C 2650.4 2083  2657 2089.6  2657 2098  C 2657 2106.4  2650.4 2113  2642 2113  C 2633.6 2113  2627 2106.4  2627 2098  C 2627 2089.6  2633.6 2083  2642 2083  Z " fill-rule="nonzero" fill="#ffffff" stroke="none" />
  <path d="M 2642 2083.5  C 2650.12 2083.5  2656.5 2089.88  2656.5 2098  C 2656.5 2106.12  2650.12 2112.5  2642 2112.5  C 2633.88 2112.5  2627.5 2106.12  2627.5 2098  C 2627.5 2089.88  2633.88 2083.5  2642 2083.5  Z " stroke-width="1" stroke="#797979" fill="none" />
  <path d="M 2642 2105.5  C 2637.8 2105.5  2634.5 2102.2  2634.5 2098  C 2634.5 2093.8  2637.8 2090.5  2642 2090.5  C 2646.2 2090.5  2649.5 2093.8  2649.5 2098  C 2649.5 2102.2  2646.2 2105.5  2642 2105.5  " fill-rule="nonzero" fill="#797979" stroke="none" />
</svg>