<?xml version="1.0" encoding="utf-8"?>
<svg version="1.1" xmlns:xlink="http://www.w3.org/1999/xlink" width="150px" height="150px" xmlns="http://www.w3.org/2000/svg">
  <g transform="matrix(1 0 0 1 -2559 -296 )">
    <path d="M 2634 296  C 2676 296  2709 329  2709 371  C 2709 413  2676 446  2634 446  C 2592 446  2559 413  2559 371  C 2559 329  2592 296  2634 296  Z " fill-rule="nonzero" fill="#ffffff" stroke="none" />
    <path d="M 2634 296.5  C 2675.72 296.5  2708.5 329.28  2708.5 371  C 2708.5 412.72  2675.72 445.5  2634 445.5  C 2592.28 445.5  2559.5 412.72  2559.5 371  C 2559.5 329.28  2592.28 296.5  2634 296.5  Z " stroke-width="1" stroke="#797979" fill="none" />
  </g>
</svg>