<?xml version="1.0" encoding="utf-8"?>
<svg version="1.1" xmlns:xlink="http://www.w3.org/1999/xlink" width="32px" height="32px" xmlns="http://www.w3.org/2000/svg">
  <g transform="matrix(1 0 0 1 -2826 -825 )">
    <path d="M 21.1458333333333 26.4791666666667  C 21.2708333333333 26.3541666666667  21.3333333333333 26.1944444444444  21.3333333333333 26  L 21.3333333333333 22.6666666666667  C 21.3333333333333 22.4722222222222  21.2708333333333 22.3125  21.1458333333333 22.1875  C 21.0208333333333 22.0625  20.8611111111111 22  20.6666666666667 22  L 18.6666666666667 22  L 18.6666666666667 11.3333333333333  C 18.6666666666667 11.1388888888889  18.6041666666667 10.9791666666667  18.4791666666667 10.8541666666667  C 18.3541666666667 10.7291666666667  18.1944444444444 10.6666666666667  18 10.6666666666667  L 11.3333333333333 10.6666666666667  C 11.1388888888889 10.6666666666667  10.9791666666667 10.7291666666667  10.8541666666667 10.8541666666667  C 10.7291666666667 10.9791666666667  10.6666666666667 11.1388888888889  10.6666666666667 11.3333333333333  L 10.6666666666667 14.6666666666667  C 10.6666666666667 14.8611111111111  10.7291666666667 15.0208333333333  10.8541666666667 15.1458333333333  C 10.9791666666667 15.2708333333333  11.1388888888889 15.3333333333333  11.3333333333333 15.3333333333333  L 13.3333333333333 15.3333333333333  L 13.3333333333333 22  L 11.3333333333333 22  C 11.1388888888889 22  10.9791666666667 22.0625  10.8541666666667 22.1875  C 10.7291666666667 22.3125  10.6666666666667 22.4722222222222  10.6666666666667 22.6666666666667  L 10.6666666666667 26  C 10.6666666666667 26.1944444444444  10.7291666666667 26.3541666666667  10.8541666666667 26.4791666666667  C 10.9791666666667 26.6041666666667  11.1388888888889 26.6666666666667  11.3333333333333 26.6666666666667  L 20.6666666666667 26.6666666666667  C 20.8611111111111 26.6666666666667  21.0208333333333 26.6041666666667  21.1458333333333 26.4791666666667  Z M 18.4791666666667 7.8125  C 18.6041666666667 7.6875  18.6666666666667 7.52777777777778  18.6666666666667 7.33333333333333  L 18.6666666666667 4  C 18.6666666666667 3.80555555555555  18.6041666666667 3.64583333333333  18.4791666666667 3.52083333333333  C 18.3541666666667 3.39583333333333  18.1944444444444 3.33333333333333  18 3.33333333333333  L 14 3.33333333333333  C 13.8055555555556 3.33333333333333  13.6458333333333 3.39583333333333  13.5208333333333 3.52083333333333  C 13.3958333333333 3.64583333333333  13.3333333333333 3.80555555555555  13.3333333333333 4  L 13.3333333333333 7.33333333333333  C 13.3333333333333 7.52777777777778  13.3958333333333 7.6875  13.5208333333333 7.8125  C 13.6458333333333 7.9375  13.8055555555556 8  14 8  L 18 8  C 18.1944444444444 8  18.3541666666667 7.9375  18.4791666666667 7.8125  Z M 29.8541666666667 7.96875  C 31.2847222222222 10.4201388888889  32 13.0972222222222  32 16  C 32 18.9027777777778  31.2847222222222 21.5798611111111  29.8541666666667 24.03125  C 28.4236111111111 26.4826388888889  26.4826388888889 28.4236111111111  24.03125 29.8541666666667  C 21.5798611111111 31.2847222222222  18.9027777777778 32  16 32  C 13.0972222222222 32  10.4201388888889 31.2847222222222  7.96875 29.8541666666667  C 5.51736111111111 28.4236111111111  3.57638888888889 26.4826388888889  2.14583333333333 24.03125  C 0.715277777777778 21.5798611111111  0 18.9027777777778  0 16  C 0 13.0972222222222  0.715277777777778 10.4201388888889  2.14583333333333 7.96875  C 3.57638888888889 5.51736111111111  5.51736111111111 3.57638888888889  7.96875 2.14583333333333  C 10.4201388888889 0.715277777777775  13.0972222222222 0  16 0  C 18.9027777777778 0  21.5798611111111 0.715277777777775  24.03125 2.14583333333333  C 26.4826388888889 3.57638888888889  28.4236111111111 5.51736111111111  29.8541666666667 7.96875  Z " fill-rule="nonzero" fill="#aaaaaa" stroke="none" transform="matrix(1 0 0 1 2826 825 )" />
  </g>
</svg>