<?xml version="1.0" encoding="utf-8"?>
<svg version="1.1" xmlns:xlink="http://www.w3.org/1999/xlink" width="20px" height="32px" xmlns="http://www.w3.org/2000/svg">
  <g transform="matrix(1 0 0 1 -2699 -487 )">
    <path d="M 20 16  C 20 16.3440860215054  19.8777348777349 16.641852770885  19.6332046332046 16.893300248139  L 5.30888030888031 31.6228287841191  C 5.06435006435007 31.874276261373  4.77477477477478 32  4.44015444015444 32  C 4.10553410553411 32  3.81595881595882 31.874276261373  3.57142857142857 31.6228287841191  L 0.366795366795367 28.3275434243176  C 0.122265122265122 28.0760959470637  0 27.778329197684  0 27.4342431761787  C 0 27.0901571546733  0.122265122265122 26.7923904052936  0.366795366795367 26.5409429280397  L 10.6177606177606 16  L 0.366795366795367 5.4590570719603  C 0.122265122265122 5.20760959470637  0 4.90984284532671  0 4.56575682382134  C 0 4.22167080231596  0.122265122265122 3.92390405293631  0.366795366795367 3.67245657568238  L 3.57142857142857 0.377171215880892  C 3.81595881595882 0.125723738626963  4.10553410553411 0  4.44015444015444 0  C 4.77477477477478 0  5.06435006435007 0.125723738626963  5.30888030888031 0.377171215880892  L 19.6332046332046 15.106699751861  C 19.8777348777349 15.358147229115  20 15.6559139784946  20 16  Z " fill-rule="nonzero" fill="#7f7f7f" stroke="none" transform="matrix(1 0 0 1 2699 487 )" />
  </g>
</svg>