<?xml version="1.0" encoding="utf-8"?>
<svg version="1.1" xmlns:xlink="http://www.w3.org/1999/xlink" width="42px" height="42px" xmlns="http://www.w3.org/2000/svg">
  <g transform="matrix(1 0 0 1 -3520 -202 )">
    <path d="M 25.94921875 25.94921875  C 27.31640625 24.58203125  28 22.9322916666667  28 21  C 28 19.0677083333333  27.31640625 17.41796875  25.94921875 16.05078125  C 24.58203125 14.68359375  22.9322916666667 14  21 14  C 19.0677083333333 14  17.41796875 14.68359375  16.05078125 16.05078125  C 14.68359375 17.41796875  14 19.0677083333333  14 21  C 14 22.9322916666667  14.68359375 24.58203125  16.05078125 25.94921875  C 17.41796875 27.31640625  19.0677083333333 28  21 28  C 22.9322916666667 28  24.58203125 27.31640625  25.94921875 25.94921875  Z M 41.78125 17.376953125  C 41.9270833333333 17.568359375  42 17.7825520833333  42 18.01953125  L 42 24.08984375  C 42 24.30859375  41.9270833333333 24.5182291666667  41.78125 24.71875  C 41.6354166666667 24.9192708333333  41.453125 25.0377604166667  41.234375 25.07421875  L 36.17578125 25.83984375  C 35.8294270833333 26.82421875  35.4739583333333 27.6536458333333  35.109375 28.328125  C 35.7473958333333 29.2395833333333  36.72265625 30.4973958333333  38.03515625 32.1015625  C 38.2174479166667 32.3203125  38.30859375 32.5481770833333  38.30859375 32.78515625  C 38.30859375 33.0221354166667  38.2265625 33.2317708333333  38.0625 33.4140625  C 37.5703125 34.0885416666667  36.66796875 35.0729166666667  35.35546875 36.3671875  C 34.04296875 37.6614583333333  33.1861979166667 38.30859375  32.78515625 38.30859375  C 32.56640625 38.30859375  32.3294270833333 38.2265625  32.07421875 38.0625  L 28.30078125 35.109375  C 27.4986979166667 35.5286458333333  26.6692708333333 35.875  25.8125 36.1484375  C 25.5208333333333 38.6276041666667  25.2565104166667 40.3229166666667  25.01953125 41.234375  C 24.8919270833333 41.7447916666667  24.5638020833333 42  24.03515625 42  L 17.96484375 42  C 17.7096354166667 42  17.486328125 41.9225260416667  17.294921875 41.767578125  C 17.103515625 41.6126302083333  16.9986979166667 41.4166666666667  16.98046875 41.1796875  L 16.21484375 36.1484375  C 15.3216145833333 35.8567708333333  14.5013020833333 35.51953125  13.75390625 35.13671875  L 9.8984375 38.0625  C 9.71614583333333 38.2265625  9.48828125 38.30859375  9.21484375 38.30859375  C 8.95963541666667 38.30859375  8.73177083333333 38.2083333333333  8.53125 38.0078125  C 6.234375 35.9296875  4.73046875 34.3984375  4.01953125 33.4140625  C 3.89192708333333 33.2317708333333  3.828125 33.0221354166667  3.828125 32.78515625  C 3.828125 32.56640625  3.90104166666667 32.3567708333333  4.046875 32.15625  C 4.3203125 31.7734375  4.78515625 31.1673177083333  5.44140625 30.337890625  C 6.09765625 29.5084635416667  6.58984375 28.8658854166667  6.91796875 28.41015625  C 6.42578125 27.4986979166667  6.05208333333333 26.5963541666667  5.796875 25.703125  L 0.79296875 24.96484375  C 0.555989583333333 24.9283854166667  0.364583333333333 24.814453125  0.21875 24.623046875  C 0.0729166666666667 24.431640625  0 24.2174479166667  0 23.98046875  L 0 17.91015625  C 0 17.69140625  0.0729166666666667 17.4817708333333  0.21875 17.28125  C 0.364583333333333 17.0807291666667  0.537760416666667 16.9622395833333  0.73828125 16.92578125  L 5.82421875 16.16015625  C 6.07942708333333 15.3216145833333  6.43489583333333 14.4830729166667  6.890625 13.64453125  C 6.16145833333333 12.60546875  5.18619791666667 11.34765625  3.96484375 9.87109375  C 3.78255208333333 9.65234375  3.69140625 9.43359375  3.69140625 9.21484375  C 3.69140625 9.03255208333333  3.7734375 8.82291666666666  3.9375 8.5859375  C 4.41145833333333 7.9296875  5.30924479166667 6.94986979166666  6.630859375 5.646484375  C 7.95247395833333 4.34309895833333  8.81380208333333 3.69140625  9.21484375 3.69140625  C 9.45182291666667 3.69140625  9.68880208333333 3.78255208333333  9.92578125 3.96484375  L 13.69921875 6.890625  C 14.5013020833333 6.47135416666666  15.3307291666667 6.125  16.1875 5.8515625  C 16.4791666666667 3.37239583333333  16.7434895833333 1.67708333333333  16.98046875 0.765624999999998  C 17.1080729166667 0.255208333333331  17.4361979166667 0  17.96484375 0  L 24.03515625 0  C 24.2903645833333 0  24.513671875 0.0774739583333297  24.705078125 0.232421874999998  C 24.896484375 0.387369791666663  25.0013020833333 0.583333333333331  25.01953125 0.8203125  L 25.78515625 5.8515625  C 26.6783854166667 6.14322916666666  27.4986979166667 6.48046875  28.24609375 6.86328125  L 32.12890625 3.9375  C 32.29296875 3.7734375  32.51171875 3.69140625  32.78515625 3.69140625  C 33.0221354166667 3.69140625  33.25 3.78255208333333  33.46875 3.96484375  C 35.8203125 6.13411458333333  37.32421875 7.68359375  37.98046875 8.61328125  C 38.1080729166667 8.75911458333333  38.171875 8.95963541666666  38.171875 9.21484375  C 38.171875 9.43359375  38.0989583333333 9.64322916666666  37.953125 9.84375  C 37.6796875 10.2265625  37.21484375 10.8326822916667  36.55859375 11.662109375  C 35.90234375 12.4915364583333  35.41015625 13.1341145833333  35.08203125 13.58984375  C 35.5559895833333 14.5013020833333  35.9296875 15.39453125  36.203125 16.26953125  L 41.20703125 17.03515625  C 41.4440104166667 17.0716145833333  41.6354166666667 17.185546875  41.78125 17.376953125  Z " fill-rule="nonzero" fill="#000000" stroke="none" transform="matrix(1 0 0 1 3520 202 )" />
  </g>
</svg>