<?xml version="1.0" encoding="utf-8"?>
<svg version="1.1" xmlns:xlink="http://www.w3.org/1999/xlink" width="111px" height="111px" xmlns="http://www.w3.org/2000/svg">
  <g transform="matrix(1 0 0 1 -518 -368 )">
    <path d="M 33.9441964285714 4.39787946428571  C 40.7991071428571 1.46595982142857  47.984375 0  55.5 0  C 63.015625 0  70.2008928571429 1.46595982142857  77.0558035714286 4.39787946428571  C 83.9107142857143 7.32979910714285  89.8158482142857 11.2734375  94.7712053571429 16.2287946428571  C 99.7265625 21.1841517857143  103.670200892857 27.0892857142857  106.602120535714 33.9441964285714  C 109.534040178571 40.7991071428571  111 47.984375  111 55.5  C 111 62.9743303571429  109.544363839286 70.1389508928571  106.633091517857 76.9938616071428  C 103.721819196429 83.8487723214286  99.7885044642857 89.75390625  94.8331473214286 94.7092633928572  C 89.8777901785714 99.6646205357143  83.97265625 103.618582589286  77.1177455357143 106.571149553571  C 70.2628348214286 109.523716517857  63.0569196428571 111  55.5 111  C 47.9430803571429 111  40.7371651785714 109.534040178571  33.8822544642857 106.602120535714  C 27.02734375 103.670200892857  21.1325334821429 99.7162388392857  16.1978236607143 94.740234375  C 11.2631138392857 89.7642299107143  7.32979910714286 83.8590959821429  4.39787946428571 77.0248325892857  C 1.46595982142857 70.1905691964286  0 63.015625  0 55.5  C 0 47.984375  1.46595982142857 40.7991071428571  4.39787946428571 33.9441964285714  C 7.32979910714286 27.0892857142857  11.2734375 21.1841517857143  16.2287946428571 16.2287946428571  C 21.1841517857143 11.2734375  27.0892857142857 7.32979910714285  33.9441964285714 4.39787946428571  Z M 74.8878348214286 63.4285714285714  C 84.7985491071429 63.4285714285714  91.1166294642857 70.1802455357143  93.8420758928571 83.68359375  C 99.9949776785714 75.2181919642857  103.071428571429 65.8236607142857  103.071428571429 55.5  C 103.071428571429 49.0580357142857  101.811941964286 42.9051339285714  99.29296875 37.0412946428571  C 96.7739955357143 31.1774553571429  93.3878348214286 26.1188616071428  89.1344866071429 21.8655133928571  C 84.8811383928572 17.6121651785714  79.8225446428571 14.2260044642857  73.9587053571429 11.70703125  C 68.0948660714286 9.18805803571428  61.9419642857143 7.92857142857143  55.5 7.92857142857143  C 49.0580357142857 7.92857142857143  42.9051339285714 9.18805803571428  37.0412946428571 11.70703125  C 31.1774553571429 14.2260044642857  26.1188616071429 17.6121651785714  21.8655133928571 21.8655133928571  C 17.6121651785714 26.1188616071428  14.2260044642857 31.1774553571429  11.70703125 37.0412946428571  C 9.18805803571429 42.9051339285714  7.92857142857143 49.0580357142857  7.92857142857143 55.5  C 7.92857142857143 65.8236607142857  11.0050223214286 75.2181919642857  17.1579241071429 83.68359375  C 19.8833705357143 70.1802455357143  26.2014508928571 63.4285714285714  36.1121651785714 63.4285714285714  C 41.5217633928571 68.7142857142857  47.984375 71.3571428571428  55.5 71.3571428571428  C 63.015625 71.3571428571428  69.4782366071429 68.7142857142857  74.8878348214286 63.4285714285714  Z M 72.3172433035714 60.4243861607143  C 76.962890625 55.7787388392857  79.2857142857143 50.1729910714286  79.2857142857143 43.6071428571429  C 79.2857142857143 37.0412946428571  76.962890625 31.435546875  72.3172433035714 26.7898995535714  C 67.6715959821429 22.1442522321429  62.0658482142857 19.8214285714286  55.5 19.8214285714286  C 48.9341517857143 19.8214285714286  43.3284040178571 22.1442522321429  38.6827566964286 26.7898995535714  C 34.037109375 31.435546875  31.7142857142857 37.0412946428571  31.7142857142857 43.6071428571429  C 31.7142857142857 50.1729910714286  34.037109375 55.7787388392857  38.6827566964286 60.4243861607143  C 43.3284040178571 65.0700334821428  48.9341517857143 67.3928571428572  55.5 67.3928571428572  C 62.0658482142857 67.3928571428572  67.6715959821429 65.0700334821428  72.3172433035714 60.4243861607143  Z " fill-rule="nonzero" fill="#000000" stroke="none" transform="matrix(1 0 0 1 518 368 )" />
  </g>
</svg>