<?xml version="1.0" encoding="utf-8"?>
<svg version="1.1" xmlns:xlink="http://www.w3.org/1999/xlink" width="36px" height="50px" xmlns="http://www.w3.org/2000/svg">
  <g transform="matrix(1 0 0 1 -67 -524 )">
    <path d="M 28.546875 31.8080357142857  C 28.715625 32.8125  28.8 33.9099702380952  28.8 35.1004464285714  C 28.8 36.2909226190476  28.453125 37.2860863095238  27.759375 38.0859375  C 27.065625 38.8857886904762  26.2125 39.2857142857143  25.2 39  L 10.8 39  C 9.7875 39.2857142857143  8.934375 38.8857886904762  8.240625 38.0859375  C 7.546875 37.2860863095238  7.2 36.2909226190476  7.2 35.1004464285714  C 7.2 33.9099702380952  7.284375 32.8125  7.453125 31.8080357142857  C 7.621875 30.8035714285714  7.8984375 29.8363095238095  8.2828125 28.90625  C 8.6671875 27.9761904761905  9.2390625 27.24609375  9.9984375 26.7159598214286  C 10.7578125 26.1858258928571  11.6625 25.9207589285714  12.7125 25.9207589285714  C 14.2125 27.3158482142857  15.975 28.0133928571429  18 28.0133928571429  C 20.025 28.0133928571429  21.7875 27.3158482142857  23.2875 25.9207589285714  C 24.3375 25.9207589285714  25.2421875 26.1858258928571  26.0015625 26.7159598214286  C 26.7609375 27.24609375  27.3328125 27.9761904761905  27.7171875 28.90625  C 28.1015625 29.8363095238095  28.378125 30.8035714285714  28.546875 31.8080357142857  Z M 22.5703125 16.1411830357143  C 23.8359375 17.3781622023809  24.46875 18.8709077380952  24.46875 20.6194196428571  C 24.46875 22.367931547619  23.8359375 23.8606770833333  22.5703125 25.09765625  C 21.3046875 26.3346354166667  19.78125 26.953125  18 26.953125  C 16.21875 26.953125  14.6953125 26.3346354166667  13.4296875 25.09765625  C 12.1640625 23.8606770833333  11.53125 22.367931547619  11.53125 20.6194196428571  C 11.53125 18.8709077380952  12.1640625 17.3781622023809  13.4296875 16.1411830357143  C 14.6953125 14.9042038690476  16.21875 14.2857142857143  18 14.2857142857143  C 19.78125 14.2857142857143  21.3046875 14.9042038690476  22.5703125 16.1411830357143  Z M 32.1328125 46.1635044642857  C 32.3109375 45.9867931547619  32.4 45.7775297619048  32 45.5357142857143  L 32 8  L 4 8  L 4 45.5357142857143  C 3.6 45.7775297619048  3.6890625 45.9867931547619  3.8671875 46.1635044642857  C 4.0453125 46.3402157738095  4.25625 46.4285714285714  4.5 46  L 31.5 46  C 31.74375 46.4285714285714  31.9546875 46.3402157738095  32.1328125 46.1635044642857  Z M 34.678125 1.31138392857143  C 35.559375 2.18563988095238  36 3.23660714285715  36 4.46428571428572  L 36 45.5357142857143  C 36 46.7633928571429  35.559375 47.8143601190476  34.678125 48.6886160714286  C 33.796875 49.5628720238095  32.7375 50  31.5 50  L 4.5 50  C 3.2625 50  2.203125 49.5628720238095  1.321875 48.6886160714286  C 0.440625 47.8143601190476  0 46.7633928571429  0 45.5357142857143  L 0 4.46428571428572  C 0 3.23660714285715  0.440625 2.18563988095238  1.321875 1.31138392857143  C 2.203125 0.437127976190477  3.2625 0  4.5 0  L 14.4 0  L 14.4 2.67857142857143  C 14.4 2.93898809523809  14.484375 3.15290178571428  14.653125 3.3203125  C 14.821875 3.48772321428572  15.0375 3.57142857142857  15.3 3.57142857142857  L 20.7 3.57142857142857  C 20.9625 3.57142857142857  21.178125 3.48772321428572  21.346875 3.3203125  C 21.515625 3.15290178571428  21.6 2.93898809523809  21.6 2.67857142857143  L 21.6 0  L 31.5 0  C 32.7375 0  33.796875 0.437127976190477  34.678125 1.31138392857143  Z " fill-rule="nonzero" fill="#000000" stroke="none" transform="matrix(1 0 0 1 67 524 )" />
  </g>
</svg>