<?xml version="1.0" encoding="utf-8"?>
<svg version="1.1" xmlns:xlink="http://www.w3.org/1999/xlink" width="37px" height="33px" xmlns="http://www.w3.org/2000/svg">
  <g transform="matrix(1 0 0 1 -89 -626 )">
    <path d="M 36.6077008928571 10.951875  C 36.8692336309524 11.213125  37 11.5225  37 11.88  C 37 12.2375  36.8692336309524 12.546875  36.6077008928571 12.808125  L 26.0362723214286 23.368125  C 25.7747395833333 23.629375  25.4650297619048 23.76  25.1071428571429 23.76  C 24.749255952381 23.76  24.4395461309524 23.629375  24.1780133928571 23.368125  C 23.9164806547619 23.106875  23.7857142857143 22.7975  23.7857142857143 22.44  L 23.7857142857143 17.16  L 19.1607142857143 17.16  C 17.811755952381 17.16  16.6038876488095 17.20125  15.537109375 17.28375  C 14.4703311011905 17.36625  13.4104352678571 17.5140625  12.357421875 17.7271875  C 11.3044084821429 17.9403125  10.3890438988095 18.2325  9.611328125 18.60375  C 8.83361235119048 18.975  8.10751488095238 19.4528125  7.43303571428571 20.0371875  C 6.75855654761905 20.6215625  6.20796130952381 21.3159375  5.78125 22.1203125  C 5.35453869047619 22.9246875  5.02074032738095 23.876875  4.77985491071429 24.976875  C 4.53896949404762 26.076875  4.41852678571429 27.32125  4.41852678571429 28.71  C 4.41852678571429 29.46625  4.45293898809524 30.311875  4.52176339285714 31.246875  C 4.52176339285714 31.329375  4.53896949404762 31.4909375  4.57338169642857 31.7315625  C 4.60779389880952 31.9721875  4.625 32.154375  4.625 32.278125  C 4.625 32.484375  4.56649925595238 32.65625  4.44949776785714 32.79375  C 4.33249627976191 32.93125  4.17075892857143 33  3.96428571428571 33  C 3.74404761904762 33  3.55133928571429 32.883125  3.38616071428571 32.649375  C 3.28980654761905 32.525625  3.20033482142857 32.374375  3.11774553571429 32.195625  C 3.03515625 32.016875  2.94224330357143 31.810625  2.83900669642857 31.576875  C 2.73577008928571 31.343125  2.66350446428571 31.178125  2.62220982142857 31.081875  C 0.87406994047619 27.163125  0 24.0625  0 21.78  C 0 19.04375  0.364769345238095 16.754375  1.09430803571429 14.911875  C 3.32421875 9.370625  9.34635416666667 6.6  19.1607142857143 6.6  L 23.7857142857143 6.6  L 23.7857142857143 1.32  C 23.7857142857143 0.962499999999997  23.9164806547619 0.653124999999996  24.1780133928571 0.391874999999999  C 24.4395461309524 0.130624999999998  24.749255952381 0  25.1071428571429 0  C 25.4650297619048 0  25.7747395833333 0.130624999999998  26.0362723214286 0.391874999999999  L 36.6077008928571 10.951875  Z " fill-rule="nonzero" fill="#000000" stroke="none" transform="matrix(1 0 0 1 89 626 )" />
  </g>
</svg>