<?xml version="1.0" encoding="utf-8"?>
<svg version="1.1" xmlns:xlink="http://www.w3.org/1999/xlink" width="29px" height="29px" xmlns="http://www.w3.org/2000/svg">
  <g transform="matrix(1 0 0 1 -97 -453 )">
    <path d="M 111.5 456.607106781187  C 108.6 453.5  105.7 453.5  104.25 453.5  C 101.55 453.5  97.5 456.227586206897  97.5 461.41  C 97.5 472.947557197011  111.5 481.389672219213  111.5 481.389672219213  C 111.5 481.389672219213  125.5 472.947557197011  125.5 461.41  C 125.5 456.227586206897  121.45 453.5  118.75 453.5  C 117.3 453.5  114.4 453.5  111.5 456.607106781187  Z " fill-rule="nonzero" fill="#ffffff" stroke="none" />
    <path d="M 111.5 455.9  C 108.6 453  105.7 453  104.25 453  C 101.35 453  97 455.9  97 461.41  C 97 473.3  111.5 482  111.5 482  C 111.5 482  126 473.3  126 461.41  C 126 455.9  121.65 453  118.75 453  C 117.3 453  114.4 453  111.5 455.9  Z M 111.5 457.314213562373  C 114.4 454  117.3 454  118.75 454  C 121.25 454  125 456.555172413793  125 461.41  C 125 472.595114394021  111.5 480.779344438427  111.5 480.779344438427  C 111.5 480.779344438427  98 472.595114394021  98 461.41  C 98 456.555172413793  101.75 454  104.25 454  C 105.7 454  108.6 454  111.5 457.314213562373  Z " fill-rule="nonzero" fill="#797979" stroke="none" />
  </g>
</svg>