<?xml version="1.0" encoding="utf-8"?>
<svg version="1.1" xmlns:xlink="http://www.w3.org/1999/xlink" width="48px" height="48px" xmlns="http://www.w3.org/2000/svg">
  <g transform="matrix(1 0 0 1 -85 -558 )">
    <path d="M 103.974935545048 575.083592135001  L 109 559.61803398875  L 114.025064454952 575.083592135001  L 130.286514622496 575.083592135001  L 117.130725083772 584.641832724372  L 122.155789538724 600.107390870624  L 109 590.549150281253  L 95.8442104612758 600.107390870624  L 100.869274916228 584.641832724372  L 87.7134853775039 575.083592135001  L 103.974935545048 575.083592135001  Z " fill-rule="nonzero" fill="#ffffff" stroke="none" />
    <path d="M 103.611664281045 574.583592135001  L 109 558  L 114.388335718955 574.583592135001  L 131.825356391084 574.583592135001  L 117.718510336064 584.832815729997  L 123.106846055019 601.416407864999  L 109 591.167184270003  L 94.8931539449806 601.416407864999  L 100.281489663936 584.832815729997  L 86.1746436089163 574.583592135001  L 103.611664281045 574.583592135001  Z M 109 561.2360679775  L 104.33820680905 575.583592135001  L 89.2523271460916 575.583592135001  L 101.457060168521 584.450849718747  L 96.7952669775709 598.798373876249  L 109 589.931116292503  L 121.204733022429 598.798373876249  L 116.542939831479 584.450849718747  L 128.747672853908 575.583592135001  L 113.66179319095 575.583592135001  L 109 561.2360679775  Z " fill-rule="nonzero" fill="#797979" stroke="none" />
  </g>
</svg>