<?xml version="1.0" encoding="utf-8"?>
<svg version="1.1" xmlns:xlink="http://www.w3.org/1999/xlink" width="35px" height="35px" xmlns="http://www.w3.org/2000/svg">
  <g transform="matrix(1 0 0 1 -91 -504 )">
    <path d="M 35 3.5  C 35 1.56625  33.43375 0  31.5 0  L 3.5 0  C 1.56625 0  0.0174999999999996 1.56625  0 3.5  L 0 35  L 7 28  L 31.5 28  C 33.43375 28  35 26.43375  35 24.5  L 35 3.5  Z M 12.25 12.25  L 12.25 15.75  L 8.75 15.75  L 8.75 12.25  L 12.25 12.25  Z M 19.25 12.25  L 19.25 15.75  L 15.75 15.75  L 15.75 12.25  L 19.25 12.25  Z M 26.25 12.25  L 26.25 15.75  L 22.75 15.75  L 22.75 12.25  L 26.25 12.25  Z " fill-rule="nonzero" fill="#000000" stroke="none" transform="matrix(1 0 0 1 91 504 )" />
  </g>
</svg>